<svg viewBox="0,0,500,300" class="chart" xmlns="http://www.w3.org/2000/svg"><g fill="#BA2E17"><circle cx="20" cy="250" r="20"></circle><circle cx="54.61844950135783" cy="250" r="20"></circle><circle cx="74.86894429276117" cy="250" r="12.529964086141668"></circle><circle cx="89.23689900271566" cy="250" r="10.44030650891055"></circle><circle cx="100.38155049864216" cy="250" r="8.602325267042627"></circle><circle cx="109.487393794119" cy="250" r="7.3484692283495345"></circle><circle cx="117.18627460163952" cy="250" r="6.244997998398398"></circle><circle cx="123.85534850407349" cy="250" r="5"></circle><circle cx="129.73788858552237" cy="250" r="5.5677643628300215"></circle><circle cx="135" cy="250" r="4.123105625617661"></circle><circle cx="139.76015879319587" cy="250" r="3.7416573867739413"></circle><circle cx="144.10584329547683" cy="250" r="2.8284271247461903"></circle><circle cx="148.10348551528622" cy="250" r="4.242640687119285"></circle><circle cx="151.80472410299734" cy="250" r="2.6457513110645907"></circle><circle cx="155.25049479140333" cy="250" r="3.4641016151377544"></circle><circle cx="158.47379800543132" cy="250" r="3.1622776601683795"></circle><circle cx="161.5016259585015" cy="250" r="1.7320508075688772"></circle><circle cx="164.35633808688016" cy="250" r="2.23606797749979"></circle><circle cx="167.0566641095753" cy="250" r="2"></circle><circle cx="169.61844950135782" cy="250" r="2.6457513110645907"></circle><circle cx="172.0552188944007" cy="250" r="2"></circle><circle cx="174.37860829455371" cy="250" r="2.8284271247461903"></circle><circle cx="176.59870114202317" cy="250" r="1.7320508075688772"></circle><circle cx="178.72429279683467" cy="250" r="2.23606797749979"></circle><circle cx="180.7631009972843" cy="250" r="2.449489742783178"></circle><circle cx="182.72193501664407" cy="250" r="2.6457513110645907"></circle><circle cx="184.6068328782835" cy="250" r="2.6457513110645907"></circle><circle cx="186.42317360435518" cy="250" r="1.4142135623730951"></circle><circle cx="188.17576975837994" cy="250" r="1.7320508075688772"></circle><circle cx="189.86894429276117" cy="250" r="1.7320508075688772"></circle><circle cx="191.50659479094136" cy="250" r="1.4142135623730951"></circle><circle cx="193.09224750678916" cy="250" r="1.4142135623730951"></circle><circle cx="194.62910308595704" cy="250" r="1.4142135623730951"></circle><circle cx="196.12007545985935" cy="250" r="1.4142135623730951"></circle><circle cx="197.56782510028168" cy="250" r="2"></circle><circle cx="198.974787588238" cy="250" r="1"></circle><circle cx="200.3431982677044" cy="250" r="1.7320508075688772"></circle><circle cx="201.67511361093312" cy="250" r="2"></circle><circle cx="202.9724298080474" cy="250" r="1.7320508075688772"></circle><circle cx="204.23689900271566" cy="250" r="1"></circle><circle cx="205.47014352276958" cy="250" r="1.7320508075688772"></circle><circle cx="206.67366839575854" cy="250" r="1.4142135623730951"></circle><circle cx="207.84887239165243" cy="250" r="1.4142135623730951"></circle><circle cx="208.99705779591153" cy="250" r="1"></circle><circle cx="210.1194390841645" cy="250" r="1"></circle><circle cx="211.217150643381" cy="250" r="1.4142135623730951"></circle><circle cx="214.37254920327905" cy="250" r="1"></circle><circle cx="215.38155049864213" cy="250" r="1"></circle><circle cx="216.37057025126268" cy="250" r="1.7320508075688772"></circle><circle cx="217.34038451800188" cy="250" r="1.4142135623730951"></circle><circle cx="221.04162310571306" cy="250" r="1"></circle><circle cx="221.92560840233648" cy="250" r="1"></circle><circle cx="223.6479813388466" cy="250" r="1"></circle><circle cx="224.487393794119" cy="250" r="1"></circle><circle cx="226.12504429229918" cy="250" r="1"></circle><circle cx="228.48503601392835" cy="250" r="1"></circle><circle cx="229.998602310595" cy="250" r="1"></circle><circle cx="230.73852496121717" cy="250" r="1"></circle><circle cx="234.9616477690622" cy="250" r="1"></circle><circle cx="236.29356311229097" cy="250" r="1"></circle><circle cx="236.9464333948354" cy="250" r="1"></circle><circle cx="239.4757771710447" cy="250" r="1"></circle><circle cx="240.08859302412742" cy="250" r="1.4142135623730951"></circle><circle cx="240.6939806232485" cy="250" r="1"></circle><circle cx="241.88317645714366" cy="250" r="1"></circle><circle cx="242.46732189301025" cy="250" r="1"></circle><circle cx="245.83560014473883" cy="250" r="1"></circle><circle cx="246.9097031639653" cy="250" r="1"></circle><circle cx="247.43821460821746" cy="250" r="1"></circle><circle cx="250.49695798500392" cy="250" r="1"></circle><circle cx="250.98901975262046" cy="250" r="1"></circle><circle cx="253.37913443379907" cy="250" r="1"></circle><circle cx="253.84373188099917" cy="250" r="1"></circle><circle cx="260.3390878155307" cy="250" r="1"></circle><circle cx="262.7178166844136" cy="250" r="1"></circle><circle cx="264.6170518119528" cy="250" r="1"></circle><circle cx="264.9883833769257" cy="250" r="1"></circle><circle cx="265.72286522298674" cy="250" r="1"></circle><circle cx="266.0860949361422" cy="250" r="1"></circle><circle cx="266.80472410299734" cy="250" r="1"></circle><circle cx="268.21168659095366" cy="250" r="1.7320508075688772"></circle><circle cx="268.90057841521025" cy="250" r="1.7320508075688772"></circle><circle cx="269.24149349604016" cy="250" r="1"></circle><circle cx="269.91642086741155" cy="250" r="1"></circle><circle cx="278.79830026552276" cy="250" r="1"></circle><circle cx="279.63303610995627" cy="250" r="1"></circle><circle cx="285.11540748636173" cy="250" r="1"></circle><circle cx="285.36204436001947" cy="250" r="1"></circle><circle cx="285.85169402141173" cy="250" r="1"></circle><circle cx="289.6051114737877" cy="250" r="1"></circle><circle cx="290.27852210842866" cy="250" r="1"></circle><circle cx="290.7224705019511" cy="250" r="1"></circle><circle cx="294.54983002895386" cy="250" r="1"></circle><circle cx="295.36194329501484" cy="250" r="1.4142135623730951"></circle><circle cx="295.9624779703193" cy="250" r="1"></circle><circle cx="296.55587741129284" cy="250" r="1"></circle><circle cx="298.29491107632214" cy="250" r="1"></circle><circle cx="299.4215122002769" cy="250" r="1"></circle><circle cx="309.3254920268431" cy="250" r="1"></circle><circle cx="311.9937513611693" cy="250" r="1"></circle><circle cx="312.85240629998503" cy="250" r="1"></circle><circle cx="330.87850848364604" cy="250" r="1"></circle><circle cx="334.2252823796414" cy="250" r="1"></circle><circle cx="344.4740557665489" cy="250" r="1"></circle><circle cx="345.5176968987916" cy="250" r="1"></circle><circle cx="347.6125406209574" cy="250" r="1"></circle><circle cx="348.59323708959585" cy="250" r="1"></circle><circle cx="358.6722294673855" cy="250" r="1"></circle><circle cx="361.58989076646066" cy="250" r="1"></circle><circle cx="362.2802475853764" cy="250" r="1"></circle><circle cx="391.0293400238175" cy="250" r="1"></circle><circle cx="399.7431533499631" cy="250" r="1"></circle><circle cx="417.86480729496657" cy="250" r="1"></circle><circle cx="421.4421094812483" cy="250" r="1"></circle><circle cx="461.4314411088648" cy="250" r="1"></circle><circle cx="20" cy="245.4" r="20"></circle><circle cx="54.61844950135783" cy="245.4" r="16.55294535724685"></circle><circle cx="74.86894429276117" cy="245.4" r="11.090536506409418"></circle><circle cx="89.23689900271566" cy="245.4" r="7.54983443527075"></circle><circle cx="100.38155049864216" cy="245.4" r="7.937253933193772"></circle><circle cx="109.487393794119" cy="245.4" r="5.656854249492381"></circle><circle cx="117.18627460163952" cy="245.4" r="5.916079783099616"></circle><circle cx="123.85534850407349" cy="245.4" r="4.358898943540674"></circle><circle cx="129.73788858552237" cy="245.4" r="4.58257569495584"></circle><circle cx="135" cy="245.4" r="2.6457513110645907"></circle><circle cx="139.76015879319587" cy="245.4" r="3"></circle><circle cx="144.10584329547683" cy="245.4" r="2.6457513110645907"></circle><circle cx="148.10348551528622" cy="245.4" r="2.8284271247461903"></circle><circle cx="151.80472410299734" cy="245.4" r="2.23606797749979"></circle><circle cx="155.25049479140333" cy="245.4" r="2.6457513110645907"></circle><circle cx="158.47379800543132" cy="245.4" r="3"></circle><circle cx="161.5016259585015" cy="245.4" r="2.23606797749979"></circle><circle cx="164.35633808688016" cy="245.4" r="1.7320508075688772"></circle><circle cx="167.0566641095753" cy="245.4" r="1"></circle><circle cx="169.61844950135782" cy="245.4" r="1.7320508075688772"></circle><circle cx="172.0552188944007" cy="245.4" r="2.449489742783178"></circle><circle cx="174.37860829455371" cy="245.4" r="1.4142135623730951"></circle><circle cx="176.59870114202317" cy="245.4" r="2.449489742783178"></circle><circle cx="178.72429279683467" cy="245.4" r="1.4142135623730951"></circle><circle cx="180.7631009972843" cy="245.4" r="2"></circle><circle cx="182.72193501664407" cy="245.4" r="1.4142135623730951"></circle><circle cx="186.42317360435518" cy="245.4" r="2"></circle><circle cx="188.17576975837994" cy="245.4" r="1"></circle><circle cx="189.86894429276117" cy="245.4" r="1"></circle><circle cx="191.50659479094136" cy="245.4" r="2"></circle><circle cx="193.09224750678916" cy="245.4" r="1.4142135623730951"></circle><circle cx="194.62910308595704" cy="245.4" r="1.4142135623730951"></circle><circle cx="196.12007545985935" cy="245.4" r="1"></circle><circle cx="197.56782510028168" cy="245.4" r="1.4142135623730951"></circle><circle cx="198.974787588238" cy="245.4" r="1.7320508075688772"></circle><circle cx="201.67511361093312" cy="245.4" r="2"></circle><circle cx="204.23689900271566" cy="245.4" r="1"></circle><circle cx="207.84887239165243" cy="245.4" r="1"></circle><circle cx="208.99705779591153" cy="245.4" r="1"></circle><circle cx="211.217150643381" cy="245.4" r="1.7320508075688772"></circle><circle cx="215.38155049864213" cy="245.4" r="1.4142135623730951"></circle><circle cx="220.14170929183805" cy="245.4" r="1.4142135623730951"></circle><circle cx="221.04162310571306" cy="245.4" r="1"></circle><circle cx="224.487393794119" cy="245.4" r="1"></circle><circle cx="225.3129310262382" cy="245.4" r="1"></circle><circle cx="226.92416318716187" cy="245.4" r="1.4142135623730951"></circle><circle cx="229.998602310595" cy="245.4" r="1"></circle><circle cx="232.89471010269364" cy="245.4" r="1"></circle><circle cx="233.59323708959585" cy="245.4" r="1"></circle><circle cx="234.9616477690622" cy="245.4" r="1"></circle><circle cx="237.5908793094052" cy="245.4" r="1"></circle><circle cx="238.22711549840074" cy="245.4" r="1"></circle><circle cx="239.4757771710447" cy="245.4" r="1"></circle><circle cx="245.28976011692572" cy="245.4" r="1.4142135623730951"></circle><circle cx="245.83560014473883" cy="245.4" r="1.4142135623730951"></circle><circle cx="248.47874944061815" cy="245.4" r="1.4142135623730951"></circle><circle cx="252.91017450544854" cy="245.4" r="1"></circle><circle cx="256.10402100059326" cy="245.4" r="1"></circle><circle cx="257.8413741008086" cy="245.4" r="1"></circle><circle cx="258.68790056014103" cy="245.4" r="1.4142135623730951"></circle><circle cx="263.48619900041285" cy="245.4" r="1"></circle><circle cx="264.2429387112149" cy="245.4" r="1"></circle><circle cx="268.55732025702207" cy="245.4" r="1"></circle><circle cx="270.58234893871446" cy="245.4" r="1"></circle><circle cx="282.05666410957537" cy="245.4" r="1"></circle><circle cx="293.93195989610984" cy="245.4" r="1"></circle><circle cx="307.14690952841966" cy="245.4" r="1"></circle><circle cx="318.3551432931741" cy="245.4" r="1"></circle><circle cx="323.0806308837149" cy="245.4" r="1"></circle><circle cx="324.78536516017266" cy="245.4" r="1"></circle><circle cx="341.6857671955324" cy="245.4" r="1"></circle><circle cx="357.8721962097642" cy="245.4" r="1"></circle><circle cx="366.71814022618764" cy="245.4" r="1"></circle><circle cx="367.34154750448636" cy="245.4" r="1"></circle><circle cx="380.8321117822268" cy="245.4" r="1"></circle><circle cx="404.582507325215" cy="245.4" r="1"></circle><circle cx="442.703971500431" cy="245.4" r="1"></circle><circle cx="443.65392003642387" cy="245.4" r="1"></circle><circle cx="20" cy="240.8" r="20"></circle><circle cx="54.61844950135783" cy="240.8" r="13.30413469565007"></circle><circle cx="74.86894429276117" cy="240.8" r="8.48528137423857"></circle><circle cx="89.23689900271566" cy="240.8" r="7.810249675906654"></circle><circle cx="100.38155049864216" cy="240.8" r="5.744562646538029"></circle><circle cx="109.487393794119" cy="240.8" r="5.291502622129181"></circle><circle cx="117.18627460163952" cy="240.8" r="4.898979485566356"></circle><circle cx="123.85534850407349" cy="240.8" r="2.6457513110645907"></circle><circle cx="129.73788858552237" cy="240.8" r="2.6457513110645907"></circle><circle cx="135" cy="240.8" r="3.3166247903554"></circle><circle cx="139.76015879319587" cy="240.8" r="3.605551275463989"></circle><circle cx="144.10584329547683" cy="240.8" r="3"></circle><circle cx="148.10348551528622" cy="240.8" r="2.8284271247461903"></circle><circle cx="151.80472410299734" cy="240.8" r="2.23606797749979"></circle><circle cx="155.25049479140333" cy="240.8" r="2.6457513110645907"></circle><circle cx="158.47379800543132" cy="240.8" r="2"></circle><circle cx="161.5016259585015" cy="240.8" r="2.449489742783178"></circle><circle cx="164.35633808688016" cy="240.8" r="1"></circle><circle cx="167.0566641095753" cy="240.8" r="1.4142135623730951"></circle><circle cx="169.61844950135782" cy="240.8" r="1.7320508075688772"></circle><circle cx="172.0552188944007" cy="240.8" r="2"></circle><circle cx="174.37860829455371" cy="240.8" r="1.7320508075688772"></circle><circle cx="176.59870114202317" cy="240.8" r="2.23606797749979"></circle><circle cx="178.72429279683467" cy="240.8" r="1.7320508075688772"></circle><circle cx="182.72193501664407" cy="240.8" r="1.4142135623730951"></circle><circle cx="184.6068328782835" cy="240.8" r="1.4142135623730951"></circle><circle cx="186.42317360435518" cy="240.8" r="1.4142135623730951"></circle><circle cx="188.17576975837994" cy="240.8" r="1"></circle><circle cx="189.86894429276117" cy="240.8" r="1.4142135623730951"></circle><circle cx="191.50659479094136" cy="240.8" r="1.4142135623730951"></circle><circle cx="193.09224750678916" cy="240.8" r="1"></circle><circle cx="197.56782510028168" cy="240.8" r="1"></circle><circle cx="198.974787588238" cy="240.8" r="1.4142135623730951"></circle><circle cx="200.3431982677044" cy="240.8" r="1.4142135623730951"></circle><circle cx="201.67511361093312" cy="240.8" r="1"></circle><circle cx="202.9724298080474" cy="240.8" r="1"></circle><circle cx="204.23689900271566" cy="240.8" r="1.4142135623730951"></circle><circle cx="205.47014352276958" cy="240.8" r="1.4142135623730951"></circle><circle cx="213.3427422981925" cy="240.8" r="1"></circle><circle cx="215.38155049864213" cy="240.8" r="1"></circle><circle cx="219.22528237964136" cy="240.8" r="1"></circle><circle cx="221.92560840233648" cy="240.8" r="1.4142135623730951"></circle><circle cx="222.79421925973776" cy="240.8" r="1"></circle><circle cx="224.487393794119" cy="240.8" r="1"></circle><circle cx="226.12504429229918" cy="240.8" r="1.4142135623730951"></circle><circle cx="226.92416318716187" cy="240.8" r="1"></circle><circle cx="228.48503601392835" cy="240.8" r="1"></circle><circle cx="230.73852496121717" cy="240.8" r="1"></circle><circle cx="231.46764543478434" cy="240.8" r="1"></circle><circle cx="232.89471010269364" cy="240.8" r="1.4142135623730951"></circle><circle cx="234.2821289138524" cy="240.8" r="1"></circle><circle cx="236.29356311229097" cy="240.8" r="1"></circle><circle cx="238.22711549840074" cy="240.8" r="1"></circle><circle cx="239.4757771710447" cy="240.8" r="1"></circle><circle cx="243.0447140511411" cy="240.8" r="1"></circle><circle cx="243.6155072972694" cy="240.8" r="1"></circle><circle cx="245.28976011692572" cy="240.8" r="1"></circle><circle cx="246.9097031639653" cy="240.8" r="1"></circle><circle cx="249.4980473787182" cy="240.8" r="1.4142135623730951"></circle><circle cx="250" cy="240.8" r="1"></circle><circle cx="250.49695798500392" cy="240.8" r="1"></circle><circle cx="251.95883401935973" cy="240.8" r="1"></circle><circle cx="258.68790056014103" cy="240.8" r="1"></circle><circle cx="260.7434937936571" cy="240.8" r="1.4142135623730951"></circle><circle cx="266.0860949361422" cy="240.8" r="1"></circle><circle cx="276.20697103057245" cy="240.8" r="1"></circle><circle cx="277.94937559892384" cy="240.8" r="1"></circle><circle cx="280.1818753189994" cy="240.8" r="1"></circle><circle cx="282.05666410957537" cy="240.8" r="1"></circle><circle cx="282.5796413009082" cy="240.8" r="1"></circle><circle cx="287.5286240068064" cy="240.8" r="1"></circle><circle cx="292.8848803415623" cy="240.8" r="1"></circle><circle cx="297.1423091830989" cy="240.8" r="1"></circle><circle cx="303.003251917003" cy="240.8" r="1"></circle><circle cx="304.53487036876936" cy="240.8" r="1"></circle><circle cx="305.85796404538166" cy="240.8" r="1"></circle><circle cx="319.7338569877195" cy="240.8" r="1"></circle><circle cx="320.95503922890333" cy="240.8" r="1"></circle><circle cx="368.7974661385347" cy="240.8" r="1"></circle><circle cx="393.88240446516573" cy="240.8" r="1"></circle><circle cx="394.41180046395" cy="240.8" r="1"></circle><circle cx="404.4693328706709" cy="240.8" r="1"></circle><circle cx="413.0665088546947" cy="240.8" r="1"></circle><circle cx="421.2319553435484" cy="240.8" r="1"></circle><circle cx="20" cy="236.2" r="20"></circle><circle cx="54.61844950135783" cy="236.2" r="14.491376746189438"></circle><circle cx="74.86894429276117" cy="236.2" r="11.090536506409418"></circle><circle cx="89.23689900271566" cy="236.2" r="6.782329983125268"></circle><circle cx="100.38155049864216" cy="236.2" r="6.244997998398398"></circle><circle cx="109.487393794119" cy="236.2" r="4.795831523312719"></circle><circle cx="117.18627460163952" cy="236.2" r="4.242640687119285"></circle><circle cx="123.85534850407349" cy="236.2" r="3.3166247903554"></circle><circle cx="129.73788858552237" cy="236.2" r="3.4641016151377544"></circle><circle cx="135" cy="236.2" r="2.23606797749979"></circle><circle cx="139.76015879319587" cy="236.2" r="2.449489742783178"></circle><circle cx="144.10584329547683" cy="236.2" r="3"></circle><circle cx="148.10348551528622" cy="236.2" r="2.6457513110645907"></circle><circle cx="151.80472410299734" cy="236.2" r="2.449489742783178"></circle><circle cx="155.25049479140333" cy="236.2" r="1.7320508075688772"></circle><circle cx="158.47379800543132" cy="236.2" r="2.449489742783178"></circle><circle cx="161.5016259585015" cy="236.2" r="2.23606797749979"></circle><circle cx="164.35633808688016" cy="236.2" r="1.4142135623730951"></circle><circle cx="169.61844950135782" cy="236.2" r="1.4142135623730951"></circle><circle cx="172.0552188944007" cy="236.2" r="1.4142135623730951"></circle><circle cx="174.37860829455371" cy="236.2" r="1.4142135623730951"></circle><circle cx="176.59870114202317" cy="236.2" r="1.7320508075688772"></circle><circle cx="178.72429279683467" cy="236.2" r="1"></circle><circle cx="180.7631009972843" cy="236.2" r="1"></circle><circle cx="184.6068328782835" cy="236.2" r="1.7320508075688772"></circle><circle cx="186.42317360435518" cy="236.2" r="1.7320508075688772"></circle><circle cx="193.09224750678916" cy="236.2" r="1"></circle><circle cx="194.62910308595704" cy="236.2" r="1"></circle><circle cx="196.12007545985935" cy="236.2" r="1.7320508075688772"></circle><circle cx="198.974787588238" cy="236.2" r="1"></circle><circle cx="201.67511361093312" cy="236.2" r="1"></circle><circle cx="204.23689900271566" cy="236.2" r="1.4142135623730951"></circle><circle cx="205.47014352276958" cy="236.2" r="1"></circle><circle cx="207.84887239165243" cy="236.2" r="1"></circle><circle cx="208.99705779591153" cy="236.2" r="1"></circle><circle cx="213.3427422981925" cy="236.2" r="1"></circle><circle cx="215.38155049864213" cy="236.2" r="1.4142135623730951"></circle><circle cx="216.37057025126268" cy="236.2" r="1.7320508075688772"></circle><circle cx="217.34038451800188" cy="236.2" r="1"></circle><circle cx="223.6479813388466" cy="236.2" r="1"></circle><circle cx="228.48503601392835" cy="236.2" r="1"></circle><circle cx="232.89471010269364" cy="236.2" r="1"></circle><circle cx="236.9464333948354" cy="236.2" r="1"></circle><circle cx="237.5908793094052" cy="236.2" r="1.4142135623730951"></circle><circle cx="244.17985076416497" cy="236.2" r="1"></circle><circle cx="245.83560014473883" cy="236.2" r="1"></circle><circle cx="247.43821460821746" cy="236.2" r="1"></circle><circle cx="247.96119179955033" cy="236.2" r="1"></circle><circle cx="249.4980473787182" cy="236.2" r="1.4142135623730951"></circle><circle cx="254.3040472631717" cy="236.2" r="1"></circle><circle cx="258.2664308402044" cy="236.2" r="1"></circle><circle cx="258.68790056014103" cy="236.2" r="1"></circle><circle cx="259.52031758639174" cy="236.2" r="1"></circle><circle cx="263.8660020886727" cy="236.2" r="1"></circle><circle cx="264.2429387112149" cy="236.2" r="1.4142135623730951"></circle><circle cx="273.4737980054313" cy="236.2" r="1"></circle><circle cx="273.7849757436627" cy="236.2" r="1"></circle><circle cx="274.70704252548524" cy="236.2" r="1"></circle><circle cx="275.0106535845992" cy="236.2" r="1"></circle><circle cx="288.92249676452957" cy="236.2" r="1"></circle><circle cx="302.3071589009787" cy="236.2" r="1"></circle><circle cx="317.198090802266" cy="236.2" r="1"></circle><circle cx="320.2259187553361" cy="236.2" r="1"></circle><circle cx="321.5546126411239" cy="236.2" r="1"></circle><circle cx="321.6736683957585" cy="236.2" r="1"></circle><circle cx="323.7695227079714" cy="236.2" r="1"></circle><circle cx="335.32299393885785" cy="236.2" r="1"></circle><circle cx="338.64798133884653" cy="236.2" r="1"></circle><circle cx="381.5185120565725" cy="236.2" r="1"></circle><circle cx="425.6922565399117" cy="236.2" r="1"></circle><circle cx="20" cy="231.6" r="20"></circle><circle cx="54.61844950135783" cy="231.6" r="14"></circle><circle cx="74.86894429276117" cy="231.6" r="9.1104335791443"></circle><circle cx="89.23689900271566" cy="231.6" r="7.681145747868608"></circle><circle cx="100.38155049864216" cy="231.6" r="5.656854249492381"></circle><circle cx="109.487393794119" cy="231.6" r="4.898979485566356"></circle><circle cx="117.18627460163952" cy="231.6" r="4.242640687119285"></circle><circle cx="123.85534850407349" cy="231.6" r="3.872983346207417"></circle><circle cx="129.73788858552237" cy="231.6" r="3.1622776601683795"></circle><circle cx="135" cy="231.6" r="2.8284271247461903"></circle><circle cx="139.76015879319587" cy="231.6" r="3.1622776601683795"></circle><circle cx="144.10584329547683" cy="231.6" r="2.23606797749979"></circle><circle cx="148.10348551528622" cy="231.6" r="2.6457513110645907"></circle><circle cx="151.80472410299734" cy="231.6" r="1.4142135623730951"></circle><circle cx="155.25049479140333" cy="231.6" r="1.4142135623730951"></circle><circle cx="158.47379800543132" cy="231.6" r="1"></circle><circle cx="161.5016259585015" cy="231.6" r="1.7320508075688772"></circle><circle cx="164.35633808688016" cy="231.6" r="2.6457513110645907"></circle><circle cx="167.0566641095753" cy="231.6" r="1.7320508075688772"></circle><circle cx="169.61844950135782" cy="231.6" r="2"></circle><circle cx="172.0552188944007" cy="231.6" r="1.7320508075688772"></circle><circle cx="174.37860829455371" cy="231.6" r="1.4142135623730951"></circle><circle cx="178.72429279683467" cy="231.6" r="1"></circle><circle cx="180.7631009972843" cy="231.6" r="2.23606797749979"></circle><circle cx="182.72193501664407" cy="231.6" r="1.7320508075688772"></circle><circle cx="184.6068328782835" cy="231.6" r="1"></circle><circle cx="186.42317360435518" cy="231.6" r="1"></circle><circle cx="188.17576975837994" cy="231.6" r="1.4142135623730951"></circle><circle cx="193.09224750678916" cy="231.6" r="1.4142135623730951"></circle><circle cx="196.12007545985935" cy="231.6" r="1.4142135623730951"></circle><circle cx="200.3431982677044" cy="231.6" r="1"></circle><circle cx="201.67511361093312" cy="231.6" r="1.4142135623730951"></circle><circle cx="204.23689900271566" cy="231.6" r="1.4142135623730951"></circle><circle cx="206.67366839575854" cy="231.6" r="1"></circle><circle cx="207.84887239165243" cy="231.6" r="1"></circle><circle cx="210.1194390841645" cy="231.6" r="1"></circle><circle cx="215.38155049864213" cy="231.6" r="1"></circle><circle cx="216.37057025126268" cy="231.6" r="1"></circle><circle cx="219.22528237964136" cy="231.6" r="1"></circle><circle cx="221.04162310571306" cy="231.6" r="1"></circle><circle cx="222.79421925973776" cy="231.6" r="1"></circle><circle cx="224.487393794119" cy="231.6" r="1"></circle><circle cx="233.59323708959585" cy="231.6" r="1"></circle><circle cx="241.29211789711636" cy="231.6" r="1"></circle><circle cx="244.17985076416497" cy="231.6" r="1"></circle><circle cx="256.5440579036943" cy="231.6" r="1"></circle><circle cx="261.937427909935" cy="231.6" r="1"></circle><circle cx="269.91642086741155" cy="231.6" r="1"></circle><circle cx="272.8455649997586" cy="231.6" r="1"></circle><circle cx="273.1606692968519" cy="231.6" r="1"></circle><circle cx="280.1818753189994" cy="231.6" r="1"></circle><circle cx="282.5796413009082" cy="231.6" r="1"></circle><circle cx="291.8153776875966" cy="231.6" r="1"></circle><circle cx="294.95753731688853" cy="231.6" r="1"></circle><circle cx="302.13160910540927" cy="231.6" r="1"></circle><circle cx="310.6774386002039" cy="231.6" r="1"></circle><circle cx="323.0806308837149" cy="231.6" r="1"></circle><circle cx="355.7541177351727" cy="231.6" r="1"></circle><circle cx="373.2240875859352" cy="231.6" r="1"></circle><circle cx="20" cy="227" r="20"></circle><circle cx="54.61844950135783" cy="227" r="12.727922061357855"></circle><circle cx="74.86894429276117" cy="227" r="8.94427190999916"></circle><circle cx="89.23689900271566" cy="227" r="5.477225575051661"></circle><circle cx="100.38155049864216" cy="227" r="4.795831523312719"></circle><circle cx="109.487393794119" cy="227" r="4.123105625617661"></circle><circle cx="117.18627460163952" cy="227" r="4"></circle><circle cx="123.85534850407349" cy="227" r="3"></circle><circle cx="129.73788858552237" cy="227" r="2.6457513110645907"></circle><circle cx="135" cy="227" r="3.1622776601683795"></circle><circle cx="139.76015879319587" cy="227" r="2.8284271247461903"></circle><circle cx="144.10584329547683" cy="227" r="2"></circle><circle cx="148.10348551528622" cy="227" r="2.8284271247461903"></circle><circle cx="155.25049479140333" cy="227" r="1.4142135623730951"></circle><circle cx="158.47379800543132" cy="227" r="2"></circle><circle cx="167.0566641095753" cy="227" r="1.7320508075688772"></circle><circle cx="172.0552188944007" cy="227" r="1"></circle><circle cx="174.37860829455371" cy="227" r="1"></circle><circle cx="178.72429279683467" cy="227" r="1.7320508075688772"></circle><circle cx="182.72193501664407" cy="227" r="1.4142135623730951"></circle><circle cx="184.6068328782835" cy="227" r="1"></circle><circle cx="186.42317360435518" cy="227" r="1"></circle><circle cx="188.17576975837994" cy="227" r="1"></circle><circle cx="189.86894429276117" cy="227" r="1.4142135623730951"></circle><circle cx="193.09224750678916" cy="227" r="1"></circle><circle cx="197.56782510028168" cy="227" r="1"></circle><circle cx="201.67511361093312" cy="227" r="1"></circle><circle cx="211.217150643381" cy="227" r="1.4142135623730951"></circle><circle cx="214.37254920327905" cy="227" r="1"></circle><circle cx="217.34038451800188" cy="227" r="1"></circle><circle cx="220.14170929183805" cy="227" r="1"></circle><circle cx="221.04162310571306" cy="227" r="1"></circle><circle cx="221.92560840233648" cy="227" r="1"></circle><circle cx="229.998602310595" cy="227" r="1"></circle><circle cx="232.89471010269364" cy="227" r="1"></circle><circle cx="237.5908793094052" cy="227" r="1"></circle><circle cx="240.6939806232485" cy="227" r="1"></circle><circle cx="249.4980473787182" cy="227" r="1"></circle><circle cx="250" cy="227" r="1"></circle><circle cx="260.3390878155307" cy="227" r="1"></circle><circle cx="261.937427909935" cy="227" r="1"></circle><circle cx="266.44670202922094" cy="227" r="1"></circle><circle cx="290.9429735772091" cy="227" r="1"></circle><circle cx="295.16014962486156" cy="227" r="1"></circle><circle cx="325.89036300803275" cy="227" r="1"></circle><circle cx="331.17432691265066" cy="227" r="1"></circle><circle cx="338.56325890051664" cy="227" r="1"></circle><circle cx="352.78260263666346" cy="227" r="1"></circle><circle cx="376.661385313863" cy="227" r="1"></circle><circle cx="20" cy="222.4" r="20"></circle><circle cx="54.61844950135783" cy="222.4" r="11.74734012447073"></circle><circle cx="74.86894429276117" cy="222.4" r="7.937253933193772"></circle><circle cx="89.23689900271566" cy="222.4" r="5.656854249492381"></circle><circle cx="100.38155049864216" cy="222.4" r="4.795831523312719"></circle><circle cx="109.487393794119" cy="222.4" r="4.358898943540674"></circle><circle cx="117.18627460163952" cy="222.4" r="4.358898943540674"></circle><circle cx="123.85534850407349" cy="222.4" r="3.605551275463989"></circle><circle cx="129.73788858552237" cy="222.4" r="3"></circle><circle cx="135" cy="222.4" r="1.7320508075688772"></circle><circle cx="139.76015879319587" cy="222.4" r="3"></circle><circle cx="144.10584329547683" cy="222.4" r="2.23606797749979"></circle><circle cx="148.10348551528622" cy="222.4" r="1.4142135623730951"></circle><circle cx="151.80472410299734" cy="222.4" r="1.4142135623730951"></circle><circle cx="155.25049479140333" cy="222.4" r="1"></circle><circle cx="158.47379800543132" cy="222.4" r="1.7320508075688772"></circle><circle cx="161.5016259585015" cy="222.4" r="2.449489742783178"></circle><circle cx="164.35633808688016" cy="222.4" r="1.4142135623730951"></circle><circle cx="167.0566641095753" cy="222.4" r="1.4142135623730951"></circle><circle cx="169.61844950135782" cy="222.4" r="1"></circle><circle cx="172.0552188944007" cy="222.4" r="1"></circle><circle cx="178.72429279683467" cy="222.4" r="1"></circle><circle cx="180.7631009972843" cy="222.4" r="1"></circle><circle cx="191.50659479094136" cy="222.4" r="1"></circle><circle cx="197.56782510028168" cy="222.4" r="1"></circle><circle cx="200.3431982677044" cy="222.4" r="1"></circle><circle cx="202.9724298080474" cy="222.4" r="1.4142135623730951"></circle><circle cx="204.23689900271566" cy="222.4" r="1"></circle><circle cx="208.99705779591153" cy="222.4" r="1"></circle><circle cx="215.38155049864213" cy="222.4" r="1"></circle><circle cx="221.92560840233648" cy="222.4" r="1"></circle><circle cx="224.487393794119" cy="222.4" r="1"></circle><circle cx="226.12504429229918" cy="222.4" r="1"></circle><circle cx="227.71069700814698" cy="222.4" r="1.4142135623730951"></circle><circle cx="229.998602310595" cy="222.4" r="1"></circle><circle cx="233.59323708959585" cy="222.4" r="1"></circle><circle cx="236.9464333948354" cy="222.4" r="1"></circle><circle cx="245.83560014473883" cy="222.4" r="1"></circle><circle cx="258.2664308402044" cy="222.4" r="1.4142135623730951"></circle><circle cx="259.10584329547686" cy="222.4" r="1"></circle><circle cx="261.5426126885197" cy="222.4" r="1.4142135623730951"></circle><circle cx="293.5157586090358" cy="222.4" r="1"></circle><circle cx="296.55587741129284" cy="222.4" r="1"></circle><circle cx="409.63163818060934" cy="222.4" r="1"></circle><circle cx="20" cy="217.8" r="17.291616465790582"></circle><circle cx="54.61844950135783" cy="217.8" r="10.816653826391969"></circle><circle cx="74.86894429276117" cy="217.8" r="6.324555320336759"></circle><circle cx="89.23689900271566" cy="217.8" r="5.830951894845301"></circle><circle cx="100.38155049864216" cy="217.8" r="4.358898943540674"></circle><circle cx="109.487393794119" cy="217.8" r="4"></circle><circle cx="117.18627460163952" cy="217.8" r="3.605551275463989"></circle><circle cx="123.85534850407349" cy="217.8" r="3.4641016151377544"></circle><circle cx="129.73788858552237" cy="217.8" r="2.8284271247461903"></circle><circle cx="135" cy="217.8" r="2"></circle><circle cx="139.76015879319587" cy="217.8" r="3"></circle><circle cx="144.10584329547683" cy="217.8" r="2.6457513110645907"></circle><circle cx="148.10348551528622" cy="217.8" r="2.23606797749979"></circle><circle cx="151.80472410299734" cy="217.8" r="1.4142135623730951"></circle><circle cx="155.25049479140333" cy="217.8" r="1.4142135623730951"></circle><circle cx="158.47379800543132" cy="217.8" r="1.4142135623730951"></circle><circle cx="161.5016259585015" cy="217.8" r="1.4142135623730951"></circle><circle cx="164.35633808688016" cy="217.8" r="1.7320508075688772"></circle><circle cx="167.0566641095753" cy="217.8" r="1.4142135623730951"></circle><circle cx="169.61844950135782" cy="217.8" r="1.4142135623730951"></circle><circle cx="172.0552188944007" cy="217.8" r="1"></circle><circle cx="176.59870114202317" cy="217.8" r="1"></circle><circle cx="178.72429279683467" cy="217.8" r="1.4142135623730951"></circle><circle cx="180.7631009972843" cy="217.8" r="1.4142135623730951"></circle><circle cx="182.72193501664407" cy="217.8" r="1.4142135623730951"></circle><circle cx="184.6068328782835" cy="217.8" r="1.4142135623730951"></circle><circle cx="186.42317360435518" cy="217.8" r="1"></circle><circle cx="189.86894429276117" cy="217.8" r="1"></circle><circle cx="191.50659479094136" cy="217.8" r="1"></circle><circle cx="197.56782510028168" cy="217.8" r="1"></circle><circle cx="201.67511361093312" cy="217.8" r="1"></circle><circle cx="207.84887239165243" cy="217.8" r="1"></circle><circle cx="208.99705779591153" cy="217.8" r="1"></circle><circle cx="212.2912536626075" cy="217.8" r="1.4142135623730951"></circle><circle cx="213.3427422981925" cy="217.8" r="1"></circle><circle cx="216.37057025126268" cy="217.8" r="1"></circle><circle cx="223.6479813388466" cy="217.8" r="1.4142135623730951"></circle><circle cx="228.48503601392835" cy="217.8" r="1"></circle><circle cx="233.59323708959585" cy="217.8" r="1"></circle><circle cx="238.85534850407348" cy="217.8" r="1"></circle><circle cx="239.4757771710447" cy="217.8" r="1"></circle><circle cx="246.9097031639653" cy="217.8" r="1"></circle><circle cx="249.4980473787182" cy="217.8" r="1"></circle><circle cx="250" cy="217.8" r="1"></circle><circle cx="253.84373188099917" cy="217.8" r="1"></circle><circle cx="264.2429387112149" cy="217.8" r="1"></circle><circle cx="267.51315960405145" cy="217.8" r="1"></circle><circle cx="290.9429735772091" cy="217.8" r="1"></circle><circle cx="376.77987615335365" cy="217.8" r="1"></circle><circle cx="20" cy="213.2" r="15.132745950421556"></circle><circle cx="54.61844950135783" cy="213.2" r="8.306623862918075"></circle><circle cx="74.86894429276117" cy="213.2" r="6.244997998398398"></circle><circle cx="89.23689900271566" cy="213.2" r="5.291502622129181"></circle><circle cx="100.38155049864216" cy="213.2" r="4"></circle><circle cx="109.487393794119" cy="213.2" r="4"></circle><circle cx="117.18627460163952" cy="213.2" r="1"></circle><circle cx="123.85534850407349" cy="213.2" r="2.6457513110645907"></circle><circle cx="129.73788858552237" cy="213.2" r="2.449489742783178"></circle><circle cx="135" cy="213.2" r="1.7320508075688772"></circle><circle cx="139.76015879319587" cy="213.2" r="1"></circle><circle cx="144.10584329547683" cy="213.2" r="2.23606797749979"></circle><circle cx="148.10348551528622" cy="213.2" r="1"></circle><circle cx="151.80472410299734" cy="213.2" r="1.4142135623730951"></circle><circle cx="155.25049479140333" cy="213.2" r="1.4142135623730951"></circle><circle cx="158.47379800543132" cy="213.2" r="1.7320508075688772"></circle><circle cx="161.5016259585015" cy="213.2" r="1"></circle><circle cx="167.0566641095753" cy="213.2" r="2"></circle><circle cx="172.0552188944007" cy="213.2" r="1.4142135623730951"></circle><circle cx="174.37860829455371" cy="213.2" r="1"></circle><circle cx="178.72429279683467" cy="213.2" r="1"></circle><circle cx="184.6068328782835" cy="213.2" r="1"></circle><circle cx="186.42317360435518" cy="213.2" r="1"></circle><circle cx="194.62910308595704" cy="213.2" r="1"></circle><circle cx="196.12007545985935" cy="213.2" r="1"></circle><circle cx="202.9724298080474" cy="213.2" r="1"></circle><circle cx="219.22528237964136" cy="213.2" r="1"></circle><circle cx="223.6479813388466" cy="213.2" r="1"></circle><circle cx="226.12504429229918" cy="213.2" r="1"></circle><circle cx="230.73852496121717" cy="213.2" r="1"></circle><circle cx="232.89471010269364" cy="213.2" r="1"></circle><circle cx="235.63204529004545" cy="213.2" r="1"></circle><circle cx="240.08859302412742" cy="213.2" r="1"></circle><circle cx="274.70704252548524" cy="213.2" r="1"></circle><circle cx="381.55437838875577" cy="213.2" r="1"></circle><circle cx="20" cy="208.60000000000002" r="13.228756555322953"></circle><circle cx="54.61844950135783" cy="208.60000000000002" r="7.211102550927978"></circle><circle cx="74.86894429276117" cy="208.60000000000002" r="5.5677643628300215"></circle><circle cx="89.23689900271566" cy="208.60000000000002" r="4.47213595499958"></circle><circle cx="100.38155049864216" cy="208.60000000000002" r="3.3166247903554"></circle><circle cx="109.487393794119" cy="208.60000000000002" r="3.4641016151377544"></circle><circle cx="117.18627460163952" cy="208.60000000000002" r="2.6457513110645907"></circle><circle cx="123.85534850407349" cy="208.60000000000002" r="2.8284271247461903"></circle><circle cx="129.73788858552237" cy="208.60000000000002" r="2"></circle><circle cx="135" cy="208.60000000000002" r="1.7320508075688772"></circle><circle cx="139.76015879319587" cy="208.60000000000002" r="1"></circle><circle cx="144.10584329547683" cy="208.60000000000002" r="1"></circle><circle cx="148.10348551528622" cy="208.60000000000002" r="1.4142135623730951"></circle><circle cx="151.80472410299734" cy="208.60000000000002" r="1.7320508075688772"></circle><circle cx="155.25049479140333" cy="208.60000000000002" r="1"></circle><circle cx="158.47379800543132" cy="208.60000000000002" r="1"></circle><circle cx="161.5016259585015" cy="208.60000000000002" r="1"></circle><circle cx="164.35633808688016" cy="208.60000000000002" r="1"></circle><circle cx="167.0566641095753" cy="208.60000000000002" r="1"></circle><circle cx="172.0552188944007" cy="208.60000000000002" r="1.4142135623730951"></circle><circle cx="174.37860829455371" cy="208.60000000000002" r="1"></circle><circle cx="176.59870114202317" cy="208.60000000000002" r="1"></circle><circle cx="184.6068328782835" cy="208.60000000000002" r="1"></circle><circle cx="189.86894429276117" cy="208.60000000000002" r="1"></circle><circle cx="194.62910308595704" cy="208.60000000000002" r="1.4142135623730951"></circle><circle cx="197.56782510028168" cy="208.60000000000002" r="1"></circle><circle cx="207.84887239165243" cy="208.60000000000002" r="1"></circle><circle cx="221.04162310571306" cy="208.60000000000002" r="1"></circle><circle cx="221.92560840233648" cy="208.60000000000002" r="1"></circle><circle cx="222.79421925973776" cy="208.60000000000002" r="1"></circle><circle cx="260.3390878155307" cy="208.60000000000002" r="1"></circle><circle cx="262.7178166844136" cy="208.60000000000002" r="1"></circle><circle cx="265.356974462575" cy="208.60000000000002" r="1"></circle><circle cx="287.7636543954548" cy="208.60000000000002" r="1"></circle><circle cx="291.3810804690871" cy="208.60000000000002" r="1"></circle><circle cx="302.83013609231153" cy="208.60000000000002" r="1"></circle><circle cx="20" cy="204" r="12.489995996796797"></circle><circle cx="54.61844950135783" cy="204" r="6.855654600401044"></circle><circle cx="74.86894429276117" cy="204" r="5.477225575051661"></circle><circle cx="89.23689900271566" cy="204" r="4.47213595499958"></circle><circle cx="100.38155049864216" cy="204" r="2.23606797749979"></circle><circle cx="109.487393794119" cy="204" r="2.449489742783178"></circle><circle cx="117.18627460163952" cy="204" r="2"></circle><circle cx="123.85534850407349" cy="204" r="2"></circle><circle cx="129.73788858552237" cy="204" r="1"></circle><circle cx="135" cy="204" r="1.4142135623730951"></circle><circle cx="139.76015879319587" cy="204" r="1.4142135623730951"></circle><circle cx="144.10584329547683" cy="204" r="1"></circle><circle cx="148.10348551528622" cy="204" r="1"></circle><circle cx="151.80472410299734" cy="204" r="1.7320508075688772"></circle><circle cx="161.5016259585015" cy="204" r="1"></circle><circle cx="169.61844950135782" cy="204" r="1.7320508075688772"></circle><circle cx="172.0552188944007" cy="204" r="1"></circle><circle cx="174.37860829455371" cy="204" r="1"></circle><circle cx="180.7631009972843" cy="204" r="1.4142135623730951"></circle><circle cx="198.974787588238" cy="204" r="1"></circle><circle cx="201.67511361093312" cy="204" r="1"></circle><circle cx="205.47014352276958" cy="204" r="1.4142135623730951"></circle><circle cx="206.67366839575854" cy="204" r="1"></circle><circle cx="208.99705779591153" cy="204" r="1"></circle><circle cx="214.37254920327905" cy="204" r="1"></circle><circle cx="237.5908793094052" cy="204" r="1"></circle><circle cx="379.9883833769257" cy="204" r="1"></circle><circle cx="20" cy="199.4" r="14.212670403551895"></circle><circle cx="54.61844950135783" cy="199.4" r="6.782329983125268"></circle><circle cx="74.86894429276117" cy="199.4" r="3.872983346207417"></circle><circle cx="89.23689900271566" cy="199.4" r="3.1622776601683795"></circle><circle cx="100.38155049864216" cy="199.4" r="2.449489742783178"></circle><circle cx="109.487393794119" cy="199.4" r="2.23606797749979"></circle><circle cx="117.18627460163952" cy="199.4" r="2.23606797749979"></circle><circle cx="123.85534850407349" cy="199.4" r="1.4142135623730951"></circle><circle cx="129.73788858552237" cy="199.4" r="1.4142135623730951"></circle><circle cx="135" cy="199.4" r="1"></circle><circle cx="139.76015879319587" cy="199.4" r="1.4142135623730951"></circle><circle cx="148.10348551528622" cy="199.4" r="1"></circle><circle cx="151.80472410299734" cy="199.4" r="1"></circle><circle cx="164.35633808688016" cy="199.4" r="1"></circle><circle cx="178.72429279683467" cy="199.4" r="1"></circle><circle cx="182.72193501664407" cy="199.4" r="1"></circle><circle cx="197.56782510028168" cy="199.4" r="1"></circle><circle cx="222.79421925973776" cy="199.4" r="1"></circle><circle cx="232.18627460163955" cy="199.4" r="1"></circle><circle cx="240.6939806232485" cy="199.4" r="1"></circle><circle cx="260.7434937936571" cy="199.4" r="1"></circle><circle cx="304.86894429276117" cy="199.4" r="1"></circle><circle cx="20" cy="194.8" r="8.888194417315589"></circle><circle cx="54.61844950135783" cy="194.8" r="5.744562646538029"></circle><circle cx="74.86894429276117" cy="194.8" r="3.1622776601683795"></circle><circle cx="89.23689900271566" cy="194.8" r="3.1622776601683795"></circle><circle cx="100.38155049864216" cy="194.8" r="2.449489742783178"></circle><circle cx="109.487393794119" cy="194.8" r="3.3166247903554"></circle><circle cx="117.18627460163952" cy="194.8" r="1.7320508075688772"></circle><circle cx="123.85534850407349" cy="194.8" r="2.23606797749979"></circle><circle cx="135" cy="194.8" r="1.7320508075688772"></circle><circle cx="139.76015879319587" cy="194.8" r="2.23606797749979"></circle><circle cx="144.10584329547683" cy="194.8" r="1"></circle><circle cx="161.5016259585015" cy="194.8" r="1.4142135623730951"></circle><circle cx="186.42317360435518" cy="194.8" r="1"></circle><circle cx="194.62910308595704" cy="194.8" r="1"></circle><circle cx="221.92560840233648" cy="194.8" r="1"></circle><circle cx="284.11649688007606" cy="194.8" r="1"></circle><circle cx="20" cy="190.2" r="6"></circle><circle cx="54.61844950135783" cy="190.2" r="3.605551275463989"></circle><circle cx="74.86894429276117" cy="190.2" r="2.23606797749979"></circle><circle cx="89.23689900271566" cy="190.2" r="2.8284271247461903"></circle><circle cx="100.38155049864216" cy="190.2" r="2.449489742783178"></circle><circle cx="109.487393794119" cy="190.2" r="1.7320508075688772"></circle><circle cx="117.18627460163952" cy="190.2" r="1"></circle><circle cx="123.85534850407349" cy="190.2" r="1"></circle><circle cx="129.73788858552237" cy="190.2" r="1"></circle><circle cx="139.76015879319587" cy="190.2" r="1.4142135623730951"></circle><circle cx="144.10584329547683" cy="190.2" r="1"></circle><circle cx="151.80472410299734" cy="190.2" r="1.4142135623730951"></circle><circle cx="158.47379800543132" cy="190.2" r="1"></circle><circle cx="161.5016259585015" cy="190.2" r="1.4142135623730951"></circle><circle cx="184.6068328782835" cy="190.2" r="1.4142135623730951"></circle><circle cx="296.358859935219" cy="190.2" r="1"></circle><circle cx="20" cy="185.6" r="4.795831523312719"></circle><circle cx="54.61844950135783" cy="185.6" r="3.1622776601683795"></circle><circle cx="74.86894429276117" cy="185.6" r="2.449489742783178"></circle><circle cx="89.23689900271566" cy="185.6" r="1.7320508075688772"></circle><circle cx="109.487393794119" cy="185.6" r="1"></circle><circle cx="117.18627460163952" cy="185.6" r="1"></circle><circle cx="123.85534850407349" cy="185.6" r="1"></circle><circle cx="148.10348551528622" cy="185.6" r="1"></circle><circle cx="182.72193501664407" cy="185.6" r="1"></circle><circle cx="324.6735087518963" cy="185.6" r="1"></circle><circle cx="20" cy="181" r="15.066519173319364"></circle><circle cx="54.61844950135783" cy="181" r="3.4641016151377544"></circle><circle cx="74.86894429276117" cy="181" r="1"></circle><circle cx="109.487393794119" cy="181" r="1"></circle><circle cx="123.85534850407349" cy="181" r="1"></circle><circle cx="178.72429279683467" cy="181" r="1"></circle><circle cx="20" cy="176.39999999999998" r="3.1622776601683795"></circle><circle cx="54.61844950135783" cy="176.39999999999998" r="2.23606797749979"></circle><circle cx="89.23689900271566" cy="176.39999999999998" r="1"></circle><circle cx="100.38155049864216" cy="176.39999999999998" r="1"></circle><circle cx="117.18627460163952" cy="176.39999999999998" r="1"></circle><circle cx="20" cy="171.79999999999998" r="2"></circle><circle cx="54.61844950135783" cy="171.79999999999998" r="1.4142135623730951"></circle><circle cx="100.38155049864216" cy="171.79999999999998" r="1"></circle><circle cx="135" cy="171.79999999999998" r="1.4142135623730951"></circle><circle cx="20" cy="167.2" r="1.4142135623730951"></circle><circle cx="54.61844950135783" cy="167.2" r="1.4142135623730951"></circle><circle cx="74.86894429276117" cy="167.2" r="2"></circle><circle cx="100.38155049864216" cy="167.2" r="1"></circle><circle cx="20" cy="162.6" r="1.7320508075688772"></circle><circle cx="54.61844950135783" cy="162.6" r="1.4142135623730951"></circle><circle cx="89.23689900271566" cy="162.6" r="1"></circle><circle cx="20" cy="158" r="1.4142135623730951"></circle></g><g transform="translate(0,250)" fill="none" font-size="10" font-family="sans-serif" text-anchor="middle"><rect fill="white" x="0" y="0" height="30" width="500"></rect><path class="domain" stroke="currentColor" d="M20.5,6V0.5H480.5V6"></path><g class="tick" opacity="1" transform="translate(20.5,0)"><line stroke="currentColor" y2="6"></line><text fill="currentColor" y="9" dy="0.71em">1</text></g><g class="tick" opacity="1" transform="translate(55.11844950135783,0)"><line stroke="currentColor" y2="6"></line><text fill="currentColor" y="9" dy="0.71em"></text></g><g class="tick" opacity="1" transform="translate(75.36894429276117,0)"><line stroke="currentColor" y2="6"></line><text fill="currentColor" y="9" dy="0.71em"></text></g><g class="tick" opacity="1" transform="translate(89.73689900271566,0)"><line stroke="currentColor" y2="6"></line><text fill="currentColor" y="9" dy="0.71em"></text></g><g class="tick" opacity="1" transform="translate(100.88155049864216,0)"><line stroke="currentColor" y2="6"></line><text fill="currentColor" y="9" dy="0.71em"></text></g><g class="tick" opacity="1" transform="translate(109.987393794119,0)"><line stroke="currentColor" y2="6"></line><text fill="currentColor" y="9" dy="0.71em"></text></g><g class="tick" opacity="1" transform="translate(117.68627460163952,0)"><line stroke="currentColor" y2="6"></line><text fill="currentColor" y="9" dy="0.71em"></text></g><g class="tick" opacity="1" transform="translate(124.35534850407349,0)"><line stroke="currentColor" y2="6"></line><text fill="currentColor" y="9" dy="0.71em"></text></g><g class="tick" opacity="1" transform="translate(130.23788858552237,0)"><line stroke="currentColor" y2="6"></line><text fill="currentColor" y="9" dy="0.71em"></text></g><g class="tick" opacity="1" transform="translate(135.5,0)"><line stroke="currentColor" y2="6"></line><text fill="currentColor" y="9" dy="0.71em">10</text></g><g class="tick" opacity="1" transform="translate(170.11844950135782,0)"><line stroke="currentColor" y2="6"></line><text fill="currentColor" y="9" dy="0.71em"></text></g><g class="tick" opacity="1" transform="translate(190.36894429276117,0)"><line stroke="currentColor" y2="6"></line><text fill="currentColor" y="9" dy="0.71em"></text></g><g class="tick" opacity="1" transform="translate(204.73689900271566,0)"><line stroke="currentColor" y2="6"></line><text fill="currentColor" y="9" dy="0.71em"></text></g><g class="tick" opacity="1" transform="translate(215.88155049864213,0)"><line stroke="currentColor" y2="6"></line><text fill="currentColor" y="9" dy="0.71em"></text></g><g class="tick" opacity="1" transform="translate(224.987393794119,0)"><line stroke="currentColor" y2="6"></line><text fill="currentColor" y="9" dy="0.71em"></text></g><g class="tick" opacity="1" transform="translate(232.68627460163955,0)"><line stroke="currentColor" y2="6"></line><text fill="currentColor" y="9" dy="0.71em"></text></g><g class="tick" opacity="1" transform="translate(239.35534850407348,0)"><line stroke="currentColor" y2="6"></line><text fill="currentColor" y="9" dy="0.71em"></text></g><g class="tick" opacity="1" transform="translate(245.23788858552234,0)"><line stroke="currentColor" y2="6"></line><text fill="currentColor" y="9" dy="0.71em"></text></g><g class="tick" opacity="1" transform="translate(250.5,0)"><line stroke="currentColor" y2="6"></line><text fill="currentColor" y="9" dy="0.71em">100</text></g><g class="tick" opacity="1" transform="translate(285.1184495013578,0)"><line stroke="currentColor" y2="6"></line><text fill="currentColor" y="9" dy="0.71em"></text></g><g class="tick" opacity="1" transform="translate(305.36894429276117,0)"><line stroke="currentColor" y2="6"></line><text fill="currentColor" y="9" dy="0.71em"></text></g><g class="tick" opacity="1" transform="translate(319.73689900271563,0)"><line stroke="currentColor" y2="6"></line><text fill="currentColor" y="9" dy="0.71em"></text></g><g class="tick" opacity="1" transform="translate(330.8815504986421,0)"><line stroke="currentColor" y2="6"></line><text fill="currentColor" y="9" dy="0.71em"></text></g><g class="tick" opacity="1" transform="translate(339.987393794119,0)"><line stroke="currentColor" y2="6"></line><text fill="currentColor" y="9" dy="0.71em"></text></g><g class="tick" opacity="1" transform="translate(347.68627460163947,0)"><line stroke="currentColor" y2="6"></line><text fill="currentColor" y="9" dy="0.71em"></text></g><g class="tick" opacity="1" transform="translate(354.3553485040735,0)"><line stroke="currentColor" y2="6"></line><text fill="currentColor" y="9" dy="0.71em"></text></g><g class="tick" opacity="1" transform="translate(360.23788858552234,0)"><line stroke="currentColor" y2="6"></line><text fill="currentColor" y="9" dy="0.71em"></text></g><g class="tick" opacity="1" transform="translate(365.49999999999994,0)"><line stroke="currentColor" y2="6"></line><text fill="currentColor" y="9" dy="0.71em">1000</text></g><g class="tick" opacity="1" transform="translate(400.1184495013578,0)"><line stroke="currentColor" y2="6"></line><text fill="currentColor" y="9" dy="0.71em"></text></g><g class="tick" opacity="1" transform="translate(420.3689442927611,0)"><line stroke="currentColor" y2="6"></line><text fill="currentColor" y="9" dy="0.71em"></text></g><g class="tick" opacity="1" transform="translate(434.73689900271563,0)"><line stroke="currentColor" y2="6"></line><text fill="currentColor" y="9" dy="0.71em"></text></g><g class="tick" opacity="1" transform="translate(445.8815504986421,0)"><line stroke="currentColor" y2="6"></line><text fill="currentColor" y="9" dy="0.71em"></text></g><g class="tick" opacity="1" transform="translate(454.98739379411893,0)"><line stroke="currentColor" y2="6"></line><text fill="currentColor" y="9" dy="0.71em"></text></g><g class="tick" opacity="1" transform="translate(462.68627460163947,0)"><line stroke="currentColor" y2="6"></line><text fill="currentColor" y="9" dy="0.71em"></text></g><g class="tick" opacity="1" transform="translate(469.3553485040735,0)"><line stroke="currentColor" y2="6"></line><text fill="currentColor" y="9" dy="0.71em"></text></g><g class="tick" opacity="1" transform="translate(475.23788858552234,0)"><line stroke="currentColor" y2="6"></line><text fill="currentColor" y="9" dy="0.71em"></text></g><g class="tick" opacity="1" transform="translate(480.5,0)"><line stroke="currentColor" y2="6"></line><text fill="currentColor" y="9" dy="0.71em">10000</text></g><text x="299" y="30" fill="currentColor" text-anchor="start">Number of dependent packages (popularity)</text></g><g transform="translate(20,0)" fill="none" font-size="10" font-family="sans-serif" text-anchor="end"><rect fill="white" x="-20" y="0" height="300" width="20"></rect><g class="tick" opacity="1" transform="translate(0,250.5)"><line stroke="currentColor" x2="-6"></line><text fill="currentColor" x="-9" dy="0.32em">0</text></g><g class="tick" opacity="1" transform="translate(0,227.5)"><line stroke="currentColor" x2="-6"></line><text fill="currentColor" x="-9" dy="0.32em">5</text></g><g class="tick" opacity="1" transform="translate(0,204.5)"><line stroke="currentColor" x2="-6"></line><text fill="currentColor" x="-9" dy="0.32em">10</text></g><g class="tick" opacity="1" transform="translate(0,181.5)"><line stroke="currentColor" x2="-6"></line><text fill="currentColor" x="-9" dy="0.32em">15</text></g><g class="tick" opacity="1" transform="translate(0,158.5)"><line stroke="currentColor" x2="-6"></line><text fill="currentColor" x="-9" dy="0.32em">20</text></g><g class="tick" opacity="1" transform="translate(0,135.5)"><line stroke="currentColor" x2="-6"></line><text fill="currentColor" x="-9" dy="0.32em">25</text></g><g class="tick" opacity="1" transform="translate(0,112.5)"><line stroke="currentColor" x2="-6"></line><text fill="currentColor" x="-9" dy="0.32em">30</text></g><g class="tick" opacity="1" transform="translate(0,89.50000000000001)"><line stroke="currentColor" x2="-6"></line><text fill="currentColor" x="-9" dy="0.32em">35</text></g><g class="tick" opacity="1" transform="translate(0,66.49999999999999)"><line stroke="currentColor" x2="-6"></line><text fill="currentColor" x="-9" dy="0.32em">40</text></g><g class="tick" opacity="1" transform="translate(0,43.49999999999999)"><line stroke="currentColor" x2="-6"></line><text fill="currentColor" x="-9" dy="0.32em">45</text></g><g class="tick" opacity="1" transform="translate(0,20.5)"><line stroke="currentColor" x2="-6"></line><text fill="currentColor" x="-9" dy="0.32em">50</text></g><text x="-20" y="10" fill="currentColor" text-anchor="start">Tree depth</text></g></svg>
