<svg viewBox="0,0,500,300" class="chart" xmlns="http://www.w3.org/2000/svg"><g fill="#BA2E17"><rect x="45" y="33.51249999999999" height="216.4875" width="10.875"></rect><rect x="55.875" y="180.1375" height="69.86250000000001" width="10.875"></rect><rect x="66.75" y="214.6375" height="35.36250000000001" width="10.875"></rect><rect x="77.625" y="212.48125" height="37.51875000000001" width="10.875"></rect><rect x="88.5" y="232.31875" height="17.681250000000006" width="10.875"></rect><rect x="99.375" y="236.05625" height="13.943749999999994" width="10.875"></rect><rect x="110.25" y="235.625" height="14.375" width="10.875"></rect><rect x="121.125" y="213.2" height="36.80000000000001" width="10.875"></rect><rect x="132" y="215.93124999999998" height="34.06875000000002" width="10.875"></rect><rect x="142.875" y="221.825" height="28.17500000000001" width="10.875"></rect><rect x="153.75" y="232.4625" height="17.537499999999994" width="10.875"></rect><rect x="164.625" y="233.75625000000002" height="16.243749999999977" width="10.875"></rect><rect x="175.5" y="234.7625" height="15.237500000000011" width="10.875"></rect><rect x="186.375" y="237.78125" height="12.21875" width="10.875"></rect><rect x="197.25" y="241.80625" height="8.193749999999994" width="10.875"></rect><rect x="208.125" y="243.53125" height="6.46875" width="10.875"></rect><rect x="219" y="238.06875" height="11.931250000000006" width="10.875"></rect><rect x="229.875" y="226.56875000000002" height="23.431249999999977" width="10.875"></rect><rect x="240.75" y="233.6125" height="16.38749999999999" width="10.875"></rect><rect x="251.625" y="238.2125" height="11.787499999999994" width="10.875"></rect><rect x="262.5" y="241.23125" height="8.768750000000011" width="10.875"></rect><rect x="273.375" y="244.39375" height="5.606249999999989" width="10.875"></rect><rect x="284.25" y="244.825" height="5.175000000000011" width="10.875"></rect><rect x="295.125" y="244.39375" height="5.606249999999989" width="10.875"></rect><rect x="306" y="243.81875" height="6.181250000000006" width="10.875"></rect><rect x="316.875" y="246.2625" height="3.7375000000000114" width="10.875"></rect><rect x="327.75" y="245.1125" height="4.887499999999989" width="10.875"></rect><rect x="338.625" y="247.55625" height="2.4437499999999943" width="10.875"></rect><rect x="349.5" y="245.975" height="4.025000000000006" width="10.875"></rect><rect x="360.375" y="244.96875" height="5.03125" width="10.875"></rect><rect x="371.25" y="245.54375" height="4.456250000000011" width="10.875"></rect><rect x="382.125" y="245.54375" height="4.456250000000011" width="10.875"></rect><rect x="393" y="245.25625" height="4.743750000000006" width="10.875"></rect><rect x="403.875" y="245.6875" height="4.3125" width="10.875"></rect><rect x="414.75" y="246.2625" height="3.7375000000000114" width="10.875"></rect><rect x="425.625" y="247.55625" height="2.4437499999999943" width="10.875"></rect><rect x="436.5" y="249.1375" height="0.8625000000000114" width="10.875"></rect><rect x="447.375" y="248.41875" height="1.5812500000000114" width="10.875"></rect><rect x="458.25" y="248.275" height="1.7249999999999943" width="10.875"></rect><rect x="469.125" y="248.85" height="1.1500000000000057" width="10.875"></rect><rect x="480" y="249.7125" height="0.2874999999999943" width="0"></rect></g><g transform="translate(0,250)" fill="none" font-size="10" font-family="sans-serif" text-anchor="middle"><path class="domain" stroke="currentColor" d="M45.5,6V0.5H480.5V6"></path><g class="tick" opacity="1" transform="translate(45.5,0)"><line stroke="currentColor" y2="6"></line><text fill="currentColor" y="9" dy="0.71em">1</text></g><g class="tick" opacity="1" transform="translate(99.875,0)"><line stroke="currentColor" y2="6"></line><text fill="currentColor" y="9" dy="0.71em">51</text></g><g class="tick" opacity="1" transform="translate(154.25,0)"><line stroke="currentColor" y2="6"></line><text fill="currentColor" y="9" dy="0.71em">101</text></g><g class="tick" opacity="1" transform="translate(208.625,0)"><line stroke="currentColor" y2="6"></line><text fill="currentColor" y="9" dy="0.71em">151</text></g><g class="tick" opacity="1" transform="translate(263,0)"><line stroke="currentColor" y2="6"></line><text fill="currentColor" y="9" dy="0.71em">201</text></g><g class="tick" opacity="1" transform="translate(317.375,0)"><line stroke="currentColor" y2="6"></line><text fill="currentColor" y="9" dy="0.71em">252</text></g><g class="tick" opacity="1" transform="translate(371.75,0)"><line stroke="currentColor" y2="6"></line><text fill="currentColor" y="9" dy="0.71em">310</text></g><g class="tick" opacity="1" transform="translate(426.125,0)"><line stroke="currentColor" y2="6"></line><text fill="currentColor" y="9" dy="0.71em">377</text></g><g class="tick" opacity="1" transform="translate(480.5,0)"><line stroke="currentColor" y2="6"></line><text fill="currentColor" y="9" dy="0.71em">538</text></g><text x="400" y="30" fill="currentColor" text-anchor="start">Total dependencies</text></g><g transform="translate(45,0)" fill="none" font-size="10" font-family="sans-serif" text-anchor="end"><g class="tick" opacity="1" transform="translate(0,250.5)"><line stroke="currentColor" x2="-6"></line><text fill="currentColor" x="-9" dy="0.32em">0</text></g><g class="tick" opacity="1" transform="translate(0,221.75)"><line stroke="currentColor" x2="-6"></line><text fill="currentColor" x="-9" dy="0.32em">200</text></g><g class="tick" opacity="1" transform="translate(0,193)"><line stroke="currentColor" x2="-6"></line><text fill="currentColor" x="-9" dy="0.32em">400</text></g><g class="tick" opacity="1" transform="translate(0,164.25)"><line stroke="currentColor" x2="-6"></line><text fill="currentColor" x="-9" dy="0.32em">600</text></g><g class="tick" opacity="1" transform="translate(0,135.5)"><line stroke="currentColor" x2="-6"></line><text fill="currentColor" x="-9" dy="0.32em">800</text></g><g class="tick" opacity="1" transform="translate(0,106.75)"><line stroke="currentColor" x2="-6"></line><text fill="currentColor" x="-9" dy="0.32em">1,000</text></g><g class="tick" opacity="1" transform="translate(0,78)"><line stroke="currentColor" x2="-6"></line><text fill="currentColor" x="-9" dy="0.32em">1,200</text></g><g class="tick" opacity="1" transform="translate(0,49.25)"><line stroke="currentColor" x2="-6"></line><text fill="currentColor" x="-9" dy="0.32em">1,400</text></g><g class="tick" opacity="1" transform="translate(0,20.5)"><line stroke="currentColor" x2="-6"></line><text fill="currentColor" x="-9" dy="0.32em">1,600</text></g><text x="-45" y="10" fill="currentColor" text-anchor="start">Number of packages</text></g></svg>
