<svg viewBox="0,0,500,300" class="chart" xmlns="http://www.w3.org/2000/svg"><g fill="#BA2E17"><rect x="46.11253196930949" y="177.78" height="72.22" width="10.012787723785166"></rect><rect x="57.23785166240411" y="137.91333333333333" height="112.08666666666667" width="10.012787723785166"></rect><rect x="68.36317135549874" y="203.69333333333333" height="46.30666666666667" width="10.012787723785166"></rect><rect x="79.48849104859337" y="175.73555555555555" height="74.26444444444445" width="10.012787723785166"></rect><rect x="90.613810741688" y="207.83333333333331" height="42.166666666666686" width="10.012787723785166"></rect><rect x="101.73913043478262" y="196.94666666666666" height="53.05333333333334" width="10.012787723785166"></rect><rect x="112.86445012787726" y="202.1088888888889" height="47.89111111111109" width="10.012787723785166"></rect><rect x="123.98976982097189" y="210.13333333333333" height="39.866666666666674" width="10.012787723785166"></rect><rect x="135.1150895140665" y="189.99555555555554" height="60.00444444444446" width="10.012787723785166"></rect><rect x="146.24040920716112" y="156.72222222222223" height="93.27777777777777" width="10.012787723785166"></rect><rect x="157.36572890025576" y="209.31555555555556" height="40.68444444444444" width="10.012787723785166"></rect><rect x="168.4910485933504" y="228.38" height="21.620000000000005" width="10.012787723785166"></rect><rect x="179.61636828644504" y="235.74" height="14.259999999999991" width="10.012787723785166"></rect><rect x="190.74168797953965" y="235.17777777777778" height="14.822222222222223" width="10.012787723785166"></rect><rect x="201.8670076726343" y="238.65333333333334" height="11.346666666666664" width="10.012787723785166"></rect><rect x="212.9923273657289" y="235.84222222222223" height="14.157777777777767" width="10.012787723785166"></rect><rect x="224.11764705882354" y="241.15777777777777" height="8.842222222222233" width="10.012787723785166"></rect><rect x="235.24296675191817" y="187.9511111111111" height="62.04888888888891" width="10.012787723785166"></rect><rect x="246.36828644501279" y="189.68888888888887" height="60.31111111111113" width="10.012787723785166"></rect><rect x="257.49360613810745" y="157.94888888888886" height="92.05111111111114" width="10.012787723785166"></rect><rect x="268.61892583120203" y="191.47777777777776" height="58.52222222222224" width="10.012787723785166"></rect><rect x="279.7442455242967" y="177.98444444444445" height="72.01555555555555" width="10.012787723785166"></rect><rect x="290.8695652173913" y="210.18444444444444" height="39.81555555555556" width="10.012787723785166"></rect><rect x="301.9948849104859" y="213.14888888888888" height="36.85111111111112" width="10.012787723785166"></rect><rect x="313.1202046035806" y="222.86" height="27.139999999999986" width="10.012787723785166"></rect><rect x="324.24552429667517" y="218.20888888888888" height="31.79111111111112" width="10.012787723785166"></rect><rect x="335.3708439897698" y="240.95333333333332" height="9.046666666666681" width="10.012787723785166"></rect><rect x="346.49616368286445" y="241.56666666666666" height="8.433333333333337" width="10.012787723785166"></rect><rect x="357.6214833759591" y="162.65111111111113" height="87.34888888888887" width="10.012787723785166"></rect><rect x="368.7468030690537" y="206.76" height="43.24000000000001" width="10.012787723785166"></rect><rect x="379.8721227621483" y="225.87555555555554" height="24.124444444444464" width="10.012787723785166"></rect><rect x="390.99744245524295" y="232.52" height="17.47999999999999" width="10.012787723785166"></rect><rect x="402.1227621483376" y="168.9888888888889" height="81.01111111111109" width="10.012787723785166"></rect><rect x="413.2480818414322" y="223.5244444444444" height="26.475555555555587" width="10.012787723785166"></rect><rect x="424.37340153452686" y="233.33777777777777" height="16.662222222222226" width="10.012787723785166"></rect><rect x="435.49872122762144" y="233.89999999999998" height="16.100000000000023" width="10.012787723785166"></rect><rect x="446.6240409207161" y="240.4933333333333" height="9.506666666666689" width="10.012787723785166"></rect><rect x="457.7493606138107" y="246.62666666666664" height="3.3733333333333633" width="10.012787723785166"></rect><rect x="468.87468030690536" y="245.75777777777776" height="4.242222222222239" width="10.012787723785166"></rect></g><g transform="translate(0,250)" fill="none" font-size="10" font-family="sans-serif" text-anchor="middle"><path class="domain" stroke="currentColor" d="M45.5,0.5H480.5"></path><g class="tick" opacity="1" transform="translate(51.11892583120207,0)"><line stroke="currentColor" y2="6"></line><text fill="currentColor" y="9" dy="0.71em">1</text></g><g class="tick" opacity="1" transform="translate(62.244245524296694,0)"><line stroke="currentColor" y2="6"></line><text fill="currentColor" y="9" dy="0.71em">2</text></g><g class="tick" opacity="1" transform="translate(73.36956521739131,0)"><line stroke="currentColor" y2="6"></line><text fill="currentColor" y="9" dy="0.71em">3</text></g><g class="tick" opacity="1" transform="translate(84.49488491048595,0)"><line stroke="currentColor" y2="6"></line><text fill="currentColor" y="9" dy="0.71em">4</text></g><g class="tick" opacity="1" transform="translate(95.62020460358059,0)"><line stroke="currentColor" y2="6"></line><text fill="currentColor" y="9" dy="0.71em">5</text></g><g class="tick" opacity="1" transform="translate(106.7455242966752,0)"><line stroke="currentColor" y2="6"></line><text fill="currentColor" y="9" dy="0.71em">6</text></g><g class="tick" opacity="1" transform="translate(117.87084398976984,0)"><line stroke="currentColor" y2="6"></line><text fill="currentColor" y="9" dy="0.71em">7</text></g><g class="tick" opacity="1" transform="translate(128.99616368286448,0)"><line stroke="currentColor" y2="6"></line><text fill="currentColor" y="9" dy="0.71em">8</text></g><g class="tick" opacity="1" transform="translate(140.1214833759591,0)"><line stroke="currentColor" y2="6"></line><text fill="currentColor" y="9" dy="0.71em">9</text></g><g class="tick" opacity="1" transform="translate(151.2468030690537,0)"><line stroke="currentColor" y2="6"></line><text fill="currentColor" y="9" dy="0.71em">10</text></g><g class="tick" opacity="1" transform="translate(162.37212276214834,0)"><line stroke="currentColor" y2="6"></line><text fill="currentColor" y="9" dy="0.71em">11</text></g><g class="tick" opacity="1" transform="translate(173.49744245524298,0)"><line stroke="currentColor" y2="6"></line><text fill="currentColor" y="9" dy="0.71em">12</text></g><g class="tick" opacity="1" transform="translate(184.6227621483376,0)"><line stroke="currentColor" y2="6"></line><text fill="currentColor" y="9" dy="0.71em">13</text></g><g class="tick" opacity="1" transform="translate(195.74808184143222,0)"><line stroke="currentColor" y2="6"></line><text fill="currentColor" y="9" dy="0.71em">14</text></g><g class="tick" opacity="1" transform="translate(206.87340153452686,0)"><line stroke="currentColor" y2="6"></line><text fill="currentColor" y="9" dy="0.71em">15</text></g><g class="tick" opacity="1" transform="translate(217.99872122762147,0)"><line stroke="currentColor" y2="6"></line><text fill="currentColor" y="9" dy="0.71em">16</text></g><g class="tick" opacity="1" transform="translate(229.1240409207161,0)"><line stroke="currentColor" y2="6"></line><text fill="currentColor" y="9" dy="0.71em">17</text></g><g class="tick" opacity="1" transform="translate(240.24936061381075,0)"><line stroke="currentColor" y2="6"></line><text fill="currentColor" y="9" dy="0.71em">18</text></g><g class="tick" opacity="1" transform="translate(251.37468030690536,0)"><line stroke="currentColor" y2="6"></line><text fill="currentColor" y="9" dy="0.71em">19</text></g><g class="tick" opacity="1" transform="translate(262.50000000000006,0)"><line stroke="currentColor" y2="6"></line><text fill="currentColor" y="9" dy="0.71em">20</text></g><g class="tick" opacity="1" transform="translate(273.62531969309464,0)"><line stroke="currentColor" y2="6"></line><text fill="currentColor" y="9" dy="0.71em">21</text></g><g class="tick" opacity="1" transform="translate(284.7506393861893,0)"><line stroke="currentColor" y2="6"></line><text fill="currentColor" y="9" dy="0.71em">22</text></g><g class="tick" opacity="1" transform="translate(295.8759590792839,0)"><line stroke="currentColor" y2="6"></line><text fill="currentColor" y="9" dy="0.71em">23</text></g><g class="tick" opacity="1" transform="translate(307.0012787723785,0)"><line stroke="currentColor" y2="6"></line><text fill="currentColor" y="9" dy="0.71em">24</text></g><g class="tick" opacity="1" transform="translate(318.1265984654732,0)"><line stroke="currentColor" y2="6"></line><text fill="currentColor" y="9" dy="0.71em">25</text></g><g class="tick" opacity="1" transform="translate(329.2519181585678,0)"><line stroke="currentColor" y2="6"></line><text fill="currentColor" y="9" dy="0.71em">26</text></g><g class="tick" opacity="1" transform="translate(340.3772378516624,0)"><line stroke="currentColor" y2="6"></line><text fill="currentColor" y="9" dy="0.71em">27</text></g><g class="tick" opacity="1" transform="translate(351.50255754475705,0)"><line stroke="currentColor" y2="6"></line><text fill="currentColor" y="9" dy="0.71em">28</text></g><g class="tick" opacity="1" transform="translate(362.6278772378517,0)"><line stroke="currentColor" y2="6"></line><text fill="currentColor" y="9" dy="0.71em">29</text></g><g class="tick" opacity="1" transform="translate(373.75319693094633,0)"><line stroke="currentColor" y2="6"></line><text fill="currentColor" y="9" dy="0.71em">30</text></g><g class="tick" opacity="1" transform="translate(384.8785166240409,0)"><line stroke="currentColor" y2="6"></line><text fill="currentColor" y="9" dy="0.71em">31</text></g><g class="tick" opacity="1" transform="translate(396.00383631713555,0)"><line stroke="currentColor" y2="6"></line><text fill="currentColor" y="9" dy="0.71em">32</text></g><g class="tick" opacity="1" transform="translate(407.1291560102302,0)"><line stroke="currentColor" y2="6"></line><text fill="currentColor" y="9" dy="0.71em">33</text></g><g class="tick" opacity="1" transform="translate(418.25447570332483,0)"><line stroke="currentColor" y2="6"></line><text fill="currentColor" y="9" dy="0.71em">34</text></g><g class="tick" opacity="1" transform="translate(429.37979539641947,0)"><line stroke="currentColor" y2="6"></line><text fill="currentColor" y="9" dy="0.71em">35</text></g><g class="tick" opacity="1" transform="translate(440.50511508951405,0)"><line stroke="currentColor" y2="6"></line><text fill="currentColor" y="9" dy="0.71em">36</text></g><g class="tick" opacity="1" transform="translate(451.6304347826087,0)"><line stroke="currentColor" y2="6"></line><text fill="currentColor" y="9" dy="0.71em">37</text></g><g class="tick" opacity="1" transform="translate(462.7557544757033,0)"><line stroke="currentColor" y2="6"></line><text fill="currentColor" y="9" dy="0.71em">38</text></g><g class="tick" opacity="1" transform="translate(473.88107416879797,0)"><line stroke="currentColor" y2="6"></line><text fill="currentColor" y="9" dy="0.71em">39</text></g><text x="370" y="30" fill="currentColor" text-anchor="start">Dependency tree depth</text></g><g transform="translate(45,0)" fill="none" font-size="10" font-family="sans-serif" text-anchor="end"><g class="tick" opacity="1" transform="translate(0,250.5)"><line stroke="currentColor" x2="-6"></line><text fill="currentColor" x="-9" dy="0.32em">0</text></g><g class="tick" opacity="1" transform="translate(0,224.94444444444443)"><line stroke="currentColor" x2="-6"></line><text fill="currentColor" x="-9" dy="0.32em">500</text></g><g class="tick" opacity="1" transform="translate(0,199.3888888888889)"><line stroke="currentColor" x2="-6"></line><text fill="currentColor" x="-9" dy="0.32em">1,000</text></g><g class="tick" opacity="1" transform="translate(0,173.83333333333334)"><line stroke="currentColor" x2="-6"></line><text fill="currentColor" x="-9" dy="0.32em">1,500</text></g><g class="tick" opacity="1" transform="translate(0,148.27777777777777)"><line stroke="currentColor" x2="-6"></line><text fill="currentColor" x="-9" dy="0.32em">2,000</text></g><g class="tick" opacity="1" transform="translate(0,122.72222222222221)"><line stroke="currentColor" x2="-6"></line><text fill="currentColor" x="-9" dy="0.32em">2,500</text></g><g class="tick" opacity="1" transform="translate(0,97.16666666666667)"><line stroke="currentColor" x2="-6"></line><text fill="currentColor" x="-9" dy="0.32em">3,000</text></g><g class="tick" opacity="1" transform="translate(0,71.6111111111111)"><line stroke="currentColor" x2="-6"></line><text fill="currentColor" x="-9" dy="0.32em">3,500</text></g><g class="tick" opacity="1" transform="translate(0,46.05555555555557)"><line stroke="currentColor" x2="-6"></line><text fill="currentColor" x="-9" dy="0.32em">4,000</text></g><g class="tick" opacity="1" transform="translate(0,20.5)"><line stroke="currentColor" x2="-6"></line><text fill="currentColor" x="-9" dy="0.32em">4,500</text></g><text x="-45" y="10" fill="currentColor" text-anchor="start">Number of packages</text></g></svg>
