<svg viewBox="0,0,500,300" class="chart" xmlns="http://www.w3.org/2000/svg"><g fill="#BA2E17"><rect x="45" y="40.03090909090909" height="209.9690909090909" width="10.875"></rect><rect x="55.875" y="178.9090909090909" height="71.0909090909091" width="10.875"></rect><rect x="66.75" y="216.92181818181817" height="33.07818181818183" width="10.875"></rect><rect x="77.625" y="228.8818181818182" height="21.118181818181796" width="10.875"></rect><rect x="88.5" y="236.2" height="13.800000000000011" width="10.875"></rect><rect x="99.375" y="239.04363636363635" height="10.956363636363648" width="10.875"></rect><rect x="110.25" y="242.1381818181818" height="7.861818181818194" width="10.875"></rect><rect x="121.125" y="232.01818181818183" height="17.98181818181817" width="10.875"></rect><rect x="132" y="243.93636363636364" height="6.063636363636363" width="10.875"></rect><rect x="142.875" y="244.22909090909093" height="5.770909090909072" width="10.875"></rect><rect x="153.75" y="246.82181818181817" height="3.1781818181818267" width="10.875"></rect><rect x="164.625" y="247.15636363636364" height="2.8436363636363637" width="10.875"></rect><rect x="175.5" y="247.90909090909093" height="2.090909090909065" width="10.875"></rect><rect x="186.375" y="248.70363636363638" height="1.2963636363636226" width="10.875"></rect><rect x="197.25" y="249.16363636363636" height="0.8363636363636431" width="10.875"></rect><rect x="208.125" y="249.49818181818182" height="0.5018181818181802" width="10.875"></rect><rect x="219" y="249.2890909090909" height="0.710909090909098" width="10.875"></rect><rect x="229.875" y="249.7490909090909" height="0.2509090909090901" width="10.875"></rect><rect x="240.75" y="249.66545454545454" height="0.3345454545454629" width="10.875"></rect><rect x="251.625" y="248.7872727272727" height="1.2127272727273066" width="10.875"></rect><rect x="262.5" y="249.83272727272728" height="0.16727272727271725" width="10.875"></rect><rect x="273.375" y="249.7072727272727" height="0.2927272727272907" width="10.875"></rect><rect x="284.25" y="249.95818181818183" height="0.041818181818172206" width="10.875"></rect><rect x="295.125" y="249.83272727272728" height="0.16727272727271725" width="10.875"></rect><rect x="306" y="249.83272727272728" height="0.16727272727271725" width="10.875"></rect><rect x="316.875" y="249.95818181818183" height="0.041818181818172206" width="10.875"></rect><rect x="327.75" y="250" height="0" width="10.875"></rect><rect x="338.625" y="249.95818181818183" height="0.041818181818172206" width="10.875"></rect><rect x="349.5" y="250" height="0" width="10.875"></rect><rect x="360.375" y="250" height="0" width="10.875"></rect><rect x="371.25" y="249.95818181818183" height="0.041818181818172206" width="10.875"></rect><rect x="382.125" y="250" height="0" width="10.875"></rect><rect x="393" y="250" height="0" width="10.875"></rect><rect x="403.875" y="250" height="0" width="10.875"></rect><rect x="414.75" y="249.95818181818183" height="0.041818181818172206" width="10.875"></rect><rect x="425.625" y="250" height="0" width="10.875"></rect><rect x="436.5" y="250" height="0" width="10.875"></rect><rect x="447.375" y="250" height="0" width="10.875"></rect><rect x="458.25" y="250" height="0" width="10.875"></rect><rect x="469.125" y="250" height="0" width="10.875"></rect><rect x="480" y="250" height="0" width="0"></rect></g><g transform="translate(0,250)" fill="none" font-size="10" font-family="sans-serif" text-anchor="middle"><path class="domain" stroke="currentColor" d="M45.5,6V0.5H480.5V6"></path><g class="tick" opacity="1" transform="translate(45.5,0)"><line stroke="currentColor" y2="6"></line><text fill="currentColor" y="9" dy="0.71em">0</text></g><g class="tick" opacity="1" transform="translate(99.875,0)"><line stroke="currentColor" y2="6"></line><text fill="currentColor" y="9" dy="0.71em">50</text></g><g class="tick" opacity="1" transform="translate(154.25,0)"><line stroke="currentColor" y2="6"></line><text fill="currentColor" y="9" dy="0.71em">100</text></g><g class="tick" opacity="1" transform="translate(208.625,0)"><line stroke="currentColor" y2="6"></line><text fill="currentColor" y="9" dy="0.71em">150</text></g><g class="tick" opacity="1" transform="translate(263,0)"><line stroke="currentColor" y2="6"></line><text fill="currentColor" y="9" dy="0.71em">200</text></g><g class="tick" opacity="1" transform="translate(317.375,0)"><line stroke="currentColor" y2="6"></line><text fill="currentColor" y="9" dy="0.71em">250</text></g><g class="tick" opacity="1" transform="translate(371.75,0)"><line stroke="currentColor" y2="6"></line><text fill="currentColor" y="9" dy="0.71em">300</text></g><g class="tick" opacity="1" transform="translate(426.125,0)"><line stroke="currentColor" y2="6"></line><text fill="currentColor" y="9" dy="0.71em">350</text></g><g class="tick" opacity="1" transform="translate(480.5,0)"><line stroke="currentColor" y2="6"></line><text fill="currentColor" y="9" dy="0.71em">400</text></g><text x="400" y="30" fill="currentColor" text-anchor="start">Total dependencies</text></g><g transform="translate(45,0)" fill="none" font-size="10" font-family="sans-serif" text-anchor="end"><g class="tick" opacity="1" transform="translate(0,250.5)"><line stroke="currentColor" x2="-6"></line><text fill="currentColor" x="-9" dy="0.32em">0</text></g><g class="tick" opacity="1" transform="translate(0,229.59090909090907)"><line stroke="currentColor" x2="-6"></line><text fill="currentColor" x="-9" dy="0.32em">500</text></g><g class="tick" opacity="1" transform="translate(0,208.68181818181816)"><line stroke="currentColor" x2="-6"></line><text fill="currentColor" x="-9" dy="0.32em">1,000</text></g><g class="tick" opacity="1" transform="translate(0,187.77272727272728)"><line stroke="currentColor" x2="-6"></line><text fill="currentColor" x="-9" dy="0.32em">1,500</text></g><g class="tick" opacity="1" transform="translate(0,166.86363636363637)"><line stroke="currentColor" x2="-6"></line><text fill="currentColor" x="-9" dy="0.32em">2,000</text></g><g class="tick" opacity="1" transform="translate(0,145.95454545454544)"><line stroke="currentColor" x2="-6"></line><text fill="currentColor" x="-9" dy="0.32em">2,500</text></g><g class="tick" opacity="1" transform="translate(0,125.04545454545455)"><line stroke="currentColor" x2="-6"></line><text fill="currentColor" x="-9" dy="0.32em">3,000</text></g><g class="tick" opacity="1" transform="translate(0,104.13636363636363)"><line stroke="currentColor" x2="-6"></line><text fill="currentColor" x="-9" dy="0.32em">3,500</text></g><g class="tick" opacity="1" transform="translate(0,83.22727272727272)"><line stroke="currentColor" x2="-6"></line><text fill="currentColor" x="-9" dy="0.32em">4,000</text></g><g class="tick" opacity="1" transform="translate(0,62.3181818181818)"><line stroke="currentColor" x2="-6"></line><text fill="currentColor" x="-9" dy="0.32em">4,500</text></g><g class="tick" opacity="1" transform="translate(0,41.409090909090914)"><line stroke="currentColor" x2="-6"></line><text fill="currentColor" x="-9" dy="0.32em">5,000</text></g><g class="tick" opacity="1" transform="translate(0,20.5)"><line stroke="currentColor" x2="-6"></line><text fill="currentColor" x="-9" dy="0.32em">5,500</text></g><text x="-45" y="10" fill="currentColor" text-anchor="start">Number of packages</text></g></svg>
