<svg viewBox="0,0,500,300" class="chart" xmlns="http://www.w3.org/2000/svg"><g fill="#BA2E17"><rect x="46.49484536082471" y="23.361538461538455" height="226.6030769230769" width="13.453608247422682"></rect><rect x="61.44329896907214" y="68.40615384615386" height="181.55846153846153" width="13.453608247422682"></rect><rect x="76.39175257731956" y="94.34307692307692" height="155.62153846153845" width="13.453608247422682"></rect><rect x="91.34020618556698" y="133.23076923076923" height="116.73384615384614" width="13.453608247422682"></rect><rect x="106.28865979381442" y="166.63384615384618" height="83.33076923076919" width="13.453608247422682"></rect><rect x="121.23711340206184" y="183.76" height="66.20461538461538" width="13.453608247422682"></rect><rect x="136.18556701030926" y="188.39538461538461" height="61.56923076923076" width="13.453608247422682"></rect><rect x="151.1340206185567" y="211.36" height="38.60461538461536" width="13.453608247422682"></rect><rect x="166.0824742268041" y="219.32153846153844" height="30.643076923076933" width="13.453608247422682"></rect><rect x="181.03092783505153" y="224.16923076923075" height="25.79538461538462" width="13.453608247422682"></rect><rect x="195.97938144329896" y="222.54153846153844" height="27.423076923076934" width="13.453608247422682"></rect><rect x="210.9278350515464" y="232.4846153846154" height="17.47999999999996" width="13.453608247422682"></rect><rect x="225.8762886597938" y="236.6246153846154" height="13.339999999999975" width="13.453608247422682"></rect><rect x="240.82474226804123" y="239.0307692307692" height="10.933846153846162" width="13.453608247422682"></rect><rect x="255.77319587628867" y="241.86153846153846" height="8.103076923076912" width="13.453608247422682"></rect><rect x="270.7216494845361" y="242.32153846153847" height="7.6430769230769044" width="13.453608247422682"></rect><rect x="285.6701030927835" y="243.27692307692305" height="6.687692307692316" width="13.453608247422682"></rect><rect x="300.6185567010309" y="244.7276923076923" height="5.236923076923063" width="13.453608247422682"></rect><rect x="315.5670103092783" y="246.35538461538462" height="3.6092307692307486" width="13.453608247422682"></rect><rect x="330.51546391752584" y="246.81538461538463" height="3.1492307692307406" width="13.453608247422682"></rect><rect x="345.46391752577324" y="247.38153846153844" height="2.5830769230769306" width="13.453608247422682"></rect><rect x="360.41237113402065" y="247.24" height="2.724615384615362" width="13.453608247422682"></rect><rect x="375.36082474226805" y="248.16" height="1.8046153846153743" width="13.453608247422682"></rect><rect x="390.30927835051546" y="248.51384615384615" height="1.4507692307692253" width="13.453608247422682"></rect><rect x="405.25773195876286" y="248.86769230769232" height="1.0969230769230478" width="13.453608247422682"></rect><rect x="420.2061855670104" y="249.00923076923075" height="0.9553846153846166" width="13.453608247422682"></rect><rect x="435.1546391752578" y="248.58461538461538" height="1.3799999999999955" width="13.453608247422682"></rect><rect x="450.1030927835052" y="249.00923076923075" height="0.9553846153846166" width="13.453608247422682"></rect><rect x="465.0515463917526" y="248.90307692307692" height="1.061538461538447" width="13.453608247422682"></rect><rect y="249.08" height="0.8846153846153584" width="13.453608247422682"></rect></g><g transform="translate(0,249.96461538461537)" fill="none" font-size="10" font-family="sans-serif" text-anchor="middle"><path class="domain" stroke="currentColor" d="M45.5,6V0.5H480.5V6"></path><g class="tick" opacity="1" transform="translate(53.22164948453605,0)"><line stroke="currentColor" y2="6"></line><text fill="currentColor" y="9" dy="0.71em">1</text></g><g class="tick" opacity="1" transform="translate(68.17010309278348,0)"><line stroke="currentColor" y2="6"></line><text fill="currentColor" y="9" dy="0.71em">2</text></g><g class="tick" opacity="1" transform="translate(83.11855670103091,0)"><line stroke="currentColor" y2="6"></line><text fill="currentColor" y="9" dy="0.71em">3</text></g><g class="tick" opacity="1" transform="translate(98.06701030927833,0)"><line stroke="currentColor" y2="6"></line><text fill="currentColor" y="9" dy="0.71em">4</text></g><g class="tick" opacity="1" transform="translate(113.01546391752576,0)"><line stroke="currentColor" y2="6"></line><text fill="currentColor" y="9" dy="0.71em">5</text></g><g class="tick" opacity="1" transform="translate(127.96391752577318,0)"><line stroke="currentColor" y2="6"></line><text fill="currentColor" y="9" dy="0.71em">6</text></g><g class="tick" opacity="1" transform="translate(142.9123711340206,0)"><line stroke="currentColor" y2="6"></line><text fill="currentColor" y="9" dy="0.71em">7</text></g><g class="tick" opacity="1" transform="translate(157.86082474226802,0)"><line stroke="currentColor" y2="6"></line><text fill="currentColor" y="9" dy="0.71em">8</text></g><g class="tick" opacity="1" transform="translate(172.80927835051543,0)"><line stroke="currentColor" y2="6"></line><text fill="currentColor" y="9" dy="0.71em">9</text></g><g class="tick" opacity="1" transform="translate(187.75773195876286,0)"><line stroke="currentColor" y2="6"></line><text fill="currentColor" y="9" dy="0.71em">10</text></g><g class="tick" opacity="1" transform="translate(202.7061855670103,0)"><line stroke="currentColor" y2="6"></line><text fill="currentColor" y="9" dy="0.71em">11</text></g><g class="tick" opacity="1" transform="translate(217.65463917525773,0)"><line stroke="currentColor" y2="6"></line><text fill="currentColor" y="9" dy="0.71em">12</text></g><g class="tick" opacity="1" transform="translate(232.60309278350513,0)"><line stroke="currentColor" y2="6"></line><text fill="currentColor" y="9" dy="0.71em">13</text></g><g class="tick" opacity="1" transform="translate(247.55154639175257,0)"><line stroke="currentColor" y2="6"></line><text fill="currentColor" y="9" dy="0.71em">14</text></g><g class="tick" opacity="1" transform="translate(262.5,0)"><line stroke="currentColor" y2="6"></line><text fill="currentColor" y="9" dy="0.71em">15</text></g><g class="tick" opacity="1" transform="translate(277.44845360824746,0)"><line stroke="currentColor" y2="6"></line><text fill="currentColor" y="9" dy="0.71em">16</text></g><g class="tick" opacity="1" transform="translate(292.39690721649487,0)"><line stroke="currentColor" y2="6"></line><text fill="currentColor" y="9" dy="0.71em">17</text></g><g class="tick" opacity="1" transform="translate(307.3453608247423,0)"><line stroke="currentColor" y2="6"></line><text fill="currentColor" y="9" dy="0.71em">18</text></g><g class="tick" opacity="1" transform="translate(322.2938144329897,0)"><line stroke="currentColor" y2="6"></line><text fill="currentColor" y="9" dy="0.71em">19</text></g><g class="tick" opacity="1" transform="translate(337.2422680412372,0)"><line stroke="currentColor" y2="6"></line><text fill="currentColor" y="9" dy="0.71em">20</text></g><g class="tick" opacity="1" transform="translate(352.1907216494846,0)"><line stroke="currentColor" y2="6"></line><text fill="currentColor" y="9" dy="0.71em">21</text></g><g class="tick" opacity="1" transform="translate(367.139175257732,0)"><line stroke="currentColor" y2="6"></line><text fill="currentColor" y="9" dy="0.71em">22</text></g><g class="tick" opacity="1" transform="translate(382.0876288659794,0)"><line stroke="currentColor" y2="6"></line><text fill="currentColor" y="9" dy="0.71em">23</text></g><g class="tick" opacity="1" transform="translate(397.0360824742268,0)"><line stroke="currentColor" y2="6"></line><text fill="currentColor" y="9" dy="0.71em">24</text></g><g class="tick" opacity="1" transform="translate(411.9845360824742,0)"><line stroke="currentColor" y2="6"></line><text fill="currentColor" y="9" dy="0.71em">25</text></g><g class="tick" opacity="1" transform="translate(426.93298969072174,0)"><line stroke="currentColor" y2="6"></line><text fill="currentColor" y="9" dy="0.71em">26</text></g><g class="tick" opacity="1" transform="translate(441.88144329896915,0)"><line stroke="currentColor" y2="6"></line><text fill="currentColor" y="9" dy="0.71em">27</text></g><g class="tick" opacity="1" transform="translate(456.82989690721655,0)"><line stroke="currentColor" y2="6"></line><text fill="currentColor" y="9" dy="0.71em">28</text></g><g class="tick" opacity="1" transform="translate(471.77835051546396,0)"><line stroke="currentColor" y2="6"></line><text fill="currentColor" y="9" dy="0.71em">29</text></g><text x="270" y="30" fill="currentColor" text-anchor="start">Number of direct dependencies (branching factor)</text></g><g transform="translate(45,0)" fill="none" font-size="10" font-family="sans-serif" text-anchor="end"><g class="tick" opacity="1" transform="translate(0,250.5)"><line stroke="currentColor" x2="-6"></line><text fill="currentColor" x="-9" dy="0.32em">0</text></g><g class="tick" opacity="1" transform="translate(0,232.80769230769232)"><line stroke="currentColor" x2="-6"></line><text fill="currentColor" x="-9" dy="0.32em">500</text></g><g class="tick" opacity="1" transform="translate(0,215.1153846153846)"><line stroke="currentColor" x2="-6"></line><text fill="currentColor" x="-9" dy="0.32em">1,000</text></g><g class="tick" opacity="1" transform="translate(0,197.4230769230769)"><line stroke="currentColor" x2="-6"></line><text fill="currentColor" x="-9" dy="0.32em">1,500</text></g><g class="tick" opacity="1" transform="translate(0,179.73076923076923)"><line stroke="currentColor" x2="-6"></line><text fill="currentColor" x="-9" dy="0.32em">2,000</text></g><g class="tick" opacity="1" transform="translate(0,162.03846153846155)"><line stroke="currentColor" x2="-6"></line><text fill="currentColor" x="-9" dy="0.32em">2,500</text></g><g class="tick" opacity="1" transform="translate(0,144.34615384615384)"><line stroke="currentColor" x2="-6"></line><text fill="currentColor" x="-9" dy="0.32em">3,000</text></g><g class="tick" opacity="1" transform="translate(0,126.65384615384616)"><line stroke="currentColor" x2="-6"></line><text fill="currentColor" x="-9" dy="0.32em">3,500</text></g><g class="tick" opacity="1" transform="translate(0,108.96153846153845)"><line stroke="currentColor" x2="-6"></line><text fill="currentColor" x="-9" dy="0.32em">4,000</text></g><g class="tick" opacity="1" transform="translate(0,91.26923076923077)"><line stroke="currentColor" x2="-6"></line><text fill="currentColor" x="-9" dy="0.32em">4,500</text></g><g class="tick" opacity="1" transform="translate(0,73.57692307692307)"><line stroke="currentColor" x2="-6"></line><text fill="currentColor" x="-9" dy="0.32em">5,000</text></g><g class="tick" opacity="1" transform="translate(0,55.88461538461539)"><line stroke="currentColor" x2="-6"></line><text fill="currentColor" x="-9" dy="0.32em">5,500</text></g><g class="tick" opacity="1" transform="translate(0,38.19230769230768)"><line stroke="currentColor" x2="-6"></line><text fill="currentColor" x="-9" dy="0.32em">6,000</text></g><g class="tick" opacity="1" transform="translate(0,20.5)"><line stroke="currentColor" x2="-6"></line><text fill="currentColor" x="-9" dy="0.32em">6,500</text></g><text x="-45" y="10" fill="currentColor" text-anchor="start">Number of packages</text></g></svg>
