<svg viewBox="0,0,500,300" class="chart" xmlns="http://www.w3.org/2000/svg"><g fill="#BA2E17"><rect x="47.06161137440756" y="58.486666666666665" height="191.51333333333332" width="18.55450236966825"></rect><rect x="67.6777251184834" y="67.7377777777778" height="182.2622222222222" width="18.55450236966825"></rect><rect x="88.29383886255923" y="21.38" height="228.62" width="18.55450236966825"></rect><rect x="108.90995260663506" y="74.63777777777777" height="175.36222222222221" width="18.55450236966825"></rect><rect x="129.5260663507109" y="115.68" height="134.32" width="18.55450236966825"></rect><rect x="150.14218009478674" y="128.20222222222222" height="121.79777777777778" width="18.55450236966825"></rect><rect x="170.75829383886256" y="150.43555555555554" height="99.56444444444446" width="18.55450236966825"></rect><rect x="191.37440758293837" y="143.84222222222223" height="106.15777777777777" width="18.55450236966825"></rect><rect x="211.99052132701422" y="181.46" height="68.53999999999999" width="18.55450236966825"></rect><rect x="232.60663507109007" y="189.12666666666667" height="60.873333333333335" width="18.55450236966825"></rect><rect x="253.2227488151659" y="163.00888888888886" height="86.99111111111114" width="18.55450236966825"></rect><rect x="273.8388625592417" y="209.36666666666667" height="40.633333333333326" width="18.55450236966825"></rect><rect x="294.45497630331755" y="223.32" height="26.680000000000007" width="18.55450236966825"></rect><rect x="315.0710900473934" y="238.04" height="11.960000000000008" width="18.55450236966825"></rect><rect x="335.6872037914692" y="234.51333333333332" height="15.486666666666679" width="18.55450236966825"></rect><rect x="356.30331753554503" y="236.86444444444444" height="13.135555555555555" width="18.55450236966825"></rect><rect x="376.9194312796209" y="249.18222222222224" height="0.8177777777777635" width="18.55450236966825"></rect><rect x="397.5355450236967" y="249.13111111111112" height="0.8688888888888755" width="18.55450236966825"></rect><rect x="418.1516587677726" y="249.48888888888888" height="0.51111111111112" width="18.55450236966825"></rect><rect x="438.76777251184836" y="249.59111111111113" height="0.40888888888886754" width="18.55450236966825"></rect><rect x="459.3838862559242" y="249.89777777777778" height="0.10222222222222399" width="18.55450236966825"></rect></g><g transform="translate(0,250)" fill="none" font-size="10" font-family="sans-serif" text-anchor="middle"><path class="domain" stroke="currentColor" d="M45.5,0.5H480.5"></path><g class="tick" opacity="1" transform="translate(56.33886255924169,0)"><line stroke="currentColor" y2="6"></line><text fill="currentColor" y="9" dy="0.71em">1</text></g><g class="tick" opacity="1" transform="translate(76.95497630331752,0)"><line stroke="currentColor" y2="6"></line><text fill="currentColor" y="9" dy="0.71em">2</text></g><g class="tick" opacity="1" transform="translate(97.57109004739335,0)"><line stroke="currentColor" y2="6"></line><text fill="currentColor" y="9" dy="0.71em">3</text></g><g class="tick" opacity="1" transform="translate(118.18720379146919,0)"><line stroke="currentColor" y2="6"></line><text fill="currentColor" y="9" dy="0.71em">4</text></g><g class="tick" opacity="1" transform="translate(138.803317535545,0)"><line stroke="currentColor" y2="6"></line><text fill="currentColor" y="9" dy="0.71em">5</text></g><g class="tick" opacity="1" transform="translate(159.41943127962085,0)"><line stroke="currentColor" y2="6"></line><text fill="currentColor" y="9" dy="0.71em">6</text></g><g class="tick" opacity="1" transform="translate(180.03554502369667,0)"><line stroke="currentColor" y2="6"></line><text fill="currentColor" y="9" dy="0.71em">7</text></g><g class="tick" opacity="1" transform="translate(200.6516587677725,0)"><line stroke="currentColor" y2="6"></line><text fill="currentColor" y="9" dy="0.71em">8</text></g><g class="tick" opacity="1" transform="translate(221.26777251184834,0)"><line stroke="currentColor" y2="6"></line><text fill="currentColor" y="9" dy="0.71em">9</text></g><g class="tick" opacity="1" transform="translate(241.88388625592418,0)"><line stroke="currentColor" y2="6"></line><text fill="currentColor" y="9" dy="0.71em">10</text></g><g class="tick" opacity="1" transform="translate(262.5,0)"><line stroke="currentColor" y2="6"></line><text fill="currentColor" y="9" dy="0.71em">11</text></g><g class="tick" opacity="1" transform="translate(283.11611374407585,0)"><line stroke="currentColor" y2="6"></line><text fill="currentColor" y="9" dy="0.71em">12</text></g><g class="tick" opacity="1" transform="translate(303.7322274881517,0)"><line stroke="currentColor" y2="6"></line><text fill="currentColor" y="9" dy="0.71em">13</text></g><g class="tick" opacity="1" transform="translate(324.34834123222754,0)"><line stroke="currentColor" y2="6"></line><text fill="currentColor" y="9" dy="0.71em">14</text></g><g class="tick" opacity="1" transform="translate(344.96445497630333,0)"><line stroke="currentColor" y2="6"></line><text fill="currentColor" y="9" dy="0.71em">15</text></g><g class="tick" opacity="1" transform="translate(365.5805687203792,0)"><line stroke="currentColor" y2="6"></line><text fill="currentColor" y="9" dy="0.71em">16</text></g><g class="tick" opacity="1" transform="translate(386.196682464455,0)"><line stroke="currentColor" y2="6"></line><text fill="currentColor" y="9" dy="0.71em">17</text></g><g class="tick" opacity="1" transform="translate(406.81279620853087,0)"><line stroke="currentColor" y2="6"></line><text fill="currentColor" y="9" dy="0.71em">18</text></g><g class="tick" opacity="1" transform="translate(427.4289099526067,0)"><line stroke="currentColor" y2="6"></line><text fill="currentColor" y="9" dy="0.71em">19</text></g><g class="tick" opacity="1" transform="translate(448.0450236966825,0)"><line stroke="currentColor" y2="6"></line><text fill="currentColor" y="9" dy="0.71em">20</text></g><g class="tick" opacity="1" transform="translate(468.66113744075835,0)"><line stroke="currentColor" y2="6"></line><text fill="currentColor" y="9" dy="0.71em">21</text></g><text x="370" y="30" fill="currentColor" text-anchor="start">Dependency tree depth</text></g><g transform="translate(45,0)" fill="none" font-size="10" font-family="sans-serif" text-anchor="end"><g class="tick" opacity="1" transform="translate(0,250.5)"><line stroke="currentColor" x2="-6"></line><text fill="currentColor" x="-9" dy="0.32em">0</text></g><g class="tick" opacity="1" transform="translate(0,224.94444444444443)"><line stroke="currentColor" x2="-6"></line><text fill="currentColor" x="-9" dy="0.32em">500</text></g><g class="tick" opacity="1" transform="translate(0,199.3888888888889)"><line stroke="currentColor" x2="-6"></line><text fill="currentColor" x="-9" dy="0.32em">1,000</text></g><g class="tick" opacity="1" transform="translate(0,173.83333333333334)"><line stroke="currentColor" x2="-6"></line><text fill="currentColor" x="-9" dy="0.32em">1,500</text></g><g class="tick" opacity="1" transform="translate(0,148.27777777777777)"><line stroke="currentColor" x2="-6"></line><text fill="currentColor" x="-9" dy="0.32em">2,000</text></g><g class="tick" opacity="1" transform="translate(0,122.72222222222221)"><line stroke="currentColor" x2="-6"></line><text fill="currentColor" x="-9" dy="0.32em">2,500</text></g><g class="tick" opacity="1" transform="translate(0,97.16666666666667)"><line stroke="currentColor" x2="-6"></line><text fill="currentColor" x="-9" dy="0.32em">3,000</text></g><g class="tick" opacity="1" transform="translate(0,71.6111111111111)"><line stroke="currentColor" x2="-6"></line><text fill="currentColor" x="-9" dy="0.32em">3,500</text></g><g class="tick" opacity="1" transform="translate(0,46.05555555555557)"><line stroke="currentColor" x2="-6"></line><text fill="currentColor" x="-9" dy="0.32em">4,000</text></g><g class="tick" opacity="1" transform="translate(0,20.5)"><line stroke="currentColor" x2="-6"></line><text fill="currentColor" x="-9" dy="0.32em">4,500</text></g><text x="-45" y="10" fill="currentColor" text-anchor="start">Number of packages</text></g></svg>
