<svg viewBox="0,0,500,300" class="chart" xmlns="http://www.w3.org/2000/svg"><g fill="#BA2E17"><rect x="46.49484536082471" y="28.510000000000005" height="221.45714285714286" width="13.453608247422682"></rect><rect x="61.44329896907214" y="81.47571428571428" height="168.4914285714286" width="13.453608247422682"></rect><rect x="76.39175257731956" y="100.89428571428573" height="149.07285714285715" width="13.453608247422682"></rect><rect x="91.34020618556698" y="149.42428571428573" height="100.54285714285714" width="13.453608247422682"></rect><rect x="106.28865979381442" y="176.66285714285715" height="73.30428571428573" width="13.453608247422682"></rect><rect x="121.23711340206184" y="191.25142857142856" height="58.71571428571431" width="13.453608247422682"></rect><rect x="136.18556701030926" y="196.5742857142857" height="53.39285714285717" width="13.453608247422682"></rect><rect x="151.1340206185567" y="216.51857142857142" height="33.448571428571455" width="13.453608247422682"></rect><rect x="166.0824742268041" y="224.33857142857144" height="25.628571428571433" width="13.453608247422682"></rect><rect x="181.03092783505153" y="228.34714285714287" height="21.620000000000005" width="13.453608247422682"></rect><rect x="195.97938144329896" y="224.93" height="25.037142857142868" width="13.453608247422682"></rect><rect x="210.9278350515464" y="236.10142857142858" height="13.86571428571429" width="13.453608247422682"></rect><rect x="225.8762886597938" y="239.12428571428572" height="10.842857142857156" width="13.453608247422682"></rect><rect x="240.82474226804123" y="241.03" height="8.937142857142874" width="13.453608247422682"></rect><rect x="255.77319587628867" y="242.9357142857143" height="7.031428571428563" width="13.453608247422682"></rect><rect x="270.7216494845361" y="243.92142857142858" height="6.045714285714297" width="13.453608247422682"></rect><rect x="285.6701030927835" y="244.84142857142857" height="5.125714285714309" width="13.453608247422682"></rect><rect x="300.6185567010309" y="245.95857142857145" height="4.008571428571429" width="13.453608247422682"></rect><rect x="315.5670103092783" y="247.17428571428573" height="2.7928571428571445" width="13.453608247422682"></rect><rect x="330.51546391752584" y="247.37142857142857" height="2.5957142857143083" width="13.453608247422682"></rect><rect x="345.46391752577324" y="247.7657142857143" height="2.201428571428579" width="13.453608247422682"></rect><rect x="360.41237113402065" y="248.16" height="1.8071428571428783" width="13.453608247422682"></rect><rect x="375.36082474226805" y="248.52142857142857" height="1.4457142857143026" width="13.453608247422682"></rect><rect x="390.30927835051546" y="249.11285714285714" height="0.8542857142857372" width="13.453608247422682"></rect><rect x="405.25773195876286" y="249.0142857142857" height="0.9528571428571695" width="13.453608247422682"></rect><rect x="420.2061855670104" y="249.17857142857144" height="0.78857142857143" width="13.453608247422682"></rect><rect x="435.1546391752578" y="248.85" height="1.1171428571428805" width="13.453608247422682"></rect><rect x="450.1030927835052" y="249.17857142857144" height="0.78857142857143" width="13.453608247422682"></rect><rect x="465.0515463917526" y="249.3757142857143" height="0.5914285714285654" width="13.453608247422682"></rect><rect y="249.34285714285713" height="0.6242857142857474" width="13.453608247422682"></rect></g><g transform="translate(0,249.96714285714287)" fill="none" font-size="10" font-family="sans-serif" text-anchor="middle"><path class="domain" stroke="currentColor" d="M45.5,6V0.5H480.5V6"></path><g class="tick" opacity="1" transform="translate(53.22164948453605,0)"><line stroke="currentColor" y2="6"></line><text fill="currentColor" y="9" dy="0.71em">1</text></g><g class="tick" opacity="1" transform="translate(68.17010309278348,0)"><line stroke="currentColor" y2="6"></line><text fill="currentColor" y="9" dy="0.71em">2</text></g><g class="tick" opacity="1" transform="translate(83.11855670103091,0)"><line stroke="currentColor" y2="6"></line><text fill="currentColor" y="9" dy="0.71em">3</text></g><g class="tick" opacity="1" transform="translate(98.06701030927833,0)"><line stroke="currentColor" y2="6"></line><text fill="currentColor" y="9" dy="0.71em">4</text></g><g class="tick" opacity="1" transform="translate(113.01546391752576,0)"><line stroke="currentColor" y2="6"></line><text fill="currentColor" y="9" dy="0.71em">5</text></g><g class="tick" opacity="1" transform="translate(127.96391752577318,0)"><line stroke="currentColor" y2="6"></line><text fill="currentColor" y="9" dy="0.71em">6</text></g><g class="tick" opacity="1" transform="translate(142.9123711340206,0)"><line stroke="currentColor" y2="6"></line><text fill="currentColor" y="9" dy="0.71em">7</text></g><g class="tick" opacity="1" transform="translate(157.86082474226802,0)"><line stroke="currentColor" y2="6"></line><text fill="currentColor" y="9" dy="0.71em">8</text></g><g class="tick" opacity="1" transform="translate(172.80927835051543,0)"><line stroke="currentColor" y2="6"></line><text fill="currentColor" y="9" dy="0.71em">9</text></g><g class="tick" opacity="1" transform="translate(187.75773195876286,0)"><line stroke="currentColor" y2="6"></line><text fill="currentColor" y="9" dy="0.71em">10</text></g><g class="tick" opacity="1" transform="translate(202.7061855670103,0)"><line stroke="currentColor" y2="6"></line><text fill="currentColor" y="9" dy="0.71em">11</text></g><g class="tick" opacity="1" transform="translate(217.65463917525773,0)"><line stroke="currentColor" y2="6"></line><text fill="currentColor" y="9" dy="0.71em">12</text></g><g class="tick" opacity="1" transform="translate(232.60309278350513,0)"><line stroke="currentColor" y2="6"></line><text fill="currentColor" y="9" dy="0.71em">13</text></g><g class="tick" opacity="1" transform="translate(247.55154639175257,0)"><line stroke="currentColor" y2="6"></line><text fill="currentColor" y="9" dy="0.71em">14</text></g><g class="tick" opacity="1" transform="translate(262.5,0)"><line stroke="currentColor" y2="6"></line><text fill="currentColor" y="9" dy="0.71em">15</text></g><g class="tick" opacity="1" transform="translate(277.44845360824746,0)"><line stroke="currentColor" y2="6"></line><text fill="currentColor" y="9" dy="0.71em">16</text></g><g class="tick" opacity="1" transform="translate(292.39690721649487,0)"><line stroke="currentColor" y2="6"></line><text fill="currentColor" y="9" dy="0.71em">17</text></g><g class="tick" opacity="1" transform="translate(307.3453608247423,0)"><line stroke="currentColor" y2="6"></line><text fill="currentColor" y="9" dy="0.71em">18</text></g><g class="tick" opacity="1" transform="translate(322.2938144329897,0)"><line stroke="currentColor" y2="6"></line><text fill="currentColor" y="9" dy="0.71em">19</text></g><g class="tick" opacity="1" transform="translate(337.2422680412372,0)"><line stroke="currentColor" y2="6"></line><text fill="currentColor" y="9" dy="0.71em">20</text></g><g class="tick" opacity="1" transform="translate(352.1907216494846,0)"><line stroke="currentColor" y2="6"></line><text fill="currentColor" y="9" dy="0.71em">21</text></g><g class="tick" opacity="1" transform="translate(367.139175257732,0)"><line stroke="currentColor" y2="6"></line><text fill="currentColor" y="9" dy="0.71em">22</text></g><g class="tick" opacity="1" transform="translate(382.0876288659794,0)"><line stroke="currentColor" y2="6"></line><text fill="currentColor" y="9" dy="0.71em">23</text></g><g class="tick" opacity="1" transform="translate(397.0360824742268,0)"><line stroke="currentColor" y2="6"></line><text fill="currentColor" y="9" dy="0.71em">24</text></g><g class="tick" opacity="1" transform="translate(411.9845360824742,0)"><line stroke="currentColor" y2="6"></line><text fill="currentColor" y="9" dy="0.71em">25</text></g><g class="tick" opacity="1" transform="translate(426.93298969072174,0)"><line stroke="currentColor" y2="6"></line><text fill="currentColor" y="9" dy="0.71em">26</text></g><g class="tick" opacity="1" transform="translate(441.88144329896915,0)"><line stroke="currentColor" y2="6"></line><text fill="currentColor" y="9" dy="0.71em">27</text></g><g class="tick" opacity="1" transform="translate(456.82989690721655,0)"><line stroke="currentColor" y2="6"></line><text fill="currentColor" y="9" dy="0.71em">28</text></g><g class="tick" opacity="1" transform="translate(471.77835051546396,0)"><line stroke="currentColor" y2="6"></line><text fill="currentColor" y="9" dy="0.71em">29</text></g><text x="270" y="30" fill="currentColor" text-anchor="start">Number of direct dependencies (branching factor)</text></g><g transform="translate(45,0)" fill="none" font-size="10" font-family="sans-serif" text-anchor="end"><g class="tick" opacity="1" transform="translate(0,250.5)"><line stroke="currentColor" x2="-6"></line><text fill="currentColor" x="-9" dy="0.32em">0</text></g><g class="tick" opacity="1" transform="translate(0,234.07142857142856)"><line stroke="currentColor" x2="-6"></line><text fill="currentColor" x="-9" dy="0.32em">500</text></g><g class="tick" opacity="1" transform="translate(0,217.64285714285717)"><line stroke="currentColor" x2="-6"></line><text fill="currentColor" x="-9" dy="0.32em">1,000</text></g><g class="tick" opacity="1" transform="translate(0,201.2142857142857)"><line stroke="currentColor" x2="-6"></line><text fill="currentColor" x="-9" dy="0.32em">1,500</text></g><g class="tick" opacity="1" transform="translate(0,184.7857142857143)"><line stroke="currentColor" x2="-6"></line><text fill="currentColor" x="-9" dy="0.32em">2,000</text></g><g class="tick" opacity="1" transform="translate(0,168.35714285714283)"><line stroke="currentColor" x2="-6"></line><text fill="currentColor" x="-9" dy="0.32em">2,500</text></g><g class="tick" opacity="1" transform="translate(0,151.92857142857144)"><line stroke="currentColor" x2="-6"></line><text fill="currentColor" x="-9" dy="0.32em">3,000</text></g><g class="tick" opacity="1" transform="translate(0,135.5)"><line stroke="currentColor" x2="-6"></line><text fill="currentColor" x="-9" dy="0.32em">3,500</text></g><g class="tick" opacity="1" transform="translate(0,119.07142857142858)"><line stroke="currentColor" x2="-6"></line><text fill="currentColor" x="-9" dy="0.32em">4,000</text></g><g class="tick" opacity="1" transform="translate(0,102.64285714285714)"><line stroke="currentColor" x2="-6"></line><text fill="currentColor" x="-9" dy="0.32em">4,500</text></g><g class="tick" opacity="1" transform="translate(0,86.21428571428572)"><line stroke="currentColor" x2="-6"></line><text fill="currentColor" x="-9" dy="0.32em">5,000</text></g><g class="tick" opacity="1" transform="translate(0,69.78571428571429)"><line stroke="currentColor" x2="-6"></line><text fill="currentColor" x="-9" dy="0.32em">5,500</text></g><g class="tick" opacity="1" transform="translate(0,53.357142857142875)"><line stroke="currentColor" x2="-6"></line><text fill="currentColor" x="-9" dy="0.32em">6,000</text></g><g class="tick" opacity="1" transform="translate(0,36.92857142857142)"><line stroke="currentColor" x2="-6"></line><text fill="currentColor" x="-9" dy="0.32em">6,500</text></g><g class="tick" opacity="1" transform="translate(0,20.5)"><line stroke="currentColor" x2="-6"></line><text fill="currentColor" x="-9" dy="0.32em">7,000</text></g><text x="-45" y="10" fill="currentColor" text-anchor="start">Number of packages</text></g></svg>
