<svg viewBox="0,0,500,300" class="chart" xmlns="http://www.w3.org/2000/svg"><g fill="#BA2E17"><circle cx="20" cy="250" r="20"></circle><circle cx="54.61844950135783" cy="250" r="19.8997487421324"></circle><circle cx="74.86894429276117" cy="250" r="11.916375287812984"></circle><circle cx="89.23689900271566" cy="250" r="10.392304845413264"></circle><circle cx="100.38155049864216" cy="250" r="7.54983443527075"></circle><circle cx="109.487393794119" cy="250" r="6.48074069840786"></circle><circle cx="117.18627460163952" cy="250" r="6.244997998398398"></circle><circle cx="123.85534850407349" cy="250" r="4.242640687119285"></circle><circle cx="129.73788858552237" cy="250" r="4.123105625617661"></circle><circle cx="135" cy="250" r="3.7416573867739413"></circle><circle cx="139.76015879319587" cy="250" r="3.4641016151377544"></circle><circle cx="144.10584329547683" cy="250" r="3.1622776601683795"></circle><circle cx="148.10348551528622" cy="250" r="2.449489742783178"></circle><circle cx="151.80472410299734" cy="250" r="3.4641016151377544"></circle><circle cx="155.25049479140333" cy="250" r="2.8284271247461903"></circle><circle cx="158.47379800543132" cy="250" r="2.23606797749979"></circle><circle cx="161.5016259585015" cy="250" r="1.7320508075688772"></circle><circle cx="164.35633808688016" cy="250" r="1.7320508075688772"></circle><circle cx="167.0566641095753" cy="250" r="1.4142135623730951"></circle><circle cx="169.61844950135782" cy="250" r="1"></circle><circle cx="172.0552188944007" cy="250" r="2.8284271247461903"></circle><circle cx="174.37860829455371" cy="250" r="2.449489742783178"></circle><circle cx="176.59870114202317" cy="250" r="1.7320508075688772"></circle><circle cx="180.7631009972843" cy="250" r="2"></circle><circle cx="182.72193501664407" cy="250" r="2.449489742783178"></circle><circle cx="184.6068328782835" cy="250" r="2"></circle><circle cx="186.42317360435518" cy="250" r="1.4142135623730951"></circle><circle cx="188.17576975837994" cy="250" r="1.4142135623730951"></circle><circle cx="189.86894429276117" cy="250" r="1"></circle><circle cx="191.50659479094136" cy="250" r="1.7320508075688772"></circle><circle cx="193.09224750678916" cy="250" r="1.4142135623730951"></circle><circle cx="194.62910308595704" cy="250" r="1.4142135623730951"></circle><circle cx="196.12007545985935" cy="250" r="1.4142135623730951"></circle><circle cx="197.56782510028168" cy="250" r="1.4142135623730951"></circle><circle cx="201.67511361093312" cy="250" r="1"></circle><circle cx="202.9724298080474" cy="250" r="1.4142135623730951"></circle><circle cx="204.23689900271566" cy="250" r="1.4142135623730951"></circle><circle cx="205.47014352276958" cy="250" r="1"></circle><circle cx="206.67366839575854" cy="250" r="2"></circle><circle cx="207.84887239165243" cy="250" r="1.7320508075688772"></circle><circle cx="208.99705779591153" cy="250" r="1"></circle><circle cx="210.1194390841645" cy="250" r="1"></circle><circle cx="211.217150643381" cy="250" r="1"></circle><circle cx="212.2912536626075" cy="250" r="1.4142135623730951"></circle><circle cx="213.3427422981925" cy="250" r="1"></circle><circle cx="214.37254920327905" cy="250" r="1"></circle><circle cx="216.37057025126268" cy="250" r="1"></circle><circle cx="217.34038451800188" cy="250" r="1"></circle><circle cx="218.29172500409072" cy="250" r="1"></circle><circle cx="219.22528237964136" cy="250" r="1"></circle><circle cx="222.79421925973776" cy="250" r="1"></circle><circle cx="225.3129310262382" cy="250" r="1.4142135623730951"></circle><circle cx="226.12504429229918" cy="250" r="1.4142135623730951"></circle><circle cx="229.998602310595" cy="250" r="1"></circle><circle cx="231.46764543478434" cy="250" r="1"></circle><circle cx="232.18627460163955" cy="250" r="1"></circle><circle cx="232.89471010269364" cy="250" r="1"></circle><circle cx="236.9464333948354" cy="250" r="1"></circle><circle cx="239.4757771710447" cy="250" r="1"></circle><circle cx="240.6939806232485" cy="250" r="1"></circle><circle cx="242.46732189301025" cy="250" r="1"></circle><circle cx="245.28976011692572" cy="250" r="1"></circle><circle cx="246.9097031639653" cy="250" r="1"></circle><circle cx="250.49695798500392" cy="250" r="1"></circle><circle cx="253.37913443379907" cy="250" r="1.4142135623730951"></circle><circle cx="257.4126687610956" cy="250" r="1"></circle><circle cx="261.5426126885197" cy="250" r="1"></circle><circle cx="266.0860949361422" cy="250" r="1"></circle><circle cx="266.80472410299734" cy="250" r="1"></circle><circle cx="267.86364430848204" cy="250" r="1"></circle><circle cx="268.55732025702207" cy="250" r="1.4142135623730951"></circle><circle cx="270.2504947914033" cy="250" r="1"></circle><circle cx="273.1606692968519" cy="250" r="1"></circle><circle cx="276.50162595850145" cy="250" r="1"></circle><circle cx="279.07809856268767" cy="250" r="1"></circle><circle cx="290.7224705019511" cy="250" r="1"></circle><circle cx="294.54983002895386" cy="250" r="1"></circle><circle cx="297.1423091830989" cy="250" r="1"></circle><circle cx="297.3362661857714" cy="250" r="1"></circle><circle cx="297.72193501664407" cy="250" r="1"></circle><circle cx="299.79146845055664" cy="250" r="1"></circle><circle cx="301.24448337646373" cy="250" r="1"></circle><circle cx="304.70218665730937" cy="250" r="1"></circle><circle cx="311.5588238049186" cy="250" r="1"></circle><circle cx="337.27486762576694" cy="250" r="1"></circle><circle cx="346.6122008625271" cy="250" r="1"></circle><circle cx="348.38470290179697" cy="250" r="1"></circle><circle cx="361.9628066941345" cy="250" r="1"></circle><circle cx="362.75265761175143" cy="250" r="1"></circle><circle cx="391.8237510972265" cy="250" r="1"></circle><circle cx="20" cy="245.4" r="17.86057109949175"></circle><circle cx="54.61844950135783" cy="245.4" r="9.848857801796104"></circle><circle cx="74.86894429276117" cy="245.4" r="6.164414002968976"></circle><circle cx="89.23689900271566" cy="245.4" r="4.242640687119285"></circle><circle cx="100.38155049864216" cy="245.4" r="4.123105625617661"></circle><circle cx="109.487393794119" cy="245.4" r="2.6457513110645907"></circle><circle cx="117.18627460163952" cy="245.4" r="4.47213595499958"></circle><circle cx="123.85534850407349" cy="245.4" r="1.4142135623730951"></circle><circle cx="129.73788858552237" cy="245.4" r="2"></circle><circle cx="135" cy="245.4" r="1.4142135623730951"></circle><circle cx="144.10584329547683" cy="245.4" r="1"></circle><circle cx="148.10348551528622" cy="245.4" r="1.4142135623730951"></circle><circle cx="151.80472410299734" cy="245.4" r="1"></circle><circle cx="155.25049479140333" cy="245.4" r="1"></circle><circle cx="158.47379800543132" cy="245.4" r="1.7320508075688772"></circle><circle cx="164.35633808688016" cy="245.4" r="1.4142135623730951"></circle><circle cx="169.61844950135782" cy="245.4" r="1"></circle><circle cx="174.37860829455371" cy="245.4" r="1.4142135623730951"></circle><circle cx="176.59870114202317" cy="245.4" r="1"></circle><circle cx="180.7631009972843" cy="245.4" r="1"></circle><circle cx="184.6068328782835" cy="245.4" r="1"></circle><circle cx="186.42317360435518" cy="245.4" r="1"></circle><circle cx="188.17576975837994" cy="245.4" r="1"></circle><circle cx="193.09224750678916" cy="245.4" r="1"></circle><circle cx="196.12007545985935" cy="245.4" r="1"></circle><circle cx="202.9724298080474" cy="245.4" r="1"></circle><circle cx="226.92416318716187" cy="245.4" r="1"></circle><circle cx="229.24755258731486" cy="245.4" r="1"></circle><circle cx="236.29356311229097" cy="245.4" r="1"></circle><circle cx="250.49695798500392" cy="245.4" r="1"></circle><circle cx="259.10584329547686" cy="245.4" r="1"></circle><circle cx="269.91642086741155" cy="245.4" r="1"></circle><circle cx="270.2504947914033" cy="245.4" r="1"></circle><circle cx="313.1353751329656" cy="245.4" r="1"></circle><circle cx="318.73494638143393" cy="245.4" r="1"></circle><circle cx="363.58162046652154" cy="245.4" r="1"></circle><circle cx="368.14520489409693" cy="245.4" r="1"></circle><circle cx="381.1584249493906" cy="245.4" r="1"></circle><circle cx="419.83563727890987" cy="245.4" r="1"></circle><circle cx="423.02977862382465" cy="245.4" r="1"></circle><circle cx="20" cy="240.8" r="20"></circle><circle cx="54.61844950135783" cy="240.8" r="11.958260743101398"></circle><circle cx="74.86894429276117" cy="240.8" r="7.745966692414834"></circle><circle cx="89.23689900271566" cy="240.8" r="6"></circle><circle cx="100.38155049864216" cy="240.8" r="5.0990195135927845"></circle><circle cx="109.487393794119" cy="240.8" r="4.47213595499958"></circle><circle cx="117.18627460163952" cy="240.8" r="3.7416573867739413"></circle><circle cx="123.85534850407349" cy="240.8" r="2.8284271247461903"></circle><circle cx="129.73788858552237" cy="240.8" r="2.23606797749979"></circle><circle cx="135" cy="240.8" r="2"></circle><circle cx="139.76015879319587" cy="240.8" r="1.4142135623730951"></circle><circle cx="144.10584329547683" cy="240.8" r="1.7320508075688772"></circle><circle cx="148.10348551528622" cy="240.8" r="1.4142135623730951"></circle><circle cx="151.80472410299734" cy="240.8" r="1.7320508075688772"></circle><circle cx="155.25049479140333" cy="240.8" r="1.7320508075688772"></circle><circle cx="158.47379800543132" cy="240.8" r="1.7320508075688772"></circle><circle cx="161.5016259585015" cy="240.8" r="1.4142135623730951"></circle><circle cx="164.35633808688016" cy="240.8" r="2"></circle><circle cx="167.0566641095753" cy="240.8" r="1.4142135623730951"></circle><circle cx="172.0552188944007" cy="240.8" r="1"></circle><circle cx="174.37860829455371" cy="240.8" r="1"></circle><circle cx="176.59870114202317" cy="240.8" r="1.4142135623730951"></circle><circle cx="178.72429279683467" cy="240.8" r="1.4142135623730951"></circle><circle cx="180.7631009972843" cy="240.8" r="1"></circle><circle cx="182.72193501664407" cy="240.8" r="1"></circle><circle cx="184.6068328782835" cy="240.8" r="1"></circle><circle cx="186.42317360435518" cy="240.8" r="1.4142135623730951"></circle><circle cx="188.17576975837994" cy="240.8" r="1.4142135623730951"></circle><circle cx="189.86894429276117" cy="240.8" r="1"></circle><circle cx="191.50659479094136" cy="240.8" r="1"></circle><circle cx="193.09224750678916" cy="240.8" r="1"></circle><circle cx="194.62910308595704" cy="240.8" r="1"></circle><circle cx="196.12007545985935" cy="240.8" r="1.4142135623730951"></circle><circle cx="198.974787588238" cy="240.8" r="1"></circle><circle cx="202.9724298080474" cy="240.8" r="1"></circle><circle cx="204.23689900271566" cy="240.8" r="1.4142135623730951"></circle><circle cx="205.47014352276958" cy="240.8" r="1"></circle><circle cx="208.99705779591153" cy="240.8" r="1"></circle><circle cx="210.1194390841645" cy="240.8" r="1"></circle><circle cx="211.217150643381" cy="240.8" r="1"></circle><circle cx="214.37254920327905" cy="240.8" r="1"></circle><circle cx="219.22528237964136" cy="240.8" r="1"></circle><circle cx="226.92416318716187" cy="240.8" r="1"></circle><circle cx="228.48503601392835" cy="240.8" r="1"></circle><circle cx="231.46764543478434" cy="240.8" r="1"></circle><circle cx="232.89471010269364" cy="240.8" r="1"></circle><circle cx="236.9464333948354" cy="240.8" r="1"></circle><circle cx="243.6155072972694" cy="240.8" r="1.4142135623730951"></circle><circle cx="248.47874944061815" cy="240.8" r="1"></circle><circle cx="249.4980473787182" cy="240.8" r="1"></circle><circle cx="251.47628084109476" cy="240.8" r="1.4142135623730951"></circle><circle cx="252.91017450544854" cy="240.8" r="1.4142135623730951"></circle><circle cx="261.1446514959265" cy="240.8" r="1"></circle><circle cx="272.8455649997586" cy="240.8" r="1"></circle><circle cx="282.5796413009082" cy="240.8" r="1"></circle><circle cx="287.29248235923467" cy="240.8" r="1"></circle><circle cx="309.020024007813" cy="240.8" r="1"></circle><circle cx="323.88341982784397" cy="240.8" r="1"></circle><circle cx="394.2452282180978" cy="240.8" r="1"></circle><circle cx="20" cy="236.2" r="14.2828568570857"></circle><circle cx="54.61844950135783" cy="236.2" r="7.280109889280518"></circle><circle cx="74.86894429276117" cy="236.2" r="5"></circle><circle cx="89.23689900271566" cy="236.2" r="4.358898943540674"></circle><circle cx="100.38155049864216" cy="236.2" r="3.7416573867739413"></circle><circle cx="109.487393794119" cy="236.2" r="2.6457513110645907"></circle><circle cx="117.18627460163952" cy="236.2" r="1.7320508075688772"></circle><circle cx="123.85534850407349" cy="236.2" r="3"></circle><circle cx="129.73788858552237" cy="236.2" r="2.23606797749979"></circle><circle cx="135" cy="236.2" r="1.7320508075688772"></circle><circle cx="139.76015879319587" cy="236.2" r="2.449489742783178"></circle><circle cx="144.10584329547683" cy="236.2" r="1.4142135623730951"></circle><circle cx="148.10348551528622" cy="236.2" r="1.4142135623730951"></circle><circle cx="151.80472410299734" cy="236.2" r="1"></circle><circle cx="155.25049479140333" cy="236.2" r="1.4142135623730951"></circle><circle cx="158.47379800543132" cy="236.2" r="1.4142135623730951"></circle><circle cx="161.5016259585015" cy="236.2" r="1.4142135623730951"></circle><circle cx="164.35633808688016" cy="236.2" r="1.4142135623730951"></circle><circle cx="167.0566641095753" cy="236.2" r="1"></circle><circle cx="169.61844950135782" cy="236.2" r="1"></circle><circle cx="176.59870114202317" cy="236.2" r="1"></circle><circle cx="178.72429279683467" cy="236.2" r="1"></circle><circle cx="180.7631009972843" cy="236.2" r="1"></circle><circle cx="182.72193501664407" cy="236.2" r="1"></circle><circle cx="186.42317360435518" cy="236.2" r="1"></circle><circle cx="189.86894429276117" cy="236.2" r="1.4142135623730951"></circle><circle cx="200.3431982677044" cy="236.2" r="1.4142135623730951"></circle><circle cx="201.67511361093312" cy="236.2" r="1"></circle><circle cx="204.23689900271566" cy="236.2" r="1"></circle><circle cx="205.47014352276958" cy="236.2" r="1.4142135623730951"></circle><circle cx="211.217150643381" cy="236.2" r="1"></circle><circle cx="232.18627460163955" cy="236.2" r="1"></circle><circle cx="242.46732189301025" cy="236.2" r="1"></circle><circle cx="244.73788858552234" cy="236.2" r="1"></circle><circle cx="250.98901975262046" cy="236.2" r="1"></circle><circle cx="260.3390878155307" cy="236.2" r="1"></circle><circle cx="262.7178166844136" cy="236.2" r="1"></circle><circle cx="263.48619900041285" cy="236.2" r="1"></circle><circle cx="269.91642086741155" cy="236.2" r="1"></circle><circle cx="291.3810804690871" cy="236.2" r="1"></circle><circle cx="306.98759881784156" cy="236.2" r="1"></circle><circle cx="323.99705779591153" cy="236.2" r="1"></circle><circle cx="394.5778190060245" cy="236.2" r="1"></circle><circle cx="20" cy="231.6" r="20"></circle><circle cx="54.61844950135783" cy="231.6" r="9.433981132056603"></circle><circle cx="74.86894429276117" cy="231.6" r="6"></circle><circle cx="89.23689900271566" cy="231.6" r="3.605551275463989"></circle><circle cx="100.38155049864216" cy="231.6" r="3.872983346207417"></circle><circle cx="109.487393794119" cy="231.6" r="2.6457513110645907"></circle><circle cx="117.18627460163952" cy="231.6" r="2.449489742783178"></circle><circle cx="123.85534850407349" cy="231.6" r="2.23606797749979"></circle><circle cx="129.73788858552237" cy="231.6" r="1.4142135623730951"></circle><circle cx="135" cy="231.6" r="1.4142135623730951"></circle><circle cx="139.76015879319587" cy="231.6" r="2.449489742783178"></circle><circle cx="144.10584329547683" cy="231.6" r="2"></circle><circle cx="148.10348551528622" cy="231.6" r="2"></circle><circle cx="151.80472410299734" cy="231.6" r="2.23606797749979"></circle><circle cx="161.5016259585015" cy="231.6" r="1.4142135623730951"></circle><circle cx="169.61844950135782" cy="231.6" r="1"></circle><circle cx="174.37860829455371" cy="231.6" r="1.4142135623730951"></circle><circle cx="176.59870114202317" cy="231.6" r="1"></circle><circle cx="184.6068328782835" cy="231.6" r="1"></circle><circle cx="188.17576975837994" cy="231.6" r="1"></circle><circle cx="193.09224750678916" cy="231.6" r="1"></circle><circle cx="196.12007545985935" cy="231.6" r="1"></circle><circle cx="204.23689900271566" cy="231.6" r="1"></circle><circle cx="216.37057025126268" cy="231.6" r="1"></circle><circle cx="217.34038451800188" cy="231.6" r="1"></circle><circle cx="218.29172500409072" cy="231.6" r="1"></circle><circle cx="237.5908793094052" cy="231.6" r="1"></circle><circle cx="238.22711549840074" cy="231.6" r="1"></circle><circle cx="247.43821460821746" cy="231.6" r="1"></circle><circle cx="251.47628084109476" cy="231.6" r="1"></circle><circle cx="265.72286522298674" cy="231.6" r="1"></circle><circle cx="274.0942266724025" cy="231.6" r="1"></circle><circle cx="303.51902791656806" cy="231.6" r="1"></circle><circle cx="323.6553652515985" cy="231.6" r="1"></circle><circle cx="324.1104377888014" cy="231.6" r="1"></circle><circle cx="336.6620517726842" cy="231.6" r="1"></circle><circle cx="406.2500514509881" cy="231.6" r="1"></circle><circle cx="429.0441059413764" cy="231.6" r="1"></circle><circle cx="20" cy="227" r="14.2828568570857"></circle><circle cx="54.61844950135783" cy="227" r="7.483314773547883"></circle><circle cx="74.86894429276117" cy="227" r="4.47213595499958"></circle><circle cx="89.23689900271566" cy="227" r="3.7416573867739413"></circle><circle cx="100.38155049864216" cy="227" r="2"></circle><circle cx="109.487393794119" cy="227" r="2.23606797749979"></circle><circle cx="117.18627460163952" cy="227" r="1.7320508075688772"></circle><circle cx="123.85534850407349" cy="227" r="1.4142135623730951"></circle><circle cx="129.73788858552237" cy="227" r="1.4142135623730951"></circle><circle cx="135" cy="227" r="1.7320508075688772"></circle><circle cx="139.76015879319587" cy="227" r="1"></circle><circle cx="144.10584329547683" cy="227" r="2"></circle><circle cx="151.80472410299734" cy="227" r="1"></circle><circle cx="155.25049479140333" cy="227" r="1"></circle><circle cx="161.5016259585015" cy="227" r="1"></circle><circle cx="167.0566641095753" cy="227" r="1.7320508075688772"></circle><circle cx="169.61844950135782" cy="227" r="1"></circle><circle cx="172.0552188944007" cy="227" r="1.7320508075688772"></circle><circle cx="174.37860829455371" cy="227" r="1.4142135623730951"></circle><circle cx="176.59870114202317" cy="227" r="1"></circle><circle cx="178.72429279683467" cy="227" r="1"></circle><circle cx="180.7631009972843" cy="227" r="1"></circle><circle cx="182.72193501664407" cy="227" r="1"></circle><circle cx="186.42317360435518" cy="227" r="1"></circle><circle cx="197.56782510028168" cy="227" r="1"></circle><circle cx="198.974787588238" cy="227" r="1"></circle><circle cx="211.217150643381" cy="227" r="1"></circle><circle cx="214.37254920327905" cy="227" r="1"></circle><circle cx="232.18627460163955" cy="227" r="1"></circle><circle cx="240.08859302412742" cy="227" r="1"></circle><circle cx="246.9097031639653" cy="227" r="1"></circle><circle cx="269.91642086741155" cy="227" r="1"></circle><circle cx="272.2093288107631" cy="227" r="1"></circle><circle cx="291.16250740505217" cy="227" r="1"></circle><circle cx="293.30635006149885" cy="227" r="1"></circle><circle cx="295.9624779703193" cy="227" r="1"></circle><circle cx="303.003251917003" cy="227" r="1"></circle><circle cx="356.4108905224596" cy="227" r="1"></circle><circle cx="412.4522798626031" cy="227" r="1"></circle><circle cx="468.9987311032869" cy="227" r="1"></circle><circle cx="20" cy="222.4" r="14.352700094407323"></circle><circle cx="54.61844950135783" cy="222.4" r="8.831760866327848"></circle><circle cx="74.86894429276117" cy="222.4" r="6.4031242374328485"></circle><circle cx="89.23689900271566" cy="222.4" r="5.196152422706632"></circle><circle cx="100.38155049864216" cy="222.4" r="4"></circle><circle cx="109.487393794119" cy="222.4" r="3.7416573867739413"></circle><circle cx="117.18627460163952" cy="222.4" r="3"></circle><circle cx="123.85534850407349" cy="222.4" r="3.605551275463989"></circle><circle cx="129.73788858552237" cy="222.4" r="2.449489742783178"></circle><circle cx="135" cy="222.4" r="3"></circle><circle cx="139.76015879319587" cy="222.4" r="2.6457513110645907"></circle><circle cx="144.10584329547683" cy="222.4" r="1.7320508075688772"></circle><circle cx="148.10348551528622" cy="222.4" r="1.7320508075688772"></circle><circle cx="151.80472410299734" cy="222.4" r="1.4142135623730951"></circle><circle cx="155.25049479140333" cy="222.4" r="1.7320508075688772"></circle><circle cx="158.47379800543132" cy="222.4" r="1.4142135623730951"></circle><circle cx="161.5016259585015" cy="222.4" r="1.4142135623730951"></circle><circle cx="164.35633808688016" cy="222.4" r="2"></circle><circle cx="167.0566641095753" cy="222.4" r="2.449489742783178"></circle><circle cx="169.61844950135782" cy="222.4" r="1"></circle><circle cx="172.0552188944007" cy="222.4" r="1.4142135623730951"></circle><circle cx="174.37860829455371" cy="222.4" r="1"></circle><circle cx="176.59870114202317" cy="222.4" r="1.4142135623730951"></circle><circle cx="178.72429279683467" cy="222.4" r="1"></circle><circle cx="180.7631009972843" cy="222.4" r="1.4142135623730951"></circle><circle cx="182.72193501664407" cy="222.4" r="1.4142135623730951"></circle><circle cx="184.6068328782835" cy="222.4" r="1.4142135623730951"></circle><circle cx="188.17576975837994" cy="222.4" r="1"></circle><circle cx="189.86894429276117" cy="222.4" r="1.4142135623730951"></circle><circle cx="193.09224750678916" cy="222.4" r="1"></circle><circle cx="197.56782510028168" cy="222.4" r="1"></circle><circle cx="202.9724298080474" cy="222.4" r="1"></circle><circle cx="204.23689900271566" cy="222.4" r="1"></circle><circle cx="205.47014352276958" cy="222.4" r="1"></circle><circle cx="211.217150643381" cy="222.4" r="1"></circle><circle cx="212.2912536626075" cy="222.4" r="1.4142135623730951"></circle><circle cx="218.29172500409072" cy="222.4" r="1.4142135623730951"></circle><circle cx="223.6479813388466" cy="222.4" r="1"></circle><circle cx="226.92416318716187" cy="222.4" r="1"></circle><circle cx="232.18627460163955" cy="222.4" r="1"></circle><circle cx="232.89471010269364" cy="222.4" r="1.4142135623730951"></circle><circle cx="240.08859302412742" cy="222.4" r="1"></circle><circle cx="242.46732189301025" cy="222.4" r="1"></circle><circle cx="244.73788858552234" cy="222.4" r="1"></circle><circle cx="246.37553908370253" cy="222.4" r="1"></circle><circle cx="246.9097031639653" cy="222.4" r="1"></circle><circle cx="250" cy="222.4" r="1"></circle><circle cx="257.8413741008086" cy="222.4" r="1"></circle><circle cx="273.7849757436627" cy="222.4" r="1"></circle><circle cx="287.0552188944007" cy="222.4" r="1"></circle><circle cx="289.1510732066136" cy="222.4" r="1"></circle><circle cx="294.54983002895386" cy="222.4" r="1"></circle><circle cx="295.36194329501484" cy="222.4" r="1"></circle><circle cx="308.0922475067892" cy="222.4" r="1"></circle><circle cx="311.5588238049186" cy="222.4" r="1"></circle><circle cx="314.93659738899026" cy="222.4" r="1"></circle><circle cx="329.16827953031174" cy="222.4" r="1"></circle><circle cx="333.667244558284" cy="222.4" r="1"></circle><circle cx="375.37967608710136" cy="222.4" r="1"></circle><circle cx="20" cy="217.8" r="14.594519519326424"></circle><circle cx="54.61844950135783" cy="217.8" r="7.937253933193772"></circle><circle cx="74.86894429276117" cy="217.8" r="5.385164807134504"></circle><circle cx="89.23689900271566" cy="217.8" r="4.69041575982343"></circle><circle cx="100.38155049864216" cy="217.8" r="3.1622776601683795"></circle><circle cx="109.487393794119" cy="217.8" r="3.7416573867739413"></circle><circle cx="117.18627460163952" cy="217.8" r="3.605551275463989"></circle><circle cx="123.85534850407349" cy="217.8" r="2"></circle><circle cx="129.73788858552237" cy="217.8" r="2"></circle><circle cx="135" cy="217.8" r="1"></circle><circle cx="139.76015879319587" cy="217.8" r="2"></circle><circle cx="144.10584329547683" cy="217.8" r="1.4142135623730951"></circle><circle cx="148.10348551528622" cy="217.8" r="2.449489742783178"></circle><circle cx="155.25049479140333" cy="217.8" r="1"></circle><circle cx="158.47379800543132" cy="217.8" r="1"></circle><circle cx="161.5016259585015" cy="217.8" r="1.7320508075688772"></circle><circle cx="164.35633808688016" cy="217.8" r="1.4142135623730951"></circle><circle cx="167.0566641095753" cy="217.8" r="1.4142135623730951"></circle><circle cx="169.61844950135782" cy="217.8" r="1"></circle><circle cx="172.0552188944007" cy="217.8" r="1"></circle><circle cx="174.37860829455371" cy="217.8" r="1"></circle><circle cx="176.59870114202317" cy="217.8" r="1"></circle><circle cx="178.72429279683467" cy="217.8" r="1"></circle><circle cx="182.72193501664407" cy="217.8" r="1"></circle><circle cx="188.17576975837994" cy="217.8" r="1.4142135623730951"></circle><circle cx="189.86894429276117" cy="217.8" r="1"></circle><circle cx="193.09224750678916" cy="217.8" r="1"></circle><circle cx="200.3431982677044" cy="217.8" r="1"></circle><circle cx="205.47014352276958" cy="217.8" r="1"></circle><circle cx="208.99705779591153" cy="217.8" r="1"></circle><circle cx="217.34038451800188" cy="217.8" r="1"></circle><circle cx="221.92560840233648" cy="217.8" r="1"></circle><circle cx="226.92416318716187" cy="217.8" r="1"></circle><circle cx="229.24755258731486" cy="217.8" r="1"></circle><circle cx="233.59323708959585" cy="217.8" r="1"></circle><circle cx="236.29356311229097" cy="217.8" r="1"></circle><circle cx="248.99099870463692" cy="217.8" r="1.4142135623730951"></circle><circle cx="252.43676939304285" cy="217.8" r="1.4142135623730951"></circle><circle cx="283.097198941976" cy="217.8" r="1"></circle><circle cx="285.85169402141173" cy="217.8" r="1"></circle><circle cx="297.1423091830989" cy="217.8" r="1"></circle><circle cx="300.7045444375" cy="217.8" r="1"></circle><circle cx="326.86438041934997" cy="217.8" r="1"></circle><circle cx="330.4813384747332" cy="217.8" r="1"></circle><circle cx="340.23098865278064" cy="217.8" r="1"></circle><circle cx="358.33092609756596" cy="217.8" r="1"></circle><circle cx="20" cy="213.2" r="13.114877048604"></circle><circle cx="54.61844950135783" cy="213.2" r="7.14142842854285"></circle><circle cx="74.86894429276117" cy="213.2" r="4.358898943540674"></circle><circle cx="89.23689900271566" cy="213.2" r="3.605551275463989"></circle><circle cx="100.38155049864216" cy="213.2" r="3"></circle><circle cx="109.487393794119" cy="213.2" r="2.23606797749979"></circle><circle cx="117.18627460163952" cy="213.2" r="3.872983346207417"></circle><circle cx="123.85534850407349" cy="213.2" r="2.449489742783178"></circle><circle cx="129.73788858552237" cy="213.2" r="3"></circle><circle cx="135" cy="213.2" r="1"></circle><circle cx="139.76015879319587" cy="213.2" r="1"></circle><circle cx="144.10584329547683" cy="213.2" r="1.7320508075688772"></circle><circle cx="148.10348551528622" cy="213.2" r="1"></circle><circle cx="151.80472410299734" cy="213.2" r="1.4142135623730951"></circle><circle cx="155.25049479140333" cy="213.2" r="1.4142135623730951"></circle><circle cx="158.47379800543132" cy="213.2" r="1.4142135623730951"></circle><circle cx="161.5016259585015" cy="213.2" r="1"></circle><circle cx="167.0566641095753" cy="213.2" r="1"></circle><circle cx="169.61844950135782" cy="213.2" r="1.4142135623730951"></circle><circle cx="172.0552188944007" cy="213.2" r="1"></circle><circle cx="174.37860829455371" cy="213.2" r="1.4142135623730951"></circle><circle cx="176.59870114202317" cy="213.2" r="2"></circle><circle cx="178.72429279683467" cy="213.2" r="1.4142135623730951"></circle><circle cx="182.72193501664407" cy="213.2" r="1.4142135623730951"></circle><circle cx="193.09224750678916" cy="213.2" r="1.4142135623730951"></circle><circle cx="201.67511361093312" cy="213.2" r="1.4142135623730951"></circle><circle cx="210.1194390841645" cy="213.2" r="1"></circle><circle cx="212.2912536626075" cy="213.2" r="1"></circle><circle cx="216.37057025126268" cy="213.2" r="1"></circle><circle cx="224.487393794119" cy="213.2" r="1"></circle><circle cx="240.08859302412742" cy="213.2" r="1"></circle><circle cx="243.6155072972694" cy="213.2" r="1"></circle><circle cx="251.47628084109476" cy="213.2" r="1"></circle><circle cx="260.7434937936571" cy="213.2" r="1"></circle><circle cx="263.8660020886727" cy="213.2" r="1"></circle><circle cx="267.86364430848204" cy="213.2" r="1"></circle><circle cx="279.63303610995627" cy="213.2" r="1"></circle><circle cx="299.60683287828357" cy="213.2" r="1"></circle><circle cx="328.34274229819255" cy="213.2" r="1"></circle><circle cx="343.2539922769005" cy="213.2" r="1"></circle><circle cx="444.9300207644488" cy="213.2" r="1"></circle><circle cx="20" cy="208.60000000000002" r="15.297058540778355"></circle><circle cx="54.61844950135783" cy="208.60000000000002" r="9.9498743710662"></circle><circle cx="74.86894429276117" cy="208.60000000000002" r="5.744562646538029"></circle><circle cx="89.23689900271566" cy="208.60000000000002" r="4.123105625617661"></circle><circle cx="100.38155049864216" cy="208.60000000000002" r="3.605551275463989"></circle><circle cx="109.487393794119" cy="208.60000000000002" r="2.8284271247461903"></circle><circle cx="117.18627460163952" cy="208.60000000000002" r="3.1622776601683795"></circle><circle cx="123.85534850407349" cy="208.60000000000002" r="2.449489742783178"></circle><circle cx="129.73788858552237" cy="208.60000000000002" r="2"></circle><circle cx="135" cy="208.60000000000002" r="2"></circle><circle cx="139.76015879319587" cy="208.60000000000002" r="1.7320508075688772"></circle><circle cx="144.10584329547683" cy="208.60000000000002" r="1"></circle><circle cx="148.10348551528622" cy="208.60000000000002" r="1"></circle><circle cx="151.80472410299734" cy="208.60000000000002" r="2"></circle><circle cx="155.25049479140333" cy="208.60000000000002" r="1.4142135623730951"></circle><circle cx="158.47379800543132" cy="208.60000000000002" r="1"></circle><circle cx="167.0566641095753" cy="208.60000000000002" r="1"></circle><circle cx="169.61844950135782" cy="208.60000000000002" r="1.4142135623730951"></circle><circle cx="172.0552188944007" cy="208.60000000000002" r="1.4142135623730951"></circle><circle cx="176.59870114202317" cy="208.60000000000002" r="1"></circle><circle cx="182.72193501664407" cy="208.60000000000002" r="1.4142135623730951"></circle><circle cx="184.6068328782835" cy="208.60000000000002" r="1"></circle><circle cx="188.17576975837994" cy="208.60000000000002" r="1"></circle><circle cx="189.86894429276117" cy="208.60000000000002" r="1"></circle><circle cx="193.09224750678916" cy="208.60000000000002" r="1.4142135623730951"></circle><circle cx="204.23689900271566" cy="208.60000000000002" r="1"></circle><circle cx="217.34038451800188" cy="208.60000000000002" r="1.4142135623730951"></circle><circle cx="220.14170929183805" cy="208.60000000000002" r="1"></circle><circle cx="227.71069700814698" cy="208.60000000000002" r="1"></circle><circle cx="229.998602310595" cy="208.60000000000002" r="1"></circle><circle cx="238.85534850407348" cy="208.60000000000002" r="1"></circle><circle cx="257.8413741008086" cy="208.60000000000002" r="1.4142135623730951"></circle><circle cx="264.6170518119528" cy="208.60000000000002" r="1"></circle><circle cx="265.72286522298674" cy="208.60000000000002" r="1"></circle><circle cx="296.358859935219" cy="208.60000000000002" r="1"></circle><circle cx="297.5294728693439" cy="208.60000000000002" r="1"></circle><circle cx="311.9937513611693" cy="208.60000000000002" r="1"></circle><circle cx="324.8969716097865" cy="208.60000000000002" r="1"></circle><circle cx="369.2582061719141" cy="208.60000000000002" r="1"></circle><circle cx="371.1481995664273" cy="208.60000000000002" r="1"></circle><circle cx="423.1390479463395" cy="208.60000000000002" r="1"></circle><circle cx="445.37156072654784" cy="208.60000000000002" r="1"></circle><circle cx="20" cy="204" r="16.217274740226856"></circle><circle cx="54.61844950135783" cy="204" r="10.198039027185569"></circle><circle cx="74.86894429276117" cy="204" r="7.54983443527075"></circle><circle cx="89.23689900271566" cy="204" r="5"></circle><circle cx="100.38155049864216" cy="204" r="3.872983346207417"></circle><circle cx="109.487393794119" cy="204" r="3"></circle><circle cx="117.18627460163952" cy="204" r="2.6457513110645907"></circle><circle cx="123.85534850407349" cy="204" r="2.6457513110645907"></circle><circle cx="129.73788858552237" cy="204" r="1.4142135623730951"></circle><circle cx="135" cy="204" r="1.4142135623730951"></circle><circle cx="139.76015879319587" cy="204" r="1"></circle><circle cx="144.10584329547683" cy="204" r="1"></circle><circle cx="148.10348551528622" cy="204" r="1.7320508075688772"></circle><circle cx="151.80472410299734" cy="204" r="1.4142135623730951"></circle><circle cx="155.25049479140333" cy="204" r="1.7320508075688772"></circle><circle cx="158.47379800543132" cy="204" r="1"></circle><circle cx="164.35633808688016" cy="204" r="1.7320508075688772"></circle><circle cx="167.0566641095753" cy="204" r="1"></circle><circle cx="178.72429279683467" cy="204" r="1"></circle><circle cx="182.72193501664407" cy="204" r="1.7320508075688772"></circle><circle cx="184.6068328782835" cy="204" r="1.4142135623730951"></circle><circle cx="186.42317360435518" cy="204" r="1"></circle><circle cx="191.50659479094136" cy="204" r="1"></circle><circle cx="193.09224750678916" cy="204" r="1.4142135623730951"></circle><circle cx="204.23689900271566" cy="204" r="1.4142135623730951"></circle><circle cx="208.99705779591153" cy="204" r="1.4142135623730951"></circle><circle cx="210.1194390841645" cy="204" r="1"></circle><circle cx="212.2912536626075" cy="204" r="1"></circle><circle cx="213.3427422981925" cy="204" r="1"></circle><circle cx="214.37254920327905" cy="204" r="1"></circle><circle cx="217.34038451800188" cy="204" r="1"></circle><circle cx="220.14170929183805" cy="204" r="1"></circle><circle cx="224.487393794119" cy="204" r="1"></circle><circle cx="241.29211789711636" cy="204" r="1"></circle><circle cx="242.46732189301025" cy="204" r="1"></circle><circle cx="268.55732025702207" cy="204" r="1"></circle><circle cx="277.3753018598115" cy="204" r="1"></circle><circle cx="283.097198941976" cy="204" r="1"></circle><circle cx="284.11649688007606" cy="204" r="1"></circle><circle cx="315.74651565799905" cy="204" r="1"></circle><circle cx="379.80306269891906" cy="204" r="1"></circle><circle cx="20" cy="199.4" r="12.12435565298214"></circle><circle cx="54.61844950135783" cy="199.4" r="7"></circle><circle cx="74.86894429276117" cy="199.4" r="4.795831523312719"></circle><circle cx="89.23689900271566" cy="199.4" r="4.358898943540674"></circle><circle cx="100.38155049864216" cy="199.4" r="1"></circle><circle cx="109.487393794119" cy="199.4" r="2.6457513110645907"></circle><circle cx="117.18627460163952" cy="199.4" r="1.7320508075688772"></circle><circle cx="123.85534850407349" cy="199.4" r="1"></circle><circle cx="129.73788858552237" cy="199.4" r="1.7320508075688772"></circle><circle cx="135" cy="199.4" r="1.4142135623730951"></circle><circle cx="144.10584329547683" cy="199.4" r="1.4142135623730951"></circle><circle cx="148.10348551528622" cy="199.4" r="1.4142135623730951"></circle><circle cx="151.80472410299734" cy="199.4" r="1"></circle><circle cx="161.5016259585015" cy="199.4" r="1"></circle><circle cx="164.35633808688016" cy="199.4" r="1"></circle><circle cx="167.0566641095753" cy="199.4" r="1.4142135623730951"></circle><circle cx="174.37860829455371" cy="199.4" r="1"></circle><circle cx="178.72429279683467" cy="199.4" r="1"></circle><circle cx="180.7631009972843" cy="199.4" r="1"></circle><circle cx="184.6068328782835" cy="199.4" r="1"></circle><circle cx="204.23689900271566" cy="199.4" r="1"></circle><circle cx="220.14170929183805" cy="199.4" r="1"></circle><circle cx="222.79421925973776" cy="199.4" r="1"></circle><circle cx="232.89471010269364" cy="199.4" r="1"></circle><circle cx="382.3369905839355" cy="199.4" r="1"></circle><circle cx="20" cy="194.8" r="7.874007874011811"></circle><circle cx="54.61844950135783" cy="194.8" r="4.242640687119285"></circle><circle cx="74.86894429276117" cy="194.8" r="4.795831523312719"></circle><circle cx="89.23689900271566" cy="194.8" r="3.605551275463989"></circle><circle cx="100.38155049864216" cy="194.8" r="1"></circle><circle cx="109.487393794119" cy="194.8" r="1.7320508075688772"></circle><circle cx="117.18627460163952" cy="194.8" r="2"></circle><circle cx="123.85534850407349" cy="194.8" r="2"></circle><circle cx="129.73788858552237" cy="194.8" r="1.7320508075688772"></circle><circle cx="139.76015879319587" cy="194.8" r="1"></circle><circle cx="144.10584329547683" cy="194.8" r="1.4142135623730951"></circle><circle cx="148.10348551528622" cy="194.8" r="1"></circle><circle cx="161.5016259585015" cy="194.8" r="1.4142135623730951"></circle><circle cx="167.0566641095753" cy="194.8" r="1"></circle><circle cx="174.37860829455371" cy="194.8" r="1"></circle><circle cx="176.59870114202317" cy="194.8" r="1"></circle><circle cx="184.6068328782835" cy="194.8" r="1"></circle><circle cx="194.62910308595704" cy="194.8" r="1"></circle><circle cx="196.12007545985935" cy="194.8" r="1"></circle><circle cx="206.67366839575854" cy="194.8" r="1"></circle><circle cx="219.22528237964136" cy="194.8" r="1"></circle><circle cx="233.59323708959585" cy="194.8" r="1"></circle><circle cx="248.99099870463692" cy="194.8" r="1"></circle><circle cx="251.95883401935973" cy="194.8" r="1"></circle><circle cx="257.8413741008086" cy="194.8" r="1"></circle><circle cx="264.9883833769257" cy="194.8" r="1"></circle><circle cx="304.53487036876936" cy="194.8" r="1"></circle><circle cx="306.0209131798764" cy="194.8" r="1"></circle><circle cx="20" cy="190.2" r="6.557438524302"></circle><circle cx="54.61844950135783" cy="190.2" r="4.358898943540674"></circle><circle cx="74.86894429276117" cy="190.2" r="3.1622776601683795"></circle><circle cx="89.23689900271566" cy="190.2" r="2.449489742783178"></circle><circle cx="109.487393794119" cy="190.2" r="1"></circle><circle cx="123.85534850407349" cy="190.2" r="1"></circle><circle cx="129.73788858552237" cy="190.2" r="1"></circle><circle cx="139.76015879319587" cy="190.2" r="1.7320508075688772"></circle><circle cx="144.10584329547683" cy="190.2" r="1.4142135623730951"></circle><circle cx="148.10348551528622" cy="190.2" r="1.4142135623730951"></circle><circle cx="151.80472410299734" cy="190.2" r="1"></circle><circle cx="172.0552188944007" cy="190.2" r="1"></circle><circle cx="174.37860829455371" cy="190.2" r="1"></circle><circle cx="184.6068328782835" cy="190.2" r="1"></circle><circle cx="188.17576975837994" cy="190.2" r="1"></circle><circle cx="189.86894429276117" cy="190.2" r="1"></circle><circle cx="215.38155049864213" cy="190.2" r="1"></circle><circle cx="219.22528237964136" cy="190.2" r="1"></circle><circle cx="224.487393794119" cy="190.2" r="1"></circle><circle cx="226.12504429229918" cy="190.2" r="1"></circle><circle cx="229.24755258731486" cy="190.2" r="1"></circle><circle cx="229.998602310595" cy="190.2" r="1"></circle><circle cx="265.356974462575" cy="190.2" r="1"></circle><circle cx="272.2093288107631" cy="190.2" r="1"></circle><circle cx="275.6123941819721" cy="190.2" r="1"></circle><circle cx="20" cy="185.6" r="9"></circle><circle cx="54.61844950135783" cy="185.6" r="4.123105625617661"></circle><circle cx="74.86894429276117" cy="185.6" r="2.6457513110645907"></circle><circle cx="89.23689900271566" cy="185.6" r="1.4142135623730951"></circle><circle cx="100.38155049864216" cy="185.6" r="2"></circle><circle cx="109.487393794119" cy="185.6" r="1.4142135623730951"></circle><circle cx="117.18627460163952" cy="185.6" r="1.4142135623730951"></circle><circle cx="123.85534850407349" cy="185.6" r="1.7320508075688772"></circle><circle cx="129.73788858552237" cy="185.6" r="1.4142135623730951"></circle><circle cx="155.25049479140333" cy="185.6" r="1"></circle><circle cx="172.0552188944007" cy="185.6" r="1.4142135623730951"></circle><circle cx="178.72429279683467" cy="185.6" r="1"></circle><circle cx="217.34038451800188" cy="185.6" r="1"></circle><circle cx="280.4540496460967" cy="185.6" r="1"></circle><circle cx="383.4193536902289" cy="185.6" r="1"></circle><circle cx="20" cy="181" r="6.782329983125268"></circle><circle cx="54.61844950135783" cy="181" r="4"></circle><circle cx="74.86894429276117" cy="181" r="2.8284271247461903"></circle><circle cx="89.23689900271566" cy="181" r="2"></circle><circle cx="100.38155049864216" cy="181" r="2.23606797749979"></circle><circle cx="109.487393794119" cy="181" r="1.4142135623730951"></circle><circle cx="117.18627460163952" cy="181" r="1"></circle><circle cx="123.85534850407349" cy="181" r="1.4142135623730951"></circle><circle cx="129.73788858552237" cy="181" r="1"></circle><circle cx="135" cy="181" r="1.7320508075688772"></circle><circle cx="180.7631009972843" cy="181" r="1"></circle><circle cx="182.72193501664407" cy="181" r="1"></circle><circle cx="191.50659479094136" cy="181" r="1"></circle><circle cx="201.67511361093312" cy="181" r="1"></circle><circle cx="211.217150643381" cy="181" r="1"></circle><circle cx="218.29172500409072" cy="181" r="1"></circle><circle cx="232.18627460163955" cy="181" r="1"></circle><circle cx="267.51315960405145" cy="181" r="1"></circle><circle cx="275.91056739847414" cy="181" r="1"></circle><circle cx="298.29491107632214" cy="181" r="1"></circle><circle cx="299.2355013133107" cy="181" r="1"></circle><circle cx="20" cy="176.39999999999998" r="6.928203230275509"></circle><circle cx="54.61844950135783" cy="176.39999999999998" r="4.47213595499958"></circle><circle cx="74.86894429276117" cy="176.39999999999998" r="2.449489742783178"></circle><circle cx="89.23689900271566" cy="176.39999999999998" r="2"></circle><circle cx="100.38155049864216" cy="176.39999999999998" r="1.7320508075688772"></circle><circle cx="109.487393794119" cy="176.39999999999998" r="1"></circle><circle cx="117.18627460163952" cy="176.39999999999998" r="1.4142135623730951"></circle><circle cx="123.85534850407349" cy="176.39999999999998" r="1.4142135623730951"></circle><circle cx="135" cy="176.39999999999998" r="1"></circle><circle cx="139.76015879319587" cy="176.39999999999998" r="1.7320508075688772"></circle><circle cx="144.10584329547683" cy="176.39999999999998" r="1"></circle><circle cx="161.5016259585015" cy="176.39999999999998" r="1"></circle><circle cx="172.0552188944007" cy="176.39999999999998" r="1"></circle><circle cx="178.72429279683467" cy="176.39999999999998" r="1"></circle><circle cx="184.6068328782835" cy="176.39999999999998" r="1"></circle><circle cx="198.974787588238" cy="176.39999999999998" r="1"></circle><circle cx="204.23689900271566" cy="176.39999999999998" r="1"></circle><circle cx="215.38155049864213" cy="176.39999999999998" r="1"></circle><circle cx="232.18627460163955" cy="176.39999999999998" r="1"></circle><circle cx="238.22711549840074" cy="176.39999999999998" r="1"></circle><circle cx="240.6939806232485" cy="176.39999999999998" r="1"></circle><circle cx="244.17985076416497" cy="176.39999999999998" r="1"></circle><circle cx="20" cy="171.79999999999998" r="4.69041575982343"></circle><circle cx="54.61844950135783" cy="171.79999999999998" r="2.23606797749979"></circle><circle cx="74.86894429276117" cy="171.79999999999998" r="2.8284271247461903"></circle><circle cx="100.38155049864216" cy="171.79999999999998" r="1.7320508075688772"></circle><circle cx="109.487393794119" cy="171.79999999999998" r="1"></circle><circle cx="117.18627460163952" cy="171.79999999999998" r="1"></circle><circle cx="123.85534850407349" cy="171.79999999999998" r="1"></circle><circle cx="129.73788858552237" cy="171.79999999999998" r="1.4142135623730951"></circle><circle cx="161.5016259585015" cy="171.79999999999998" r="1"></circle><circle cx="191.50659479094136" cy="171.79999999999998" r="1.4142135623730951"></circle><circle cx="223.6479813388466" cy="171.79999999999998" r="1"></circle><circle cx="250.98901975262046" cy="171.79999999999998" r="1"></circle><circle cx="263.1034855152862" cy="171.79999999999998" r="1"></circle><circle cx="299.9754239639328" cy="171.79999999999998" r="1"></circle><circle cx="339.81924794143015" cy="171.79999999999998" r="1"></circle><circle cx="415.867139910741" cy="171.79999999999998" r="1"></circle><circle cx="20" cy="167.2" r="12.884098726725126"></circle><circle cx="54.61844950135783" cy="167.2" r="6.928203230275509"></circle><circle cx="74.86894429276117" cy="167.2" r="5.0990195135927845"></circle><circle cx="89.23689900271566" cy="167.2" r="4.69041575982343"></circle><circle cx="100.38155049864216" cy="167.2" r="3"></circle><circle cx="109.487393794119" cy="167.2" r="2.449489742783178"></circle><circle cx="117.18627460163952" cy="167.2" r="2.23606797749979"></circle><circle cx="123.85534850407349" cy="167.2" r="2.449489742783178"></circle><circle cx="129.73788858552237" cy="167.2" r="1"></circle><circle cx="135" cy="167.2" r="1.4142135623730951"></circle><circle cx="139.76015879319587" cy="167.2" r="1"></circle><circle cx="148.10348551528622" cy="167.2" r="1.7320508075688772"></circle><circle cx="151.80472410299734" cy="167.2" r="1.4142135623730951"></circle><circle cx="158.47379800543132" cy="167.2" r="1"></circle><circle cx="161.5016259585015" cy="167.2" r="1"></circle><circle cx="164.35633808688016" cy="167.2" r="1.4142135623730951"></circle><circle cx="169.61844950135782" cy="167.2" r="1.4142135623730951"></circle><circle cx="172.0552188944007" cy="167.2" r="1"></circle><circle cx="174.37860829455371" cy="167.2" r="1"></circle><circle cx="186.42317360435518" cy="167.2" r="1.4142135623730951"></circle><circle cx="193.09224750678916" cy="167.2" r="1"></circle><circle cx="208.99705779591153" cy="167.2" r="1.4142135623730951"></circle><circle cx="215.38155049864213" cy="167.2" r="1"></circle><circle cx="218.29172500409072" cy="167.2" r="1"></circle><circle cx="229.24755258731486" cy="167.2" r="1.4142135623730951"></circle><circle cx="229.998602310595" cy="167.2" r="1"></circle><circle cx="232.89471010269364" cy="167.2" r="1"></circle><circle cx="234.9616477690622" cy="167.2" r="1"></circle><circle cx="244.73788858552234" cy="167.2" r="1.4142135623730951"></circle><circle cx="263.1034855152862" cy="167.2" r="1"></circle><circle cx="276.7945526950977" cy="167.2" r="1"></circle><circle cx="277.08577139436807" cy="167.2" r="1"></circle><circle cx="318.98655328847406" cy="167.2" r="1"></circle><circle cx="352.1406418006074" cy="167.2" r="1"></circle><circle cx="355.45270544184393" cy="167.2" r="1"></circle><circle cx="20" cy="162.6" r="13.638181696985855"></circle><circle cx="54.61844950135783" cy="162.6" r="8.660254037844387"></circle><circle cx="74.86894429276117" cy="162.6" r="5.744562646538029"></circle><circle cx="89.23689900271566" cy="162.6" r="4"></circle><circle cx="100.38155049864216" cy="162.6" r="3.7416573867739413"></circle><circle cx="109.487393794119" cy="162.6" r="3.1622776601683795"></circle><circle cx="117.18627460163952" cy="162.6" r="2.6457513110645907"></circle><circle cx="123.85534850407349" cy="162.6" r="2.23606797749979"></circle><circle cx="129.73788858552237" cy="162.6" r="2.6457513110645907"></circle><circle cx="135" cy="162.6" r="2.23606797749979"></circle><circle cx="139.76015879319587" cy="162.6" r="2.23606797749979"></circle><circle cx="144.10584329547683" cy="162.6" r="1.4142135623730951"></circle><circle cx="148.10348551528622" cy="162.6" r="1"></circle><circle cx="151.80472410299734" cy="162.6" r="1.7320508075688772"></circle><circle cx="155.25049479140333" cy="162.6" r="1.7320508075688772"></circle><circle cx="158.47379800543132" cy="162.6" r="2.23606797749979"></circle><circle cx="161.5016259585015" cy="162.6" r="1"></circle><circle cx="167.0566641095753" cy="162.6" r="1"></circle><circle cx="169.61844950135782" cy="162.6" r="1"></circle><circle cx="172.0552188944007" cy="162.6" r="1.4142135623730951"></circle><circle cx="174.37860829455371" cy="162.6" r="1"></circle><circle cx="178.72429279683467" cy="162.6" r="1"></circle><circle cx="184.6068328782835" cy="162.6" r="1.4142135623730951"></circle><circle cx="186.42317360435518" cy="162.6" r="1"></circle><circle cx="198.974787588238" cy="162.6" r="1"></circle><circle cx="205.47014352276958" cy="162.6" r="1"></circle><circle cx="206.67366839575854" cy="162.6" r="1"></circle><circle cx="207.84887239165243" cy="162.6" r="1"></circle><circle cx="224.487393794119" cy="162.6" r="1"></circle><circle cx="234.9616477690622" cy="162.6" r="1"></circle><circle cx="238.22711549840074" cy="162.6" r="1"></circle><circle cx="243.6155072972694" cy="162.6" r="1"></circle><circle cx="267.51315960405145" cy="162.6" r="1"></circle><circle cx="270.58234893871446" cy="162.6" r="1"></circle><circle cx="270.9120126136488" cy="162.6" r="1"></circle><circle cx="285.11540748636173" cy="162.6" r="1"></circle><circle cx="295.36194329501484" cy="162.6" r="1"></circle><circle cx="384.8493370891338" cy="162.6" r="1"></circle><circle cx="407.22449118148825" cy="162.6" r="1"></circle><circle cx="20" cy="158" r="16.46207763315433"></circle><circle cx="54.61844950135783" cy="158" r="9.273618495495704"></circle><circle cx="74.86894429276117" cy="158" r="6.708203932499369"></circle><circle cx="89.23689900271566" cy="158" r="4.795831523312719"></circle><circle cx="100.38155049864216" cy="158" r="3.4641016151377544"></circle><circle cx="109.487393794119" cy="158" r="3.1622776601683795"></circle><circle cx="117.18627460163952" cy="158" r="2.8284271247461903"></circle><circle cx="123.85534850407349" cy="158" r="2.449489742783178"></circle><circle cx="129.73788858552237" cy="158" r="2.449489742783178"></circle><circle cx="135" cy="158" r="2.6457513110645907"></circle><circle cx="139.76015879319587" cy="158" r="2.449489742783178"></circle><circle cx="144.10584329547683" cy="158" r="1.7320508075688772"></circle><circle cx="148.10348551528622" cy="158" r="1.4142135623730951"></circle><circle cx="151.80472410299734" cy="158" r="1.4142135623730951"></circle><circle cx="155.25049479140333" cy="158" r="2"></circle><circle cx="158.47379800543132" cy="158" r="2"></circle><circle cx="161.5016259585015" cy="158" r="1.4142135623730951"></circle><circle cx="167.0566641095753" cy="158" r="1"></circle><circle cx="169.61844950135782" cy="158" r="1"></circle><circle cx="180.7631009972843" cy="158" r="1.4142135623730951"></circle><circle cx="182.72193501664407" cy="158" r="1"></circle><circle cx="188.17576975837994" cy="158" r="1"></circle><circle cx="189.86894429276117" cy="158" r="1"></circle><circle cx="191.50659479094136" cy="158" r="1"></circle><circle cx="196.12007545985935" cy="158" r="1"></circle><circle cx="197.56782510028168" cy="158" r="1"></circle><circle cx="198.974787588238" cy="158" r="1.4142135623730951"></circle><circle cx="201.67511361093312" cy="158" r="1"></circle><circle cx="202.9724298080474" cy="158" r="1.4142135623730951"></circle><circle cx="204.23689900271566" cy="158" r="1"></circle><circle cx="205.47014352276958" cy="158" r="1.4142135623730951"></circle><circle cx="206.67366839575854" cy="158" r="1"></circle><circle cx="207.84887239165243" cy="158" r="1"></circle><circle cx="210.1194390841645" cy="158" r="1"></circle><circle cx="211.217150643381" cy="158" r="1"></circle><circle cx="212.2912536626075" cy="158" r="1"></circle><circle cx="220.14170929183805" cy="158" r="1.4142135623730951"></circle><circle cx="221.04162310571306" cy="158" r="1"></circle><circle cx="222.79421925973776" cy="158" r="1"></circle><circle cx="223.6479813388466" cy="158" r="1"></circle><circle cx="236.9464333948354" cy="158" r="1"></circle><circle cx="248.47874944061815" cy="158" r="1"></circle><circle cx="250" cy="158" r="1"></circle><circle cx="253.37913443379907" cy="158" r="1"></circle><circle cx="262.7178166844136" cy="158" r="1"></circle><circle cx="270.58234893871446" cy="158" r="1"></circle><circle cx="286.09473034245264" cy="158" r="1"></circle><circle cx="287.7636543954548" cy="158" r="1"></circle><circle cx="20" cy="153.40000000000003" r="12.884098726725126"></circle><circle cx="54.61844950135783" cy="153.40000000000003" r="8.602325267042627"></circle><circle cx="74.86894429276117" cy="153.40000000000003" r="4.795831523312719"></circle><circle cx="89.23689900271566" cy="153.40000000000003" r="4"></circle><circle cx="100.38155049864216" cy="153.40000000000003" r="3.4641016151377544"></circle><circle cx="109.487393794119" cy="153.40000000000003" r="3.4641016151377544"></circle><circle cx="117.18627460163952" cy="153.40000000000003" r="2.23606797749979"></circle><circle cx="123.85534850407349" cy="153.40000000000003" r="2"></circle><circle cx="129.73788858552237" cy="153.40000000000003" r="2.449489742783178"></circle><circle cx="135" cy="153.40000000000003" r="2.23606797749979"></circle><circle cx="139.76015879319587" cy="153.40000000000003" r="2"></circle><circle cx="144.10584329547683" cy="153.40000000000003" r="1"></circle><circle cx="148.10348551528622" cy="153.40000000000003" r="2.23606797749979"></circle><circle cx="151.80472410299734" cy="153.40000000000003" r="1"></circle><circle cx="155.25049479140333" cy="153.40000000000003" r="1.4142135623730951"></circle><circle cx="158.47379800543132" cy="153.40000000000003" r="1.4142135623730951"></circle><circle cx="161.5016259585015" cy="153.40000000000003" r="1"></circle><circle cx="167.0566641095753" cy="153.40000000000003" r="1.4142135623730951"></circle><circle cx="169.61844950135782" cy="153.40000000000003" r="1.4142135623730951"></circle><circle cx="172.0552188944007" cy="153.40000000000003" r="1"></circle><circle cx="176.59870114202317" cy="153.40000000000003" r="1"></circle><circle cx="178.72429279683467" cy="153.40000000000003" r="1"></circle><circle cx="188.17576975837994" cy="153.40000000000003" r="1.4142135623730951"></circle><circle cx="191.50659479094136" cy="153.40000000000003" r="1"></circle><circle cx="194.62910308595704" cy="153.40000000000003" r="1"></circle><circle cx="196.12007545985935" cy="153.40000000000003" r="1"></circle><circle cx="202.9724298080474" cy="153.40000000000003" r="1"></circle><circle cx="222.79421925973776" cy="153.40000000000003" r="1"></circle><circle cx="224.487393794119" cy="153.40000000000003" r="1"></circle><circle cx="243.0447140511411" cy="153.40000000000003" r="1"></circle><circle cx="247.96119179955033" cy="153.40000000000003" r="1"></circle><circle cx="260.7434937936571" cy="153.40000000000003" r="1"></circle><circle cx="267.16019795536863" cy="153.40000000000003" r="1"></circle><circle cx="270.2504947914033" cy="153.40000000000003" r="1"></circle><circle cx="287.5286240068064" cy="153.40000000000003" r="1"></circle><circle cx="327.8197651068597" cy="153.40000000000003" r="1"></circle><circle cx="339.40408457477076" cy="153.40000000000003" r="1"></circle><circle cx="20" cy="148.8" r="14.933184523068078"></circle><circle cx="54.61844950135783" cy="148.8" r="8.366600265340756"></circle><circle cx="74.86894429276117" cy="148.8" r="5.0990195135927845"></circle><circle cx="89.23689900271566" cy="148.8" r="3.872983346207417"></circle><circle cx="100.38155049864216" cy="148.8" r="3.605551275463989"></circle><circle cx="109.487393794119" cy="148.8" r="3.605551275463989"></circle><circle cx="117.18627460163952" cy="148.8" r="3.1622776601683795"></circle><circle cx="123.85534850407349" cy="148.8" r="3"></circle><circle cx="129.73788858552237" cy="148.8" r="1.7320508075688772"></circle><circle cx="135" cy="148.8" r="2.6457513110645907"></circle><circle cx="139.76015879319587" cy="148.8" r="1.4142135623730951"></circle><circle cx="144.10584329547683" cy="148.8" r="2"></circle><circle cx="148.10348551528622" cy="148.8" r="1.4142135623730951"></circle><circle cx="151.80472410299734" cy="148.8" r="2"></circle><circle cx="158.47379800543132" cy="148.8" r="1.7320508075688772"></circle><circle cx="164.35633808688016" cy="148.8" r="1"></circle><circle cx="169.61844950135782" cy="148.8" r="1.4142135623730951"></circle><circle cx="172.0552188944007" cy="148.8" r="1"></circle><circle cx="174.37860829455371" cy="148.8" r="1"></circle><circle cx="182.72193501664407" cy="148.8" r="1"></circle><circle cx="186.42317360435518" cy="148.8" r="1"></circle><circle cx="194.62910308595704" cy="148.8" r="1"></circle><circle cx="200.3431982677044" cy="148.8" r="1"></circle><circle cx="201.67511361093312" cy="148.8" r="1"></circle><circle cx="202.9724298080474" cy="148.8" r="1"></circle><circle cx="284.6184495013578" cy="148.8" r="1"></circle><circle cx="295.9624779703193" cy="148.8" r="1"></circle><circle cx="20" cy="144.2" r="12.288205727444508"></circle><circle cx="54.61844950135783" cy="144.2" r="6.082762530298219"></circle><circle cx="74.86894429276117" cy="144.2" r="5.5677643628300215"></circle><circle cx="89.23689900271566" cy="144.2" r="3.605551275463989"></circle><circle cx="100.38155049864216" cy="144.2" r="2.8284271247461903"></circle><circle cx="109.487393794119" cy="144.2" r="2.449489742783178"></circle><circle cx="117.18627460163952" cy="144.2" r="2.449489742783178"></circle><circle cx="123.85534850407349" cy="144.2" r="2.23606797749979"></circle><circle cx="129.73788858552237" cy="144.2" r="1.4142135623730951"></circle><circle cx="144.10584329547683" cy="144.2" r="1"></circle><circle cx="148.10348551528622" cy="144.2" r="1"></circle><circle cx="151.80472410299734" cy="144.2" r="1.7320508075688772"></circle><circle cx="155.25049479140333" cy="144.2" r="1.4142135623730951"></circle><circle cx="158.47379800543132" cy="144.2" r="1"></circle><circle cx="161.5016259585015" cy="144.2" r="1"></circle><circle cx="164.35633808688016" cy="144.2" r="1"></circle><circle cx="167.0566641095753" cy="144.2" r="1"></circle><circle cx="169.61844950135782" cy="144.2" r="1"></circle><circle cx="207.84887239165243" cy="144.2" r="1"></circle><circle cx="210.1194390841645" cy="144.2" r="1"></circle><circle cx="212.2912536626075" cy="144.2" r="1"></circle><circle cx="213.3427422981925" cy="144.2" r="1.4142135623730951"></circle><circle cx="224.487393794119" cy="144.2" r="1"></circle><circle cx="225.3129310262382" cy="144.2" r="1"></circle><circle cx="231.46764543478434" cy="144.2" r="1.4142135623730951"></circle><circle cx="235.63204529004545" cy="144.2" r="1"></circle><circle cx="245.83560014473883" cy="144.2" r="1"></circle><circle cx="266.80472410299734" cy="144.2" r="1"></circle><circle cx="300.3413147243446" cy="144.2" r="1"></circle><circle cx="20" cy="139.6" r="10.535653752852738"></circle><circle cx="54.61844950135783" cy="139.6" r="6.4031242374328485"></circle><circle cx="74.86894429276117" cy="139.6" r="3.872983346207417"></circle><circle cx="89.23689900271566" cy="139.6" r="2.6457513110645907"></circle><circle cx="100.38155049864216" cy="139.6" r="2.449489742783178"></circle><circle cx="109.487393794119" cy="139.6" r="2"></circle><circle cx="117.18627460163952" cy="139.6" r="1.7320508075688772"></circle><circle cx="123.85534850407349" cy="139.6" r="1"></circle><circle cx="135" cy="139.6" r="1"></circle><circle cx="139.76015879319587" cy="139.6" r="1"></circle><circle cx="144.10584329547683" cy="139.6" r="1.4142135623730951"></circle><circle cx="148.10348551528622" cy="139.6" r="1"></circle><circle cx="191.50659479094136" cy="139.6" r="1"></circle><circle cx="201.67511361093312" cy="139.6" r="1"></circle><circle cx="265.356974462575" cy="139.6" r="1"></circle><circle cx="278.2339567986272" cy="139.6" r="1"></circle><circle cx="325.5614230785669" cy="139.6" r="1"></circle><circle cx="20" cy="135" r="16.217274740226856"></circle><circle cx="54.61844950135783" cy="135" r="3.872983346207417"></circle><circle cx="74.86894429276117" cy="135" r="1.7320508075688772"></circle><circle cx="89.23689900271566" cy="135" r="2.23606797749979"></circle><circle cx="100.38155049864216" cy="135" r="1.4142135623730951"></circle><circle cx="109.487393794119" cy="135" r="1.4142135623730951"></circle><circle cx="117.18627460163952" cy="135" r="1.7320508075688772"></circle><circle cx="129.73788858552237" cy="135" r="1"></circle><circle cx="135" cy="135" r="1.7320508075688772"></circle><circle cx="139.76015879319587" cy="135" r="1"></circle><circle cx="158.47379800543132" cy="135" r="1"></circle><circle cx="161.5016259585015" cy="135" r="1.4142135623730951"></circle><circle cx="180.7631009972843" cy="135" r="1"></circle><circle cx="184.6068328782835" cy="135" r="1"></circle><circle cx="193.09224750678916" cy="135" r="1"></circle><circle cx="204.23689900271566" cy="135" r="1.4142135623730951"></circle><circle cx="306.0209131798764" cy="135" r="1"></circle><circle cx="20" cy="130.4" r="6.4031242374328485"></circle><circle cx="54.61844950135783" cy="130.4" r="3.605551275463989"></circle><circle cx="74.86894429276117" cy="130.4" r="2.449489742783178"></circle><circle cx="89.23689900271566" cy="130.4" r="1.7320508075688772"></circle><circle cx="100.38155049864216" cy="130.4" r="1.4142135623730951"></circle><circle cx="109.487393794119" cy="130.4" r="1.7320508075688772"></circle><circle cx="117.18627460163952" cy="130.4" r="1"></circle><circle cx="123.85534850407349" cy="130.4" r="1"></circle><circle cx="129.73788858552237" cy="130.4" r="1"></circle><circle cx="135" cy="130.4" r="1.7320508075688772"></circle><circle cx="139.76015879319587" cy="130.4" r="1"></circle><circle cx="144.10584329547683" cy="130.4" r="1"></circle><circle cx="148.10348551528622" cy="130.4" r="1.4142135623730951"></circle><circle cx="155.25049479140333" cy="130.4" r="1"></circle><circle cx="169.61844950135782" cy="130.4" r="1"></circle><circle cx="178.72429279683467" cy="130.4" r="1"></circle><circle cx="189.86894429276117" cy="130.4" r="1"></circle><circle cx="231.46764543478434" cy="130.4" r="1"></circle><circle cx="20" cy="125.79999999999998" r="3.7416573867739413"></circle><circle cx="54.61844950135783" cy="125.79999999999998" r="2.8284271247461903"></circle><circle cx="74.86894429276117" cy="125.79999999999998" r="1"></circle><circle cx="89.23689900271566" cy="125.79999999999998" r="1.4142135623730951"></circle><circle cx="109.487393794119" cy="125.79999999999998" r="1"></circle><circle cx="129.73788858552237" cy="125.79999999999998" r="1"></circle><circle cx="144.10584329547683" cy="125.79999999999998" r="1"></circle><circle cx="155.25049479140333" cy="125.79999999999998" r="1"></circle><circle cx="191.50659479094136" cy="125.79999999999998" r="1"></circle><circle cx="270.2504947914033" cy="125.79999999999998" r="1"></circle><circle cx="20" cy="121.19999999999999" r="4.69041575982343"></circle><circle cx="54.61844950135783" cy="121.19999999999999" r="2.23606797749979"></circle><circle cx="74.86894429276117" cy="121.19999999999999" r="2.23606797749979"></circle><circle cx="89.23689900271566" cy="121.19999999999999" r="2"></circle><circle cx="100.38155049864216" cy="121.19999999999999" r="1.7320508075688772"></circle><circle cx="109.487393794119" cy="121.19999999999999" r="2.23606797749979"></circle><circle cx="117.18627460163952" cy="121.19999999999999" r="1.4142135623730951"></circle><circle cx="123.85534850407349" cy="121.19999999999999" r="1.4142135623730951"></circle><circle cx="129.73788858552237" cy="121.19999999999999" r="2"></circle><circle cx="135" cy="121.19999999999999" r="1.7320508075688772"></circle><circle cx="139.76015879319587" cy="121.19999999999999" r="1.4142135623730951"></circle><circle cx="151.80472410299734" cy="121.19999999999999" r="1"></circle><circle cx="161.5016259585015" cy="121.19999999999999" r="1"></circle><circle cx="182.72193501664407" cy="121.19999999999999" r="1"></circle><circle cx="194.62910308595704" cy="121.19999999999999" r="1"></circle><circle cx="212.2912536626075" cy="121.19999999999999" r="1"></circle><circle cx="262.3291465095048" cy="121.19999999999999" r="1"></circle><circle cx="344.624489209857" cy="121.19999999999999" r="1"></circle><circle cx="400.3374354088347" cy="121.19999999999999" r="1"></circle><circle cx="20" cy="116.60000000000001" r="17.26267650163207"></circle><circle cx="54.61844950135783" cy="116.60000000000001" r="9.695359714832659"></circle><circle cx="74.86894429276117" cy="116.60000000000001" r="5.656854249492381"></circle><circle cx="89.23689900271566" cy="116.60000000000001" r="5.744562646538029"></circle><circle cx="100.38155049864216" cy="116.60000000000001" r="4.123105625617661"></circle><circle cx="109.487393794119" cy="116.60000000000001" r="4.242640687119285"></circle><circle cx="117.18627460163952" cy="116.60000000000001" r="2.23606797749979"></circle><circle cx="123.85534850407349" cy="116.60000000000001" r="2.6457513110645907"></circle><circle cx="129.73788858552237" cy="116.60000000000001" r="2"></circle><circle cx="135" cy="116.60000000000001" r="1.4142135623730951"></circle><circle cx="139.76015879319587" cy="116.60000000000001" r="1.4142135623730951"></circle><circle cx="144.10584329547683" cy="116.60000000000001" r="1.4142135623730951"></circle><circle cx="148.10348551528622" cy="116.60000000000001" r="1.4142135623730951"></circle><circle cx="151.80472410299734" cy="116.60000000000001" r="1.7320508075688772"></circle><circle cx="155.25049479140333" cy="116.60000000000001" r="1"></circle><circle cx="161.5016259585015" cy="116.60000000000001" r="1.4142135623730951"></circle><circle cx="164.35633808688016" cy="116.60000000000001" r="1"></circle><circle cx="169.61844950135782" cy="116.60000000000001" r="1"></circle><circle cx="172.0552188944007" cy="116.60000000000001" r="1"></circle><circle cx="174.37860829455371" cy="116.60000000000001" r="1"></circle><circle cx="180.7631009972843" cy="116.60000000000001" r="1"></circle><circle cx="229.998602310595" cy="116.60000000000001" r="1"></circle><circle cx="247.43821460821746" cy="116.60000000000001" r="1"></circle><circle cx="247.96119179955033" cy="116.60000000000001" r="1"></circle><circle cx="20" cy="112" r="11.74734012447073"></circle><circle cx="54.61844950135783" cy="112" r="7.14142842854285"></circle><circle cx="74.86894429276117" cy="112" r="4.58257569495584"></circle><circle cx="89.23689900271566" cy="112" r="2.6457513110645907"></circle><circle cx="100.38155049864216" cy="112" r="2.449489742783178"></circle><circle cx="109.487393794119" cy="112" r="2.6457513110645907"></circle><circle cx="117.18627460163952" cy="112" r="2.449489742783178"></circle><circle cx="123.85534850407349" cy="112" r="1.7320508075688772"></circle><circle cx="129.73788858552237" cy="112" r="1"></circle><circle cx="135" cy="112" r="1.4142135623730951"></circle><circle cx="144.10584329547683" cy="112" r="1.7320508075688772"></circle><circle cx="148.10348551528622" cy="112" r="1"></circle><circle cx="164.35633808688016" cy="112" r="1"></circle><circle cx="169.61844950135782" cy="112" r="1"></circle><circle cx="174.37860829455371" cy="112" r="1"></circle><circle cx="176.59870114202317" cy="112" r="1"></circle><circle cx="194.62910308595704" cy="112" r="1"></circle><circle cx="197.56782510028168" cy="112" r="1"></circle><circle cx="208.99705779591153" cy="112" r="1"></circle><circle cx="226.12504429229918" cy="112" r="1"></circle><circle cx="256.10402100059326" cy="112" r="1"></circle><circle cx="20" cy="107.4" r="7.745966692414834"></circle><circle cx="54.61844950135783" cy="107.4" r="5.830951894845301"></circle><circle cx="74.86894429276117" cy="107.4" r="3.872983346207417"></circle><circle cx="89.23689900271566" cy="107.4" r="3"></circle><circle cx="100.38155049864216" cy="107.4" r="1.7320508075688772"></circle><circle cx="109.487393794119" cy="107.4" r="2.23606797749979"></circle><circle cx="117.18627460163952" cy="107.4" r="1.4142135623730951"></circle><circle cx="123.85534850407349" cy="107.4" r="1.7320508075688772"></circle><circle cx="129.73788858552237" cy="107.4" r="1.4142135623730951"></circle><circle cx="135" cy="107.4" r="2"></circle><circle cx="139.76015879319587" cy="107.4" r="1.4142135623730951"></circle><circle cx="144.10584329547683" cy="107.4" r="1.4142135623730951"></circle><circle cx="151.80472410299734" cy="107.4" r="1.4142135623730951"></circle><circle cx="155.25049479140333" cy="107.4" r="1"></circle><circle cx="161.5016259585015" cy="107.4" r="1.4142135623730951"></circle><circle cx="164.35633808688016" cy="107.4" r="1"></circle><circle cx="206.67366839575854" cy="107.4" r="1"></circle><circle cx="237.5908793094052" cy="107.4" r="1"></circle><circle cx="261.937427909935" cy="107.4" r="1"></circle><circle cx="20" cy="102.8" r="6.782329983125268"></circle><circle cx="54.61844950135783" cy="102.8" r="4.795831523312719"></circle><circle cx="74.86894429276117" cy="102.8" r="4"></circle><circle cx="89.23689900271566" cy="102.8" r="2.8284271247461903"></circle><circle cx="100.38155049864216" cy="102.8" r="2"></circle><circle cx="109.487393794119" cy="102.8" r="1.4142135623730951"></circle><circle cx="117.18627460163952" cy="102.8" r="1"></circle><circle cx="123.85534850407349" cy="102.8" r="1"></circle><circle cx="129.73788858552237" cy="102.8" r="1.4142135623730951"></circle><circle cx="135" cy="102.8" r="1"></circle><circle cx="148.10348551528622" cy="102.8" r="1.4142135623730951"></circle><circle cx="151.80472410299734" cy="102.8" r="1"></circle><circle cx="164.35633808688016" cy="102.8" r="1"></circle><circle cx="178.72429279683467" cy="102.8" r="1"></circle><circle cx="188.17576975837994" cy="102.8" r="1"></circle><circle cx="201.67511361093312" cy="102.8" r="1"></circle><circle cx="244.17985076416497" cy="102.8" r="1"></circle><circle cx="252.43676939304285" cy="102.8" r="1"></circle><circle cx="254.76015879319587" cy="102.8" r="1"></circle><circle cx="383.62616088186854" cy="102.8" r="1"></circle><circle cx="20" cy="98.19999999999999" r="13.490737563232042"></circle><circle cx="54.61844950135783" cy="98.19999999999999" r="6.6332495807108"></circle><circle cx="74.86894429276117" cy="98.19999999999999" r="4.47213595499958"></circle><circle cx="89.23689900271566" cy="98.19999999999999" r="3.4641016151377544"></circle><circle cx="100.38155049864216" cy="98.19999999999999" r="3.3166247903554"></circle><circle cx="109.487393794119" cy="98.19999999999999" r="2.6457513110645907"></circle><circle cx="117.18627460163952" cy="98.19999999999999" r="2"></circle><circle cx="123.85534850407349" cy="98.19999999999999" r="1"></circle><circle cx="135" cy="98.19999999999999" r="1"></circle><circle cx="139.76015879319587" cy="98.19999999999999" r="1.4142135623730951"></circle><circle cx="148.10348551528622" cy="98.19999999999999" r="1.4142135623730951"></circle><circle cx="151.80472410299734" cy="98.19999999999999" r="1.7320508075688772"></circle><circle cx="155.25049479140333" cy="98.19999999999999" r="1"></circle><circle cx="172.0552188944007" cy="98.19999999999999" r="1"></circle><circle cx="210.1194390841645" cy="98.19999999999999" r="1"></circle><circle cx="211.217150643381" cy="98.19999999999999" r="1"></circle><circle cx="241.88317645714366" cy="98.19999999999999" r="1"></circle><circle cx="20" cy="93.6" r="8.660254037844387"></circle><circle cx="54.61844950135783" cy="93.6" r="4.47213595499958"></circle><circle cx="74.86894429276117" cy="93.6" r="3"></circle><circle cx="89.23689900271566" cy="93.6" r="2.8284271247461903"></circle><circle cx="100.38155049864216" cy="93.6" r="1.4142135623730951"></circle><circle cx="109.487393794119" cy="93.6" r="1.4142135623730951"></circle><circle cx="123.85534850407349" cy="93.6" r="1.4142135623730951"></circle><circle cx="129.73788858552237" cy="93.6" r="1"></circle><circle cx="135" cy="93.6" r="1.4142135623730951"></circle><circle cx="148.10348551528622" cy="93.6" r="1"></circle><circle cx="151.80472410299734" cy="93.6" r="1"></circle><circle cx="164.35633808688016" cy="93.6" r="1"></circle><circle cx="214.37254920327905" cy="93.6" r="1"></circle><circle cx="223.6479813388466" cy="93.6" r="1"></circle><circle cx="237.5908793094052" cy="93.6" r="1"></circle><circle cx="240.08859302412742" cy="93.6" r="1"></circle><circle cx="20" cy="89.00000000000001" r="6.082762530298219"></circle><circle cx="54.61844950135783" cy="89.00000000000001" r="3.605551275463989"></circle><circle cx="74.86894429276117" cy="89.00000000000001" r="2.6457513110645907"></circle><circle cx="89.23689900271566" cy="89.00000000000001" r="2.449489742783178"></circle><circle cx="100.38155049864216" cy="89.00000000000001" r="2"></circle><circle cx="109.487393794119" cy="89.00000000000001" r="1.4142135623730951"></circle><circle cx="117.18627460163952" cy="89.00000000000001" r="1"></circle><circle cx="123.85534850407349" cy="89.00000000000001" r="1.4142135623730951"></circle><circle cx="129.73788858552237" cy="89.00000000000001" r="1.4142135623730951"></circle><circle cx="139.76015879319587" cy="89.00000000000001" r="1"></circle><circle cx="148.10348551528622" cy="89.00000000000001" r="1"></circle><circle cx="167.0566641095753" cy="89.00000000000001" r="1"></circle><circle cx="178.72429279683467" cy="89.00000000000001" r="1"></circle><circle cx="193.09224750678916" cy="89.00000000000001" r="1"></circle><circle cx="194.62910308595704" cy="89.00000000000001" r="1"></circle><circle cx="289.6051114737877" cy="89.00000000000001" r="1"></circle><circle cx="20" cy="84.4" r="4.795831523312719"></circle><circle cx="54.61844950135783" cy="84.4" r="3.7416573867739413"></circle><circle cx="74.86894429276117" cy="84.4" r="1.4142135623730951"></circle><circle cx="89.23689900271566" cy="84.4" r="1"></circle><circle cx="100.38155049864216" cy="84.4" r="1"></circle><circle cx="109.487393794119" cy="84.4" r="2"></circle><circle cx="117.18627460163952" cy="84.4" r="1"></circle><circle cx="123.85534850407349" cy="84.4" r="1.7320508075688772"></circle><circle cx="135" cy="84.4" r="1.4142135623730951"></circle><circle cx="144.10584329547683" cy="84.4" r="1.4142135623730951"></circle><circle cx="151.80472410299734" cy="84.4" r="1.4142135623730951"></circle><circle cx="161.5016259585015" cy="84.4" r="1"></circle><circle cx="167.0566641095753" cy="84.4" r="1"></circle><circle cx="180.7631009972843" cy="84.4" r="1"></circle><circle cx="186.42317360435518" cy="84.4" r="1"></circle><circle cx="201.67511361093312" cy="84.4" r="1"></circle><circle cx="263.1034855152862" cy="84.4" r="1"></circle><circle cx="20" cy="79.8" r="4.123105625617661"></circle><circle cx="54.61844950135783" cy="79.8" r="2.23606797749979"></circle><circle cx="74.86894429276117" cy="79.8" r="3"></circle><circle cx="89.23689900271566" cy="79.8" r="1.4142135623730951"></circle><circle cx="100.38155049864216" cy="79.8" r="1.4142135623730951"></circle><circle cx="109.487393794119" cy="79.8" r="2.23606797749979"></circle><circle cx="117.18627460163952" cy="79.8" r="1.4142135623730951"></circle><circle cx="123.85534850407349" cy="79.8" r="1"></circle><circle cx="129.73788858552237" cy="79.8" r="1"></circle><circle cx="135" cy="79.8" r="1"></circle><circle cx="144.10584329547683" cy="79.8" r="1"></circle><circle cx="148.10348551528622" cy="79.8" r="1"></circle><circle cx="167.0566641095753" cy="79.8" r="1"></circle><circle cx="237.5908793094052" cy="79.8" r="1"></circle><circle cx="20" cy="75.2" r="4.242640687119285"></circle><circle cx="54.61844950135783" cy="75.2" r="1.7320508075688772"></circle><circle cx="74.86894429276117" cy="75.2" r="1"></circle><circle cx="89.23689900271566" cy="75.2" r="1.7320508075688772"></circle><circle cx="100.38155049864216" cy="75.2" r="1.7320508075688772"></circle><circle cx="109.487393794119" cy="75.2" r="1.4142135623730951"></circle><circle cx="117.18627460163952" cy="75.2" r="1"></circle><circle cx="123.85534850407349" cy="75.2" r="1"></circle><circle cx="148.10348551528622" cy="75.2" r="1"></circle><circle cx="158.47379800543132" cy="75.2" r="1"></circle><circle cx="164.35633808688016" cy="75.2" r="1"></circle><circle cx="197.56782510028168" cy="75.2" r="1"></circle><circle cx="232.18627460163955" cy="75.2" r="1"></circle><circle cx="20" cy="70.6" r="3.3166247903554"></circle><circle cx="54.61844950135783" cy="70.6" r="3"></circle><circle cx="74.86894429276117" cy="70.6" r="1.7320508075688772"></circle><circle cx="89.23689900271566" cy="70.6" r="1"></circle><circle cx="109.487393794119" cy="70.6" r="1"></circle><circle cx="117.18627460163952" cy="70.6" r="1.7320508075688772"></circle><circle cx="123.85534850407349" cy="70.6" r="1"></circle><circle cx="172.0552188944007" cy="70.6" r="1.4142135623730951"></circle><circle cx="20" cy="65.99999999999999" r="3.3166247903554"></circle><circle cx="54.61844950135783" cy="65.99999999999999" r="2.6457513110645907"></circle><circle cx="74.86894429276117" cy="65.99999999999999" r="1"></circle><circle cx="89.23689900271566" cy="65.99999999999999" r="1.4142135623730951"></circle><circle cx="161.5016259585015" cy="65.99999999999999" r="1"></circle><circle cx="184.6068328782835" cy="65.99999999999999" r="1"></circle><circle cx="20" cy="61.40000000000001" r="2"></circle><circle cx="54.61844950135783" cy="61.40000000000001" r="1"></circle><circle cx="123.85534850407349" cy="61.40000000000001" r="1"></circle><circle cx="135" cy="61.40000000000001" r="1"></circle><circle cx="139.76015879319587" cy="61.40000000000001" r="1"></circle><circle cx="20" cy="56.80000000000001" r="2.449489742783178"></circle><circle cx="54.61844950135783" cy="56.80000000000001" r="1.4142135623730951"></circle><circle cx="74.86894429276117" cy="56.80000000000001" r="1"></circle><circle cx="89.23689900271566" cy="56.80000000000001" r="1"></circle><circle cx="100.38155049864216" cy="56.80000000000001" r="1.4142135623730951"></circle><circle cx="178.72429279683467" cy="56.80000000000001" r="1"></circle><circle cx="20" cy="52.2" r="2"></circle><circle cx="54.61844950135783" cy="52.2" r="2"></circle><circle cx="100.38155049864216" cy="52.2" r="1"></circle><circle cx="109.487393794119" cy="52.2" r="1"></circle><circle cx="117.18627460163952" cy="52.2" r="1"></circle><circle cx="20" cy="47.6" r="2.449489742783178"></circle><circle cx="54.61844950135783" cy="47.6" r="1.7320508075688772"></circle><circle cx="135" cy="47.6" r="1"></circle><circle cx="20" cy="42.99999999999999" r="1.7320508075688772"></circle><circle cx="54.61844950135783" cy="42.99999999999999" r="1.4142135623730951"></circle><circle cx="74.86894429276117" cy="42.99999999999999" r="1"></circle><circle cx="20" cy="38.39999999999999" r="1.7320508075688772"></circle><circle cx="89.23689900271566" cy="38.39999999999999" r="1"></circle><circle cx="20" cy="33.80000000000001" r="1.4142135623730951"></circle><circle cx="155.25049479140333" cy="33.80000000000001" r="1"></circle><circle cx="20" cy="29.20000000000001" r="1.4142135623730951"></circle><circle cx="74.86894429276117" cy="29.20000000000001" r="1"></circle><circle cx="89.23689900271566" cy="29.20000000000001" r="1"></circle><circle cx="20" cy="24.600000000000005" r="1"></circle><circle cx="20" cy="20" r="1"></circle></g><g transform="translate(0,250)" fill="none" font-size="10" font-family="sans-serif" text-anchor="middle"><rect fill="white" x="0" y="0" height="30" width="500"></rect><path class="domain" stroke="currentColor" d="M20.5,6V0.5H480.5V6"></path><g class="tick" opacity="1" transform="translate(20.5,0)"><line stroke="currentColor" y2="6"></line><text fill="currentColor" y="9" dy="0.71em">1</text></g><g class="tick" opacity="1" transform="translate(55.11844950135783,0)"><line stroke="currentColor" y2="6"></line><text fill="currentColor" y="9" dy="0.71em"></text></g><g class="tick" opacity="1" transform="translate(75.36894429276117,0)"><line stroke="currentColor" y2="6"></line><text fill="currentColor" y="9" dy="0.71em"></text></g><g class="tick" opacity="1" transform="translate(89.73689900271566,0)"><line stroke="currentColor" y2="6"></line><text fill="currentColor" y="9" dy="0.71em"></text></g><g class="tick" opacity="1" transform="translate(100.88155049864216,0)"><line stroke="currentColor" y2="6"></line><text fill="currentColor" y="9" dy="0.71em"></text></g><g class="tick" opacity="1" transform="translate(109.987393794119,0)"><line stroke="currentColor" y2="6"></line><text fill="currentColor" y="9" dy="0.71em"></text></g><g class="tick" opacity="1" transform="translate(117.68627460163952,0)"><line stroke="currentColor" y2="6"></line><text fill="currentColor" y="9" dy="0.71em"></text></g><g class="tick" opacity="1" transform="translate(124.35534850407349,0)"><line stroke="currentColor" y2="6"></line><text fill="currentColor" y="9" dy="0.71em"></text></g><g class="tick" opacity="1" transform="translate(130.23788858552237,0)"><line stroke="currentColor" y2="6"></line><text fill="currentColor" y="9" dy="0.71em"></text></g><g class="tick" opacity="1" transform="translate(135.5,0)"><line stroke="currentColor" y2="6"></line><text fill="currentColor" y="9" dy="0.71em">10</text></g><g class="tick" opacity="1" transform="translate(170.11844950135782,0)"><line stroke="currentColor" y2="6"></line><text fill="currentColor" y="9" dy="0.71em"></text></g><g class="tick" opacity="1" transform="translate(190.36894429276117,0)"><line stroke="currentColor" y2="6"></line><text fill="currentColor" y="9" dy="0.71em"></text></g><g class="tick" opacity="1" transform="translate(204.73689900271566,0)"><line stroke="currentColor" y2="6"></line><text fill="currentColor" y="9" dy="0.71em"></text></g><g class="tick" opacity="1" transform="translate(215.88155049864213,0)"><line stroke="currentColor" y2="6"></line><text fill="currentColor" y="9" dy="0.71em"></text></g><g class="tick" opacity="1" transform="translate(224.987393794119,0)"><line stroke="currentColor" y2="6"></line><text fill="currentColor" y="9" dy="0.71em"></text></g><g class="tick" opacity="1" transform="translate(232.68627460163955,0)"><line stroke="currentColor" y2="6"></line><text fill="currentColor" y="9" dy="0.71em"></text></g><g class="tick" opacity="1" transform="translate(239.35534850407348,0)"><line stroke="currentColor" y2="6"></line><text fill="currentColor" y="9" dy="0.71em"></text></g><g class="tick" opacity="1" transform="translate(245.23788858552234,0)"><line stroke="currentColor" y2="6"></line><text fill="currentColor" y="9" dy="0.71em"></text></g><g class="tick" opacity="1" transform="translate(250.5,0)"><line stroke="currentColor" y2="6"></line><text fill="currentColor" y="9" dy="0.71em">100</text></g><g class="tick" opacity="1" transform="translate(285.1184495013578,0)"><line stroke="currentColor" y2="6"></line><text fill="currentColor" y="9" dy="0.71em"></text></g><g class="tick" opacity="1" transform="translate(305.36894429276117,0)"><line stroke="currentColor" y2="6"></line><text fill="currentColor" y="9" dy="0.71em"></text></g><g class="tick" opacity="1" transform="translate(319.73689900271563,0)"><line stroke="currentColor" y2="6"></line><text fill="currentColor" y="9" dy="0.71em"></text></g><g class="tick" opacity="1" transform="translate(330.8815504986421,0)"><line stroke="currentColor" y2="6"></line><text fill="currentColor" y="9" dy="0.71em"></text></g><g class="tick" opacity="1" transform="translate(339.987393794119,0)"><line stroke="currentColor" y2="6"></line><text fill="currentColor" y="9" dy="0.71em"></text></g><g class="tick" opacity="1" transform="translate(347.68627460163947,0)"><line stroke="currentColor" y2="6"></line><text fill="currentColor" y="9" dy="0.71em"></text></g><g class="tick" opacity="1" transform="translate(354.3553485040735,0)"><line stroke="currentColor" y2="6"></line><text fill="currentColor" y="9" dy="0.71em"></text></g><g class="tick" opacity="1" transform="translate(360.23788858552234,0)"><line stroke="currentColor" y2="6"></line><text fill="currentColor" y="9" dy="0.71em"></text></g><g class="tick" opacity="1" transform="translate(365.49999999999994,0)"><line stroke="currentColor" y2="6"></line><text fill="currentColor" y="9" dy="0.71em">1000</text></g><g class="tick" opacity="1" transform="translate(400.1184495013578,0)"><line stroke="currentColor" y2="6"></line><text fill="currentColor" y="9" dy="0.71em"></text></g><g class="tick" opacity="1" transform="translate(420.3689442927611,0)"><line stroke="currentColor" y2="6"></line><text fill="currentColor" y="9" dy="0.71em"></text></g><g class="tick" opacity="1" transform="translate(434.73689900271563,0)"><line stroke="currentColor" y2="6"></line><text fill="currentColor" y="9" dy="0.71em"></text></g><g class="tick" opacity="1" transform="translate(445.8815504986421,0)"><line stroke="currentColor" y2="6"></line><text fill="currentColor" y="9" dy="0.71em"></text></g><g class="tick" opacity="1" transform="translate(454.98739379411893,0)"><line stroke="currentColor" y2="6"></line><text fill="currentColor" y="9" dy="0.71em"></text></g><g class="tick" opacity="1" transform="translate(462.68627460163947,0)"><line stroke="currentColor" y2="6"></line><text fill="currentColor" y="9" dy="0.71em"></text></g><g class="tick" opacity="1" transform="translate(469.3553485040735,0)"><line stroke="currentColor" y2="6"></line><text fill="currentColor" y="9" dy="0.71em"></text></g><g class="tick" opacity="1" transform="translate(475.23788858552234,0)"><line stroke="currentColor" y2="6"></line><text fill="currentColor" y="9" dy="0.71em"></text></g><g class="tick" opacity="1" transform="translate(480.5,0)"><line stroke="currentColor" y2="6"></line><text fill="currentColor" y="9" dy="0.71em">10000</text></g><text x="299" y="30" fill="currentColor" text-anchor="start">Number of dependent packages (popularity)</text></g><g transform="translate(20,0)" fill="none" font-size="10" font-family="sans-serif" text-anchor="end"><rect fill="white" x="-20" y="0" height="300" width="20"></rect><g class="tick" opacity="1" transform="translate(0,250.5)"><line stroke="currentColor" x2="-6"></line><text fill="currentColor" x="-9" dy="0.32em">0</text></g><g class="tick" opacity="1" transform="translate(0,227.5)"><line stroke="currentColor" x2="-6"></line><text fill="currentColor" x="-9" dy="0.32em">5</text></g><g class="tick" opacity="1" transform="translate(0,204.5)"><line stroke="currentColor" x2="-6"></line><text fill="currentColor" x="-9" dy="0.32em">10</text></g><g class="tick" opacity="1" transform="translate(0,181.5)"><line stroke="currentColor" x2="-6"></line><text fill="currentColor" x="-9" dy="0.32em">15</text></g><g class="tick" opacity="1" transform="translate(0,158.5)"><line stroke="currentColor" x2="-6"></line><text fill="currentColor" x="-9" dy="0.32em">20</text></g><g class="tick" opacity="1" transform="translate(0,135.5)"><line stroke="currentColor" x2="-6"></line><text fill="currentColor" x="-9" dy="0.32em">25</text></g><g class="tick" opacity="1" transform="translate(0,112.5)"><line stroke="currentColor" x2="-6"></line><text fill="currentColor" x="-9" dy="0.32em">30</text></g><g class="tick" opacity="1" transform="translate(0,89.50000000000001)"><line stroke="currentColor" x2="-6"></line><text fill="currentColor" x="-9" dy="0.32em">35</text></g><g class="tick" opacity="1" transform="translate(0,66.49999999999999)"><line stroke="currentColor" x2="-6"></line><text fill="currentColor" x="-9" dy="0.32em">40</text></g><g class="tick" opacity="1" transform="translate(0,43.49999999999999)"><line stroke="currentColor" x2="-6"></line><text fill="currentColor" x="-9" dy="0.32em">45</text></g><g class="tick" opacity="1" transform="translate(0,20.5)"><line stroke="currentColor" x2="-6"></line><text fill="currentColor" x="-9" dy="0.32em">50</text></g><text x="-20" y="10" fill="currentColor" text-anchor="start">Tree depth</text></g></svg>
