<svg viewBox="0,0,500,300" class="chart" xmlns="http://www.w3.org/2000/svg"><g fill="#BA2E17"><rect x="45" y="37.01277142857142" height="212.98722857142857" width="10.875"></rect><rect x="55.875" y="195.51694285714285" height="54.48305714285715" width="10.875"></rect><rect x="66.75" y="217.40045714285714" height="32.599542857142865" width="10.875"></rect><rect x="77.625" y="227.78594285714289" height="22.214057142857115" width="10.875"></rect><rect x="88.5" y="225.3913142857143" height="24.608685714285713" width="10.875"></rect><rect x="99.375" y="227.05454285714288" height="22.945457142857123" width="10.875"></rect><rect x="110.25" y="233.81457142857144" height="16.18542857142856" width="10.875"></rect><rect x="121.125" y="236.77762857142858" height="13.222371428571421" width="10.875"></rect><rect x="132" y="239.37465714285716" height="10.62534285714284" width="10.875"></rect><rect x="142.875" y="240.13037142857144" height="9.869628571428564" width="10.875"></rect><rect x="153.75" y="242.27134285714286" height="7.728657142857145" width="10.875"></rect><rect x="164.625" y="243.1046" height="6.895399999999995" width="10.875"></rect><rect x="175.5" y="244.57200000000003" height="5.427999999999969" width="10.875"></rect><rect x="186.375" y="245.27842857142855" height="4.721571428571451" width="10.875"></rect><rect x="197.25" y="245.14437142857145" height="4.855628571428554" width="10.875"></rect><rect x="208.125" y="246.27662857142857" height="3.7233714285714257" width="10.875"></rect><rect x="219" y="246.55985714285714" height="3.4401428571428596" width="10.875"></rect><rect x="229.875" y="246.80234285714286" height="3.197657142857139" width="10.875"></rect><rect x="240.75" y="247.15194285714287" height="2.8480571428571295" width="10.875"></rect><rect x="251.625" y="247.00145714285713" height="2.9985428571428656" width="10.875"></rect><rect x="262.5" y="247.50154285714285" height="2.4984571428571485" width="10.875"></rect><rect x="273.375" y="247.9162" height="2.0837999999999965" width="10.875"></rect><rect x="284.25" y="247.48839999999998" height="2.5116000000000156" width="10.875"></rect><rect x="295.125" y="248.50894285714287" height="1.4910571428571302" width="10.875"></rect><rect x="306" y="248.5036857142857" height="1.4963142857143055" width="10.875"></rect><rect x="316.875" y="248.52734285714286" height="1.4726571428571447" width="10.875"></rect><rect x="327.75" y="246.59534285714287" height="3.4046571428571326" width="10.875"></rect><rect x="338.625" y="245.73842857142856" height="4.261571428571443" width="10.875"></rect><rect x="349.5" y="248.68965714285716" height="1.3103428571428424" width="10.875"></rect><rect x="360.375" y="249.00968571428572" height="0.9903142857142768" width="10.875"></rect><rect x="371.25" y="249.22917142857145" height="0.7708285714285523" width="10.875"></rect><rect x="382.125" y="249.3205142857143" height="0.679485714285704" width="10.875"></rect><rect x="393" y="249.45391428571432" height="0.546085714285681" width="10.875"></rect><rect x="403.875" y="249.42697142857142" height="0.5730285714285799" width="10.875"></rect><rect x="414.75" y="249.43025714285713" height="0.5697428571428702" width="10.875"></rect><rect x="425.625" y="249.53868571428572" height="0.46131428571428046" width="10.875"></rect><rect x="436.5" y="249.5110857142857" height="0.4889142857142872" width="10.875"></rect><rect x="447.375" y="249.68654285714285" height="0.3134571428571462" width="10.875"></rect><rect x="458.25" y="249.63265714285714" height="0.36734285714285875" width="10.875"></rect><rect x="469.125" y="249.53277142857144" height="0.46722857142856355" width="10.875"></rect><rect x="480" y="249.94808571428572" height="0.051914285714275366" width="0"></rect></g><g transform="translate(0,250)" fill="none" font-size="10" font-family="sans-serif" text-anchor="middle"><path class="domain" stroke="currentColor" d="M45.5,6V0.5H480.5V6"></path><g class="tick" opacity="1" transform="translate(45.5,0)"><line stroke="currentColor" y2="6"></line><text fill="currentColor" y="9" dy="0.71em">0</text></g><g class="tick" opacity="1" transform="translate(154.25,0)"><line stroke="currentColor" y2="6"></line><text fill="currentColor" y="9" dy="0.71em">100</text></g><g class="tick" opacity="1" transform="translate(263,0)"><line stroke="currentColor" y2="6"></line><text fill="currentColor" y="9" dy="0.71em">200</text></g><g class="tick" opacity="1" transform="translate(371.75,0)"><line stroke="currentColor" y2="6"></line><text fill="currentColor" y="9" dy="0.71em">300</text></g><g class="tick" opacity="1" transform="translate(480.5,0)"><line stroke="currentColor" y2="6"></line><text fill="currentColor" y="9" dy="0.71em">400</text></g><text x="400" y="30" fill="currentColor" text-anchor="start">Total dependencies</text></g><g transform="translate(45,0)" fill="none" font-size="10" font-family="sans-serif" text-anchor="end"><g class="tick" opacity="1" transform="translate(0,250.5)"><line stroke="currentColor" x2="-6"></line><text fill="currentColor" x="-9" dy="0.32em">0</text></g><g class="tick" opacity="1" transform="translate(0,217.64285714285717)"><line stroke="currentColor" x2="-6"></line><text fill="currentColor" x="-9" dy="0.32em">50,000</text></g><g class="tick" opacity="1" transform="translate(0,184.7857142857143)"><line stroke="currentColor" x2="-6"></line><text fill="currentColor" x="-9" dy="0.32em">100,000</text></g><g class="tick" opacity="1" transform="translate(0,151.92857142857144)"><line stroke="currentColor" x2="-6"></line><text fill="currentColor" x="-9" dy="0.32em">150,000</text></g><g class="tick" opacity="1" transform="translate(0,119.07142857142858)"><line stroke="currentColor" x2="-6"></line><text fill="currentColor" x="-9" dy="0.32em">200,000</text></g><g class="tick" opacity="1" transform="translate(0,86.21428571428572)"><line stroke="currentColor" x2="-6"></line><text fill="currentColor" x="-9" dy="0.32em">250,000</text></g><g class="tick" opacity="1" transform="translate(0,53.357142857142875)"><line stroke="currentColor" x2="-6"></line><text fill="currentColor" x="-9" dy="0.32em">300,000</text></g><g class="tick" opacity="1" transform="translate(0,20.5)"><line stroke="currentColor" x2="-6"></line><text fill="currentColor" x="-9" dy="0.32em">350,000</text></g><text x="-45" y="10" fill="currentColor" text-anchor="start">Number of packages</text></g></svg>
