<svg viewBox="0,0,500,300" class="chart" xmlns="http://www.w3.org/2000/svg"><g fill="#888"><rect x="46.39871382636656" y="38.977555555555554" height="211.02244444444443" width="12.588424437299036"></rect><rect x="60.38585209003216" y="139.43644444444445" height="110.56355555555555" width="12.588424437299036"></rect><rect x="74.37299035369776" y="193.84294444444447" height="56.15705555555553" width="12.588424437299036"></rect><rect x="88.36012861736334" y="222.6057222222222" height="27.394277777777802" width="12.588424437299036"></rect><rect x="102.34726688102894" y="236.2741111111111" height="13.725888888888903" width="12.588424437299036"></rect><rect x="116.33440514469454" y="242.93772222222222" height="7.06227777777778" width="12.588424437299036"></rect><rect x="130.32154340836013" y="247.28983333333332" height="2.71016666666668" width="12.588424437299036"></rect><rect x="144.30868167202573" y="247.66677777777778" height="2.3332222222222185" width="12.588424437299036"></rect><rect x="158.29581993569133" y="249.3227777777778" height="0.6772222222222126" width="12.588424437299036"></rect><rect x="172.28295819935693" y="249.68055555555554" height="0.3194444444444571" width="12.588424437299036"></rect><rect x="186.27009646302253" y="249.87222222222223" height="0.12777777777776578" width="12.588424437299036"></rect><rect x="200.25723472668813" y="249.9361111111111" height="0.0638888888888971" width="12.588424437299036"></rect><rect x="214.2443729903537" y="249.9361111111111" height="0.0638888888888971" width="12.588424437299036"></rect><rect x="228.2315112540193" y="249.96805555555554" height="0.03194444444446276" width="12.588424437299036"></rect><rect x="242.2186495176849" y="249.98466666666667" height="0.015333333333330756" width="12.588424437299036"></rect><rect x="256.2057877813505" y="249.99233333333333" height="0.007666666666665378" width="12.588424437299036"></rect><rect x="270.19292604501607" y="249.99616666666668" height="0.0038333333333184783" width="12.588424437299036"></rect><rect x="284.1800643086817" y="249.99872222222223" height="0.001277777777772826" width="12.588424437299036"></rect><rect x="298.16720257234726" y="250" height="0" width="12.588424437299036"></rect><rect x="312.1543408360129" y="250" height="0" width="12.588424437299036"></rect><rect x="326.14147909967846" y="250" height="0" width="12.588424437299036"></rect><rect x="340.1286173633441" y="250" height="0" width="12.588424437299036"></rect><rect x="354.11575562700966" y="250" height="0" width="12.588424437299036"></rect><rect x="368.1028938906753" y="250" height="0" width="12.588424437299036"></rect><rect x="382.09003215434086" y="250" height="0" width="12.588424437299036"></rect><rect x="396.0771704180064" y="250" height="0" width="12.588424437299036"></rect><rect x="410.06430868167206" y="250" height="0" width="12.588424437299036"></rect><rect x="424.0514469453376" y="250" height="0" width="12.588424437299036"></rect><rect x="438.03858520900326" y="250" height="0" width="12.588424437299036"></rect><rect x="452.0257234726688" y="250" height="0" width="12.588424437299036"></rect><rect x="466.01286173633446" y="250" height="0" width="12.588424437299036"></rect></g><g transform="translate(0,250)" fill="none" font-size="10" font-family="sans-serif" text-anchor="middle"><path class="domain" stroke="currentColor" d="M45.5,0.5H480.5"></path><g class="tick" opacity="1" transform="translate(52.69292604501608,0)"><line stroke="currentColor" y2="6"></line><text fill="currentColor" y="9" dy="0.71em">1</text></g><g class="tick" opacity="1" transform="translate(66.68006430868168,0)"><line stroke="currentColor" y2="6"></line><text fill="currentColor" y="9" dy="0.71em">2</text></g><g class="tick" opacity="1" transform="translate(80.66720257234728,0)"><line stroke="currentColor" y2="6"></line><text fill="currentColor" y="9" dy="0.71em">3</text></g><g class="tick" opacity="1" transform="translate(94.65434083601286,0)"><line stroke="currentColor" y2="6"></line><text fill="currentColor" y="9" dy="0.71em">4</text></g><g class="tick" opacity="1" transform="translate(108.64147909967846,0)"><line stroke="currentColor" y2="6"></line><text fill="currentColor" y="9" dy="0.71em">5</text></g><g class="tick" opacity="1" transform="translate(122.62861736334406,0)"><line stroke="currentColor" y2="6"></line><text fill="currentColor" y="9" dy="0.71em">6</text></g><g class="tick" opacity="1" transform="translate(136.61575562700963,0)"><line stroke="currentColor" y2="6"></line><text fill="currentColor" y="9" dy="0.71em">7</text></g><g class="tick" opacity="1" transform="translate(150.60289389067523,0)"><line stroke="currentColor" y2="6"></line><text fill="currentColor" y="9" dy="0.71em">8</text></g><g class="tick" opacity="1" transform="translate(164.59003215434083,0)"><line stroke="currentColor" y2="6"></line><text fill="currentColor" y="9" dy="0.71em">9</text></g><g class="tick" opacity="1" transform="translate(178.57717041800643,0)"><line stroke="currentColor" y2="6"></line><text fill="currentColor" y="9" dy="0.71em">10</text></g><g class="tick" opacity="1" transform="translate(192.56430868167203,0)"><line stroke="currentColor" y2="6"></line><text fill="currentColor" y="9" dy="0.71em">11</text></g><g class="tick" opacity="1" transform="translate(206.55144694533763,0)"><line stroke="currentColor" y2="6"></line><text fill="currentColor" y="9" dy="0.71em">12</text></g><g class="tick" opacity="1" transform="translate(220.5385852090032,0)"><line stroke="currentColor" y2="6"></line><text fill="currentColor" y="9" dy="0.71em">13</text></g><g class="tick" opacity="1" transform="translate(234.5257234726688,0)"><line stroke="currentColor" y2="6"></line><text fill="currentColor" y="9" dy="0.71em">14</text></g><g class="tick" opacity="1" transform="translate(248.5128617363344,0)"><line stroke="currentColor" y2="6"></line><text fill="currentColor" y="9" dy="0.71em">15</text></g><g class="tick" opacity="1" transform="translate(262.50000000000006,0)"><line stroke="currentColor" y2="6"></line><text fill="currentColor" y="9" dy="0.71em">16</text></g><g class="tick" opacity="1" transform="translate(276.4871382636656,0)"><line stroke="currentColor" y2="6"></line><text fill="currentColor" y="9" dy="0.71em">17</text></g><g class="tick" opacity="1" transform="translate(290.47427652733126,0)"><line stroke="currentColor" y2="6"></line><text fill="currentColor" y="9" dy="0.71em">18</text></g><g class="tick" opacity="1" transform="translate(304.4614147909968,0)"><line stroke="currentColor" y2="6"></line><text fill="currentColor" y="9" dy="0.71em">19</text></g><g class="tick" opacity="1" transform="translate(318.44855305466245,0)"><line stroke="currentColor" y2="6"></line><text fill="currentColor" y="9" dy="0.71em">20</text></g><g class="tick" opacity="1" transform="translate(332.435691318328,0)"><line stroke="currentColor" y2="6"></line><text fill="currentColor" y="9" dy="0.71em">21</text></g><g class="tick" opacity="1" transform="translate(346.42282958199365,0)"><line stroke="currentColor" y2="6"></line><text fill="currentColor" y="9" dy="0.71em">22</text></g><g class="tick" opacity="1" transform="translate(360.4099678456592,0)"><line stroke="currentColor" y2="6"></line><text fill="currentColor" y="9" dy="0.71em">23</text></g><g class="tick" opacity="1" transform="translate(374.39710610932485,0)"><line stroke="currentColor" y2="6"></line><text fill="currentColor" y="9" dy="0.71em">24</text></g><g class="tick" opacity="1" transform="translate(388.3842443729904,0)"><line stroke="currentColor" y2="6"></line><text fill="currentColor" y="9" dy="0.71em">25</text></g><g class="tick" opacity="1" transform="translate(402.37138263665594,0)"><line stroke="currentColor" y2="6"></line><text fill="currentColor" y="9" dy="0.71em">26</text></g><g class="tick" opacity="1" transform="translate(416.3585209003216,0)"><line stroke="currentColor" y2="6"></line><text fill="currentColor" y="9" dy="0.71em">27</text></g><g class="tick" opacity="1" transform="translate(430.34565916398714,0)"><line stroke="currentColor" y2="6"></line><text fill="currentColor" y="9" dy="0.71em">28</text></g><g class="tick" opacity="1" transform="translate(444.3327974276528,0)"><line stroke="currentColor" y2="6"></line><text fill="currentColor" y="9" dy="0.71em">29</text></g><g class="tick" opacity="1" transform="translate(458.31993569131834,0)"><line stroke="currentColor" y2="6"></line><text fill="currentColor" y="9" dy="0.71em">30</text></g><g class="tick" opacity="1" transform="translate(472.307073954984,0)"><line stroke="currentColor" y2="6"></line><text fill="currentColor" y="9" dy="0.71em">31</text></g><text x="370" y="30" fill="currentColor" text-anchor="start">Dependency tree depth</text></g><g transform="translate(45,0)" fill="none" font-size="10" font-family="sans-serif" text-anchor="end"><g class="tick" opacity="1" transform="translate(0,250.5)"><line stroke="currentColor" x2="-6"></line><text fill="currentColor" x="-9" dy="0.32em">0</text></g><g class="tick" opacity="1" transform="translate(0,224.94444444444443)"><line stroke="currentColor" x2="-6"></line><text fill="currentColor" x="-9" dy="0.32em">20,000</text></g><g class="tick" opacity="1" transform="translate(0,199.3888888888889)"><line stroke="currentColor" x2="-6"></line><text fill="currentColor" x="-9" dy="0.32em">40,000</text></g><g class="tick" opacity="1" transform="translate(0,173.83333333333334)"><line stroke="currentColor" x2="-6"></line><text fill="currentColor" x="-9" dy="0.32em">60,000</text></g><g class="tick" opacity="1" transform="translate(0,148.27777777777777)"><line stroke="currentColor" x2="-6"></line><text fill="currentColor" x="-9" dy="0.32em">80,000</text></g><g class="tick" opacity="1" transform="translate(0,122.72222222222221)"><line stroke="currentColor" x2="-6"></line><text fill="currentColor" x="-9" dy="0.32em">100,000</text></g><g class="tick" opacity="1" transform="translate(0,97.16666666666667)"><line stroke="currentColor" x2="-6"></line><text fill="currentColor" x="-9" dy="0.32em">120,000</text></g><g class="tick" opacity="1" transform="translate(0,71.6111111111111)"><line stroke="currentColor" x2="-6"></line><text fill="currentColor" x="-9" dy="0.32em">140,000</text></g><g class="tick" opacity="1" transform="translate(0,46.05555555555557)"><line stroke="currentColor" x2="-6"></line><text fill="currentColor" x="-9" dy="0.32em">160,000</text></g><g class="tick" opacity="1" transform="translate(0,20.5)"><line stroke="currentColor" x2="-6"></line><text fill="currentColor" x="-9" dy="0.32em">180,000</text></g><text x="-45" y="10" fill="currentColor" text-anchor="start">Number of packages</text></g></svg>
