<svg viewBox="0,0,500,300" class="chart" xmlns="http://www.w3.org/2000/svg"><g fill="#BA2E17"><rect x="46.49484536082471" y="35.14461538461539" height="214.85449999999997" width="13.453608247422682"></rect><rect x="61.44329896907214" y="115.3986923076923" height="134.60042307692308" width="13.453608247422682"></rect><rect x="76.39175257731956" y="157.2993846153846" height="92.69973076923077" width="13.453608247422682"></rect><rect x="91.34020618556698" y="185.92907692307693" height="64.07003846153845" width="13.453608247422682"></rect><rect x="106.28865979381442" y="204.79084615384616" height="45.20826923076922" width="13.453608247422682"></rect><rect x="121.23711340206184" y="216.26784615384616" height="33.731269230769215" width="13.453608247422682"></rect><rect x="136.18556701030926" y="224.80084615384615" height="25.198269230769228" width="13.453608247422682"></rect><rect x="151.1340206185567" y="230.4385" height="19.560615384615375" width="13.453608247422682"></rect><rect x="166.0824742268041" y="235.28442307692308" height="14.714692307692303" width="13.453608247422682"></rect><rect x="181.03092783505153" y="238.60261538461538" height="11.396500000000003" width="13.453608247422682"></rect><rect x="195.97938144329896" y="240.41342307692307" height="9.585692307692312" width="13.453608247422682"></rect><rect x="210.9278350515464" y="241.32634615384612" height="8.672769230769262" width="13.453608247422682"></rect><rect x="225.8762886597938" y="243.19907692307692" height="6.800038461538463" width="13.453608247422682"></rect><rect x="240.82474226804123" y="244.45346153846154" height="5.54565384615384" width="13.453608247422682"></rect><rect x="255.77319587628867" y="245.14965384615385" height="4.849461538461526" width="13.453608247422682"></rect><rect x="270.7216494845361" y="246.07584615384616" height="3.923269230769222" width="13.453608247422682"></rect><rect x="285.6701030927835" y="246.67915384615384" height="3.3199615384615413" width="13.453608247422682"></rect><rect x="300.6185567010309" y="247.06130769230768" height="2.9378076923077003" width="13.453608247422682"></rect><rect x="315.5670103092783" y="247.55049999999997" height="2.448615384615408" width="13.453608247422682"></rect><rect x="330.51546391752584" y="247.85657692307691" height="2.1425384615384644" width="13.453608247422682"></rect><rect x="345.46391752577324" y="248.1316923076923" height="1.8674230769230746" width="13.453608247422682"></rect><rect x="360.41237113402065" y="248.34665384615386" height="1.652461538461523" width="13.453608247422682"></rect><rect x="375.36082474226805" y="248.44926923076923" height="1.549846153846147" width="13.453608247422682"></rect><rect x="390.30927835051546" y="248.6766153846154" height="1.322499999999991" width="13.453608247422682"></rect><rect x="405.25773195876286" y="248.64476923076924" height="1.3543461538461372" width="13.453608247422682"></rect><rect x="420.2061855670104" y="248.92253846153844" height="1.0765769230769422" width="13.453608247422682"></rect><rect x="435.1546391752578" y="249.07380769230767" height="0.9253076923077117" width="13.453608247422682"></rect><rect x="450.1030927835052" y="249.17819230769229" height="0.8209230769230942" width="13.453608247422682"></rect><rect x="465.0515463917526" y="249.22507692307693" height="0.7740384615384528" width="13.453608247422682"></rect><rect y="249.25426923076924" height="0.7448461538461402" width="13.453608247422682"></rect></g><g transform="translate(0,249.99911538461538)" fill="none" font-size="10" font-family="sans-serif" text-anchor="middle"><path class="domain" stroke="currentColor" d="M45.5,6V0.5H480.5V6"></path><g class="tick" opacity="1" transform="translate(53.22164948453605,0)"><line stroke="currentColor" y2="6"></line><text fill="currentColor" y="9" dy="0.71em">1</text></g><g class="tick" opacity="1" transform="translate(68.17010309278348,0)"><line stroke="currentColor" y2="6"></line><text fill="currentColor" y="9" dy="0.71em">2</text></g><g class="tick" opacity="1" transform="translate(83.11855670103091,0)"><line stroke="currentColor" y2="6"></line><text fill="currentColor" y="9" dy="0.71em">3</text></g><g class="tick" opacity="1" transform="translate(98.06701030927833,0)"><line stroke="currentColor" y2="6"></line><text fill="currentColor" y="9" dy="0.71em">4</text></g><g class="tick" opacity="1" transform="translate(113.01546391752576,0)"><line stroke="currentColor" y2="6"></line><text fill="currentColor" y="9" dy="0.71em">5</text></g><g class="tick" opacity="1" transform="translate(127.96391752577318,0)"><line stroke="currentColor" y2="6"></line><text fill="currentColor" y="9" dy="0.71em">6</text></g><g class="tick" opacity="1" transform="translate(142.9123711340206,0)"><line stroke="currentColor" y2="6"></line><text fill="currentColor" y="9" dy="0.71em">7</text></g><g class="tick" opacity="1" transform="translate(157.86082474226802,0)"><line stroke="currentColor" y2="6"></line><text fill="currentColor" y="9" dy="0.71em">8</text></g><g class="tick" opacity="1" transform="translate(172.80927835051543,0)"><line stroke="currentColor" y2="6"></line><text fill="currentColor" y="9" dy="0.71em">9</text></g><g class="tick" opacity="1" transform="translate(187.75773195876286,0)"><line stroke="currentColor" y2="6"></line><text fill="currentColor" y="9" dy="0.71em">10</text></g><g class="tick" opacity="1" transform="translate(202.7061855670103,0)"><line stroke="currentColor" y2="6"></line><text fill="currentColor" y="9" dy="0.71em">11</text></g><g class="tick" opacity="1" transform="translate(217.65463917525773,0)"><line stroke="currentColor" y2="6"></line><text fill="currentColor" y="9" dy="0.71em">12</text></g><g class="tick" opacity="1" transform="translate(232.60309278350513,0)"><line stroke="currentColor" y2="6"></line><text fill="currentColor" y="9" dy="0.71em">13</text></g><g class="tick" opacity="1" transform="translate(247.55154639175257,0)"><line stroke="currentColor" y2="6"></line><text fill="currentColor" y="9" dy="0.71em">14</text></g><g class="tick" opacity="1" transform="translate(262.5,0)"><line stroke="currentColor" y2="6"></line><text fill="currentColor" y="9" dy="0.71em">15</text></g><g class="tick" opacity="1" transform="translate(277.44845360824746,0)"><line stroke="currentColor" y2="6"></line><text fill="currentColor" y="9" dy="0.71em">16</text></g><g class="tick" opacity="1" transform="translate(292.39690721649487,0)"><line stroke="currentColor" y2="6"></line><text fill="currentColor" y="9" dy="0.71em">17</text></g><g class="tick" opacity="1" transform="translate(307.3453608247423,0)"><line stroke="currentColor" y2="6"></line><text fill="currentColor" y="9" dy="0.71em">18</text></g><g class="tick" opacity="1" transform="translate(322.2938144329897,0)"><line stroke="currentColor" y2="6"></line><text fill="currentColor" y="9" dy="0.71em">19</text></g><g class="tick" opacity="1" transform="translate(337.2422680412372,0)"><line stroke="currentColor" y2="6"></line><text fill="currentColor" y="9" dy="0.71em">20</text></g><g class="tick" opacity="1" transform="translate(352.1907216494846,0)"><line stroke="currentColor" y2="6"></line><text fill="currentColor" y="9" dy="0.71em">21</text></g><g class="tick" opacity="1" transform="translate(367.139175257732,0)"><line stroke="currentColor" y2="6"></line><text fill="currentColor" y="9" dy="0.71em">22</text></g><g class="tick" opacity="1" transform="translate(382.0876288659794,0)"><line stroke="currentColor" y2="6"></line><text fill="currentColor" y="9" dy="0.71em">23</text></g><g class="tick" opacity="1" transform="translate(397.0360824742268,0)"><line stroke="currentColor" y2="6"></line><text fill="currentColor" y="9" dy="0.71em">24</text></g><g class="tick" opacity="1" transform="translate(411.9845360824742,0)"><line stroke="currentColor" y2="6"></line><text fill="currentColor" y="9" dy="0.71em">25</text></g><g class="tick" opacity="1" transform="translate(426.93298969072174,0)"><line stroke="currentColor" y2="6"></line><text fill="currentColor" y="9" dy="0.71em">26</text></g><g class="tick" opacity="1" transform="translate(441.88144329896915,0)"><line stroke="currentColor" y2="6"></line><text fill="currentColor" y="9" dy="0.71em">27</text></g><g class="tick" opacity="1" transform="translate(456.82989690721655,0)"><line stroke="currentColor" y2="6"></line><text fill="currentColor" y="9" dy="0.71em">28</text></g><g class="tick" opacity="1" transform="translate(471.77835051546396,0)"><line stroke="currentColor" y2="6"></line><text fill="currentColor" y="9" dy="0.71em">29</text></g><text x="270" y="30" fill="currentColor" text-anchor="start">Number of direct dependencies (branching factor)</text></g><g transform="translate(45,0)" fill="none" font-size="10" font-family="sans-serif" text-anchor="end"><g class="tick" opacity="1" transform="translate(0,250.5)"><line stroke="currentColor" x2="-6"></line><text fill="currentColor" x="-9" dy="0.32em">0</text></g><g class="tick" opacity="1" transform="translate(0,232.80769230769232)"><line stroke="currentColor" x2="-6"></line><text fill="currentColor" x="-9" dy="0.32em">20,000</text></g><g class="tick" opacity="1" transform="translate(0,215.1153846153846)"><line stroke="currentColor" x2="-6"></line><text fill="currentColor" x="-9" dy="0.32em">40,000</text></g><g class="tick" opacity="1" transform="translate(0,197.4230769230769)"><line stroke="currentColor" x2="-6"></line><text fill="currentColor" x="-9" dy="0.32em">60,000</text></g><g class="tick" opacity="1" transform="translate(0,179.73076923076923)"><line stroke="currentColor" x2="-6"></line><text fill="currentColor" x="-9" dy="0.32em">80,000</text></g><g class="tick" opacity="1" transform="translate(0,162.03846153846155)"><line stroke="currentColor" x2="-6"></line><text fill="currentColor" x="-9" dy="0.32em">100,000</text></g><g class="tick" opacity="1" transform="translate(0,144.34615384615384)"><line stroke="currentColor" x2="-6"></line><text fill="currentColor" x="-9" dy="0.32em">120,000</text></g><g class="tick" opacity="1" transform="translate(0,126.65384615384616)"><line stroke="currentColor" x2="-6"></line><text fill="currentColor" x="-9" dy="0.32em">140,000</text></g><g class="tick" opacity="1" transform="translate(0,108.96153846153845)"><line stroke="currentColor" x2="-6"></line><text fill="currentColor" x="-9" dy="0.32em">160,000</text></g><g class="tick" opacity="1" transform="translate(0,91.26923076923077)"><line stroke="currentColor" x2="-6"></line><text fill="currentColor" x="-9" dy="0.32em">180,000</text></g><g class="tick" opacity="1" transform="translate(0,73.57692307692307)"><line stroke="currentColor" x2="-6"></line><text fill="currentColor" x="-9" dy="0.32em">200,000</text></g><g class="tick" opacity="1" transform="translate(0,55.88461538461539)"><line stroke="currentColor" x2="-6"></line><text fill="currentColor" x="-9" dy="0.32em">220,000</text></g><g class="tick" opacity="1" transform="translate(0,38.19230769230768)"><line stroke="currentColor" x2="-6"></line><text fill="currentColor" x="-9" dy="0.32em">240,000</text></g><g class="tick" opacity="1" transform="translate(0,20.5)"><line stroke="currentColor" x2="-6"></line><text fill="currentColor" x="-9" dy="0.32em">260,000</text></g><text x="-45" y="10" fill="currentColor" text-anchor="start">Number of packages</text></g></svg>
