<?xml version="1.0" standalone="no"?><!DOCTYPE svg PUBLIC "-//W3C//DTD SVG 1.1//EN" "http://www.w3.org/Graphics/SVG/1.1/DTD/svg11.dtd"><svg width="100%" height="100%" viewBox="0 0 200 200" version="1.1" xmlns="http://www.w3.org/2000/svg" xmlns:xlink="http://www.w3.org/1999/xlink" xml:space="preserve" style="fill-rule:evenodd;clip-rule:evenodd;stroke-linejoin:round;stroke-miterlimit:1.41421;"><rect x="137.666" y="6.988" width="55.738" height="55.738" style="fill:#f80;"/><rect x="6.352" y="6.988" width="55.738" height="55.738" style="fill:#f80;"/><rect x="72.649" y="6.988" width="55.738" height="55.738" style="fill:#f80;"/><rect x="137.666" y="71.783" width="55.738" height="55.738" style="fill:#f80;"/><rect x="6.352" y="71.783" width="55.738" height="55.738" style="fill:#f80;"/><rect x="72.649" y="71.783" width="55.738" height="55.738" style="fill:#f80;"/><path d="M193.404,192.567l-55.738,0l0,-41.347l14.391,-14.391l41.347,0l0,55.738Z" style="fill:#f80;"/><rect x="6.352" y="136.829" width="55.738" height="55.738" style="fill:#f80;"/><rect x="72.649" y="136.829" width="55.738" height="55.738" style="fill:#f80;"/><path d="M137.957,151.631l14.391,-14.391l0,14.391l-14.391,0Z" style="fill:#d87f2a;"/><path d="M137.621,151.226l14.391,-14.391l0,14.391l-14.391,0Z" style="fill:#fff;"/></svg>